<svg width="36" height="36" viewBox="0 0 36 36" fill="none" xmlns="http://www.w3.org/2000/svg">
<circle cx="18" cy="18" r="18" fill="black" fill-opacity="0.1"/>
<path d="M20.3798 18.0001L25.7659 12.6141C26.0774 12.3026 26.0774 11.7971 25.7659 11.4851L24.5144 10.2336C24.2028 9.92212 23.6973 9.92212 23.3853 10.2336L17.9998 15.6201L12.6137 10.2341C12.3022 9.92263 11.7967 9.92263 11.4846 10.2341L10.2336 11.4851C9.92212 11.7966 9.92212 12.3021 10.2336 12.6141L15.6197 18.0001L10.2336 23.3861C9.92212 23.6976 9.92212 24.2031 10.2336 24.5151L11.4851 25.7666C11.7967 26.0781 12.3022 26.0781 12.6142 25.7666L17.9998 20.3801L23.3858 25.7661C23.6973 26.0776 24.2028 26.0776 24.5149 25.7661L25.7664 24.5146C26.0779 24.2031 26.0779 23.6976 25.7664 23.3856L20.3798 18.0001Z" fill="white"/>
</svg>
