<svg width="24" height="23" viewBox="0 0 24 23" fill="none" xmlns="http://www.w3.org/2000/svg">
<path fill-rule="evenodd" clip-rule="evenodd" d="M9.90726 19.0232C9.90726 19.0232 11.2861 19.1632 11.9998 19.1632C18.6272 19.1632 24 15.0266 24 9.92351C24 4.8211 18.6272 0.684326 11.9998 0.684326C5.37255 0.684326 0 4.8211 0 9.92351C0 13.0866 2.06396 15.8783 5.21174 17.5438C5.21174 17.5438 4.78645 19.7537 2.40764 21.8714C2.40764 21.8714 2.17218 22.2751 2.87784 22.1243C3.5841 21.9734 7.97134 20.4616 9.90726 19.0232Z" fill="#412D33"/>
<path fill-rule="evenodd" clip-rule="evenodd" d="M13.869 11.9189H15.4793C15.7751 11.9189 16.0144 12.1585 16.0144 12.4536C16.0144 12.749 15.7751 12.9886 15.4793 12.9886H13.1253C12.8295 12.9886 12.5902 12.749 12.5902 12.4536C12.5902 12.4188 12.594 12.3846 12.6006 12.3515C12.5952 12.3178 12.5902 12.2843 12.5902 12.2491V7.68062C12.5902 7.32719 12.8768 7.04102 13.2297 7.04102C13.5826 7.04102 13.869 7.32719 13.869 7.68062V11.9189ZM3.69038 7.12307H7.15463C7.48029 7.12307 7.74409 7.38686 7.74409 7.71214C7.74409 8.0378 7.48029 8.3017 7.15463 8.3017H6.09084V12.4514C6.09084 12.6029 6.02897 12.7508 5.92127 12.8581C5.81532 12.9651 5.66783 13.026 5.51712 13.026H5.39123C5.23973 13.026 5.09186 12.9651 4.98591 12.8578C4.87791 12.7504 4.81633 12.6025 4.81633 12.4514V8.3017H3.69038C3.36472 8.3017 3.10092 8.0378 3.10092 7.71214C3.10092 7.38686 3.36472 7.12307 3.69038 7.12307ZM20.6271 12.113L18.8317 9.75551L20.454 8.13285C20.674 7.91353 20.674 7.55688 20.4543 7.33755C20.2345 7.11784 19.8784 7.11784 19.6585 7.33755L17.6506 9.34559V7.68062C17.6506 7.32719 17.3641 7.04102 17.0113 7.04102C16.6584 7.04102 16.3716 7.32719 16.3716 7.68062V12.3893C16.3716 12.743 16.6584 13.0289 17.0113 13.0289C17.3641 13.0289 17.6506 12.743 17.6506 12.3893V10.9366L18.0154 10.5717L19.713 12.8002C19.902 13.053 20.2611 13.1038 20.5133 12.9139C20.7661 12.7241 20.8168 12.3657 20.6271 12.113ZM9.54423 8.47214L8.7504 10.7376H10.3631L9.56984 8.47429C9.56539 8.47429 9.56121 8.47375 9.55703 8.47322C9.55286 8.47268 9.54868 8.47214 9.54423 8.47214ZM10.3857 7.5435L12.1122 12.2664C12.217 12.565 12.0599 12.8918 11.7619 12.9962C11.4637 13.1012 11.1366 12.9443 11.0316 12.6456L10.738 11.8073H8.37521L8.08151 12.6456C7.97663 12.9443 7.6496 13.1012 7.3513 12.9962C7.05339 12.8918 6.89623 12.565 7.0011 12.2664L8.69872 7.71308C8.7084 7.68571 8.72003 7.6605 8.73176 7.63557C8.80115 7.29857 9.1495 7.04122 9.57114 7.04122C9.95095 7.04122 10.2694 7.25087 10.38 7.53852L10.3857 7.5435Z" fill="#FAE001"/>
</svg>
