<svg width="60" height="60" viewBox="0 0 60 60" fill="none" xmlns="http://www.w3.org/2000/svg">
<path d="M30.301 37.8186L31.3112 36.7966C31.5502 36.5547 31.5502 36.1625 31.3112 35.9206L26.8249 31.342H37.3878C37.7259 31.342 38 31.0647 38 30.7226V29.2773C38 28.9353 37.7259 28.658 37.3878 28.658H26.8249L31.3112 24.0793C31.5502 23.8374 31.5502 23.4452 31.3112 23.2033L30.301 22.1814C30.0619 21.9395 29.6743 21.9395 29.4351 22.1814L22.1793 29.562C21.9402 29.8039 21.9402 30.1961 22.1793 30.438L29.4351 37.8186C29.6742 38.0605 30.0619 38.0605 30.301 37.8186Z" fill="#415376"/>
</svg>
