<svg width="60" height="60" viewBox="0 0 60 60" fill="none" xmlns="http://www.w3.org/2000/svg">
<path d="M32.3798 30.0001L37.7659 24.6141C38.0774 24.3026 38.0774 23.7971 37.7659 23.4851L36.5144 22.2336C36.2028 21.9221 35.6973 21.9221 35.3853 22.2336L29.9998 27.6201L24.6137 22.2341C24.3022 21.9226 23.7967 21.9226 23.4846 22.2341L22.2336 23.4851C21.9221 23.7966 21.9221 24.3021 22.2336 24.6141L27.6197 30.0001L22.2336 35.3861C21.9221 35.6976 21.9221 36.2031 22.2336 36.5151L23.4851 37.7666C23.7967 38.0781 24.3022 38.0781 24.6142 37.7666L29.9998 32.3801L35.3858 37.7661C35.6973 38.0776 36.2028 38.0776 36.5149 37.7661L37.7664 36.5146C38.0779 36.2031 38.0779 35.6976 37.7664 35.3856L32.3798 30.0001Z" fill="#415376"/>
</svg>
