<svg width="36" height="36" viewBox="0 0 36 36" fill="none" xmlns="http://www.w3.org/2000/svg">
<g opacity="0.5">
<path fill-rule="evenodd" clip-rule="evenodd" d="M16.0817 26.0738C16.0817 26.0738 17.3456 26.2021 17.9999 26.2021C24.075 26.2021 29 22.4103 29 17.7324C29 13.0552 24.075 9.26318 17.9999 9.26318C11.9248 9.26318 7 13.0552 7 17.7324C7 20.632 8.89197 23.1909 11.7774 24.7177C11.7774 24.7177 11.3876 26.7435 9.207 28.6847C9.207 28.6847 8.99117 29.0547 9.63802 28.9165C10.2854 28.7782 14.3071 27.3923 16.0817 26.0738Z" fill="white"/>
<path fill-rule="evenodd" clip-rule="evenodd" d="M16.0817 26.0738C16.0817 26.0738 17.3456 26.2021 17.9999 26.2021C24.075 26.2021 29 22.4103 29 17.7324C29 13.0552 24.075 9.26318 17.9999 9.26318C11.9248 9.26318 7 13.0552 7 17.7324C7 20.632 8.89197 23.1909 11.7774 24.7177C11.7774 24.7177 11.3876 26.7435 9.207 28.6847C9.207 28.6847 8.99117 29.0547 9.63802 28.9165C10.2854 28.7782 14.3071 27.3923 16.0817 26.0738Z" fill="#525F7A"/>
</g>
<path fill-rule="evenodd" clip-rule="evenodd" d="M19.7132 19.5614H21.1893C21.4605 19.5614 21.6798 19.7811 21.6798 20.0516C21.6798 20.3224 21.4605 20.542 21.1893 20.542H19.0315C18.7603 20.542 18.541 20.3224 18.541 20.0516C18.541 20.0197 18.5444 19.9884 18.5505 19.9581C18.5455 19.9272 18.541 19.8964 18.541 19.8642V15.6764C18.541 15.3524 18.8036 15.0901 19.1272 15.0901C19.4506 15.0901 19.7132 15.3524 19.7132 15.6764V19.5614ZM10.3831 15.1659H13.5587C13.8572 15.1659 14.099 15.4077 14.099 15.7059C14.099 16.0044 13.8572 16.2463 13.5587 16.2463H12.5835V20.0502C12.5835 20.1891 12.5268 20.3246 12.4281 20.423C12.331 20.5211 12.1958 20.5769 12.0576 20.5769H11.9422C11.8034 20.5769 11.6678 20.5211 11.5707 20.4227C11.4717 20.3242 11.4152 20.1887 11.4152 20.0502V16.2463H10.3831C10.0846 16.2463 9.84277 16.0044 9.84277 15.7059C9.84277 15.4077 10.0846 15.1659 10.3831 15.1659ZM25.9079 19.7394L24.2622 17.5784L25.7493 16.0909C25.9509 15.8899 25.9509 15.563 25.7495 15.3619C25.5481 15.1605 25.2216 15.1605 25.0201 15.3619L23.1795 17.2026V15.6764C23.1795 15.3524 22.9168 15.0901 22.5935 15.0901C22.27 15.0901 22.0071 15.3524 22.0071 15.6764V19.9927C22.0071 20.3169 22.27 20.579 22.5935 20.579C22.9168 20.579 23.1795 20.3169 23.1795 19.9927V18.661L23.5139 18.3266L25.07 20.3693C25.2433 20.6011 25.5725 20.6477 25.8036 20.4736C26.0353 20.2996 26.0818 19.9711 25.9079 19.7394ZM15.749 16.4021L15.0213 18.4788H16.4996L15.7725 16.4041C15.7684 16.4041 15.7646 16.4036 15.7607 16.4031C15.7569 16.4026 15.7531 16.4021 15.749 16.4021ZM16.5201 15.5509L18.1027 19.8802C18.1988 20.1539 18.0547 20.4534 17.7816 20.5492C17.5082 20.6454 17.2084 20.5016 17.1122 20.2278L16.843 19.4594H14.6771L14.4079 20.2278C14.3117 20.5016 14.012 20.6454 13.7385 20.5492C13.4654 20.4534 13.3214 20.1539 13.4175 19.8802L14.9737 15.7063C14.9825 15.6812 14.9932 15.6581 15.0039 15.6353C15.0676 15.3264 15.3869 15.0905 15.7734 15.0905C16.1215 15.0905 16.4134 15.2826 16.5149 15.5463L16.5201 15.5509Z" fill="#FFF100"/>
<path fill-rule="evenodd" clip-rule="evenodd" d="M19.7132 19.5614H21.1893C21.4605 19.5614 21.6798 19.7811 21.6798 20.0516C21.6798 20.3224 21.4605 20.542 21.1893 20.542H19.0315C18.7603 20.542 18.541 20.3224 18.541 20.0516C18.541 20.0197 18.5444 19.9884 18.5505 19.9581C18.5455 19.9272 18.541 19.8964 18.541 19.8642V15.6764C18.541 15.3524 18.8036 15.0901 19.1272 15.0901C19.4506 15.0901 19.7132 15.3524 19.7132 15.6764V19.5614ZM10.3831 15.1659H13.5587C13.8572 15.1659 14.099 15.4077 14.099 15.7059C14.099 16.0044 13.8572 16.2463 13.5587 16.2463H12.5835V20.0502C12.5835 20.1891 12.5268 20.3246 12.4281 20.423C12.331 20.5211 12.1958 20.5769 12.0576 20.5769H11.9422C11.8034 20.5769 11.6678 20.5211 11.5707 20.4227C11.4717 20.3242 11.4152 20.1887 11.4152 20.0502V16.2463H10.3831C10.0846 16.2463 9.84277 16.0044 9.84277 15.7059C9.84277 15.4077 10.0846 15.1659 10.3831 15.1659ZM25.9079 19.7394L24.2622 17.5784L25.7493 16.0909C25.9509 15.8899 25.9509 15.563 25.7495 15.3619C25.5481 15.1605 25.2216 15.1605 25.0201 15.3619L23.1795 17.2026V15.6764C23.1795 15.3524 22.9168 15.0901 22.5935 15.0901C22.27 15.0901 22.0071 15.3524 22.0071 15.6764V19.9927C22.0071 20.3169 22.27 20.579 22.5935 20.579C22.9168 20.579 23.1795 20.3169 23.1795 19.9927V18.661L23.5139 18.3266L25.07 20.3693C25.2433 20.6011 25.5725 20.6477 25.8036 20.4736C26.0353 20.2996 26.0818 19.9711 25.9079 19.7394ZM15.749 16.4021L15.0213 18.4788H16.4996L15.7725 16.4041C15.7684 16.4041 15.7646 16.4036 15.7607 16.4031C15.7569 16.4026 15.7531 16.4021 15.749 16.4021ZM16.5201 15.5509L18.1027 19.8802C18.1988 20.1539 18.0547 20.4534 17.7816 20.5492C17.5082 20.6454 17.2084 20.5016 17.1122 20.2278L16.843 19.4594H14.6771L14.4079 20.2278C14.3117 20.5016 14.012 20.6454 13.7385 20.5492C13.4654 20.4534 13.3214 20.1539 13.4175 19.8802L14.9737 15.7063C14.9825 15.6812 14.9932 15.6581 15.0039 15.6353C15.0676 15.3264 15.3869 15.0905 15.7734 15.0905C16.1215 15.0905 16.4134 15.2826 16.5149 15.5463L16.5201 15.5509Z" fill="white"/>
</svg>
