<svg width="14" height="13" viewBox="0 0 14 13" fill="none" xmlns="http://www.w3.org/2000/svg">
<path d="M0.603201 6.32881L1.18443 5.75429C1.322 5.61831 1.54505 5.61831 1.68265 5.75429L6.23674 10.2558L6.23674 0.348231C6.23674 0.155929 6.39447 1.61277e-05 6.58902 1.61301e-05L7.41101 1.61399e-05C7.60556 1.61422e-05 7.76329 0.155929 7.76329 0.348231L7.76329 10.2558L12.3174 5.75429C12.455 5.61831 12.678 5.61831 12.8156 5.75429L13.3968 6.32881C13.5344 6.46479 13.5344 6.68527 13.3968 6.82127L7.24911 12.898C7.11154 13.034 6.88849 13.034 6.75089 12.898L0.603171 6.82127C0.465606 6.68529 0.465606 6.46482 0.603201 6.32881Z" fill="black"/>
</svg>
