<svg width="36" height="36" viewBox="0 0 36 36" fill="none" xmlns="http://www.w3.org/2000/svg">
<g opacity="0.5">
<path d="M20.4825 15.4437C22.583 17.5298 22.5541 20.8743 20.4951 22.9284C20.4913 22.9325 20.4867 22.9371 20.4825 22.9413L18.12 25.2851C16.0363 27.3524 12.6462 27.3521 10.5628 25.2851C8.47907 23.2182 8.47907 19.8545 10.5628 17.7876L11.8673 16.4934C12.2132 16.1502 12.809 16.3783 12.8268 16.8633C12.8496 17.4814 12.9614 18.1024 13.1675 18.7021C13.2373 18.9052 13.1874 19.1298 13.0345 19.2816L12.5744 19.738C11.5891 20.7155 11.5582 22.3072 12.5338 23.2942C13.519 24.291 15.1384 24.297 16.1312 23.312L18.4937 20.9685C19.4848 19.9853 19.4806 18.396 18.4937 17.4168C18.3636 17.288 18.2325 17.1879 18.1301 17.118C18.0577 17.0686 17.9979 17.0032 17.9555 16.9268C17.9131 16.8505 17.8893 16.7654 17.8859 16.6783C17.872 16.3097 18.0036 15.9299 18.2972 15.6387L19.0373 14.9043C19.2314 14.7117 19.5359 14.6881 19.761 14.8439C20.0188 15.0225 20.2602 15.2232 20.4825 15.4437ZM25.4372 10.5279C23.3538 8.4609 19.9637 8.46062 17.88 10.5279L15.5175 12.8717C15.5133 12.8759 15.5087 12.8804 15.5049 12.8846C13.4459 14.9387 13.417 18.2832 15.5175 20.3692C15.7398 20.5898 15.9812 20.7905 16.239 20.969C16.464 21.1249 16.7686 21.1012 16.9626 20.9086L17.7028 20.1743C17.9964 19.883 18.128 19.5032 18.1141 19.1347C18.1107 19.0476 18.0869 18.9625 18.0445 18.8861C18.0021 18.8098 17.9423 18.7443 17.8698 18.695C17.7675 18.6251 17.6364 18.525 17.5063 18.3961C16.5193 17.417 16.5152 15.8277 17.5063 14.8444L19.8688 12.5009C20.8616 11.516 22.4809 11.5219 23.4661 12.5187C24.4417 13.5058 24.4109 15.0974 23.4255 16.0749L22.9655 16.5314C22.8125 16.6831 22.7626 16.9077 22.8325 17.1108C23.0386 17.7105 23.1503 18.3315 23.1731 18.9496C23.191 19.4347 23.7867 19.6628 24.1327 19.3196L25.4372 18.0254C27.5209 15.9585 27.5209 12.5948 25.4372 10.5279Z" fill="white"/>
<path d="M20.4825 15.4437C22.583 17.5298 22.5541 20.8743 20.4951 22.9284C20.4913 22.9325 20.4867 22.9371 20.4825 22.9413L18.12 25.2851C16.0363 27.3524 12.6462 27.3521 10.5628 25.2851C8.47907 23.2182 8.47907 19.8545 10.5628 17.7876L11.8673 16.4934C12.2132 16.1502 12.809 16.3783 12.8268 16.8633C12.8496 17.4814 12.9614 18.1024 13.1675 18.7021C13.2373 18.9052 13.1874 19.1298 13.0345 19.2816L12.5744 19.738C11.5891 20.7155 11.5582 22.3072 12.5338 23.2942C13.519 24.291 15.1384 24.297 16.1312 23.312L18.4937 20.9685C19.4848 19.9853 19.4806 18.396 18.4937 17.4168C18.3636 17.288 18.2325 17.1879 18.1301 17.118C18.0577 17.0686 17.9979 17.0032 17.9555 16.9268C17.9131 16.8505 17.8893 16.7654 17.8859 16.6783C17.872 16.3097 18.0036 15.9299 18.2972 15.6387L19.0373 14.9043C19.2314 14.7117 19.5359 14.6881 19.761 14.8439C20.0188 15.0225 20.2602 15.2232 20.4825 15.4437ZM25.4372 10.5279C23.3538 8.4609 19.9637 8.46062 17.88 10.5279L15.5175 12.8717C15.5133 12.8759 15.5087 12.8804 15.5049 12.8846C13.4459 14.9387 13.417 18.2832 15.5175 20.3692C15.7398 20.5898 15.9812 20.7905 16.239 20.969C16.464 21.1249 16.7686 21.1012 16.9626 20.9086L17.7028 20.1743C17.9964 19.883 18.128 19.5032 18.1141 19.1347C18.1107 19.0476 18.0869 18.9625 18.0445 18.8861C18.0021 18.8098 17.9423 18.7443 17.8698 18.695C17.7675 18.6251 17.6364 18.525 17.5063 18.3961C16.5193 17.417 16.5152 15.8277 17.5063 14.8444L19.8688 12.5009C20.8616 11.516 22.4809 11.5219 23.4661 12.5187C24.4417 13.5058 24.4109 15.0974 23.4255 16.0749L22.9655 16.5314C22.8125 16.6831 22.7626 16.9077 22.8325 17.1108C23.0386 17.7105 23.1503 18.3315 23.1731 18.9496C23.191 19.4347 23.7867 19.6628 24.1327 19.3196L25.4372 18.0254C27.5209 15.9585 27.5209 12.5948 25.4372 10.5279Z" fill="#525F7A"/>
</g>
</svg>
