<svg width="335" height="216" viewBox="0 0 335 216" fill="none" xmlns="http://www.w3.org/2000/svg">
<mask id="mask0" mask-type="alpha" maskUnits="userSpaceOnUse" x="75" y="16" width="184" height="184">
<rect x="75" y="16" width="184" height="184" rx="92" fill="#C4C4C4"/>
</mask>
<g mask="url(#mask0)">
<rect x="68" y="11" width="194" height="194" fill="#EBEEF4" fill-opacity="0.3"/>
<g filter="url(#filter0_d)">
<path d="M113.429 89.6072C104.492 89.6072 97.25 82.3651 97.25 73.4286C97.25 64.4921 104.492 57.25 113.429 57.25C122.365 57.25 129.607 64.4921 129.607 73.4286C129.607 82.3651 122.365 89.6072 113.429 89.6072Z" fill="#E5E9F1"/>
<path d="M113.429 89.6072C104.492 89.6072 97.25 82.3651 97.25 73.4286C97.25 64.4921 104.492 57.25 113.429 57.25C122.365 57.25 129.607 64.4921 129.607 73.4286C129.607 82.3651 122.365 89.6072 113.429 89.6072Z" fill="white"/>
<path d="M113.429 89.6072C104.492 89.6072 97.25 82.3651 97.25 73.4286C97.25 64.4921 104.492 57.25 113.429 57.25C122.365 57.25 129.607 64.4921 129.607 73.4286C129.607 82.3651 122.365 89.6072 113.429 89.6072Z" stroke="#A3B1CC" stroke-width="1.5" stroke-miterlimit="10" stroke-linecap="round" stroke-linejoin="round"/>
<path opacity="0.3" d="M100.365 73.4288C100.365 80.6421 106.215 86.4921 113.429 86.4921C120.642 86.4921 126.492 80.6421 126.492 73.4288C126.492 66.2156 120.642 60.3655 113.429 60.3655C106.215 60.3655 100.365 66.2156 100.365 73.4288Z" fill="#D8DDE9"/>
<path d="M108.075 73.3295L109.465 78.9268C109.492 78.999 109.511 79.0441 109.538 79.0622C109.565 79.0803 109.628 79.0893 109.727 79.0893H111.099C111.226 79.0893 111.298 79.0803 111.316 79.0622C111.334 79.0441 111.352 78.999 111.379 78.9268L112.788 73.3295H114.07L115.478 78.9268C115.505 78.999 115.523 79.0441 115.541 79.0622C115.559 79.0803 115.631 79.0893 115.758 79.0893H117.13C117.238 79.0893 117.302 79.0803 117.32 79.0622C117.347 79.0441 117.365 78.999 117.392 78.9268L118.782 73.3295H120.813C120.868 73.3295 120.922 73.3115 120.967 73.2754C121.012 73.2393 121.039 73.1941 121.039 73.1399V72.0566C121.039 72.0024 121.012 71.9573 120.967 71.9212C120.922 71.8851 120.868 71.867 120.813 71.867H119.116L120.091 68.0031C120.118 67.9309 120.118 67.8767 120.091 67.8406C120.064 67.8045 119.983 67.7864 119.829 67.7864H118.529C118.448 67.7864 118.394 67.7955 118.358 67.8135C118.322 67.8316 118.295 67.8767 118.268 67.9489L117.311 71.876H115.388L114.404 67.9489C114.377 67.8767 114.349 67.8316 114.322 67.8135C114.295 67.7955 114.241 67.7864 114.16 67.7864H112.706C112.625 67.7864 112.571 67.7955 112.544 67.8135C112.517 67.8316 112.49 67.8767 112.463 67.9489L111.47 71.876H109.547L108.59 67.9489C108.563 67.8767 108.536 67.8316 108.499 67.8135C108.463 67.7955 108.409 67.7864 108.328 67.7864H107.028C106.874 67.7864 106.793 67.8045 106.766 67.8406C106.748 67.8767 106.748 67.9309 106.766 68.0031L107.741 71.867H106.062C105.908 71.867 105.836 71.9302 105.836 72.0566V73.1399C105.836 73.1941 105.863 73.2393 105.908 73.2754C105.954 73.3115 106.008 73.3295 106.062 73.3295H108.075ZM116.372 75.767L115.767 73.3295H116.968L116.372 75.767ZM113.681 71.867H113.158L113.42 70.8017L113.681 71.867ZM110.467 75.767L109.881 73.3295H111.072L110.467 75.767Z" fill="#A3B1CC"/>
</g>
<g filter="url(#filter1_d)">
<path d="M127.714 106.75C123.197 106.75 119.536 103.089 119.536 98.5715C119.536 94.0539 123.197 90.3929 127.714 90.3929C132.232 90.3929 135.893 94.0539 135.893 98.5715C135.893 103.089 132.232 106.75 127.714 106.75Z" fill="#E5E9F1"/>
<path d="M127.714 106.75C123.197 106.75 119.536 103.089 119.536 98.5715C119.536 94.0539 123.197 90.3929 127.714 90.3929C132.232 90.3929 135.893 94.0539 135.893 98.5715C135.893 103.089 132.232 106.75 127.714 106.75Z" fill="white"/>
<path d="M127.714 106.75C123.197 106.75 119.536 103.089 119.536 98.5715C119.536 94.0539 123.197 90.3929 127.714 90.3929C132.232 90.3929 135.893 94.0539 135.893 98.5715C135.893 103.089 132.232 106.75 127.714 106.75Z" stroke="#A3B1CC" stroke-width="1.5" stroke-miterlimit="10" stroke-linecap="round" stroke-linejoin="round"/>
<path opacity="0.3" d="M121.425 98.5715C121.425 102.045 124.241 104.861 127.714 104.861C131.187 104.861 134.004 102.045 134.004 98.5715C134.004 95.0985 131.187 92.2818 127.714 92.2818C124.241 92.2818 121.425 95.0985 121.425 98.5715Z" fill="#D8DDE9"/>
<path d="M125.137 98.5238L125.806 101.219C125.819 101.254 125.828 101.275 125.841 101.284C125.854 101.293 125.884 101.297 125.932 101.297H126.593C126.654 101.297 126.688 101.293 126.697 101.284C126.706 101.275 126.714 101.254 126.728 101.219L127.406 98.5238H128.023L128.701 101.219C128.714 101.254 128.723 101.275 128.731 101.284C128.74 101.293 128.775 101.297 128.836 101.297H129.496C129.549 101.297 129.579 101.293 129.588 101.284C129.601 101.275 129.609 101.254 129.622 101.219L130.292 98.5238H131.27C131.296 98.5238 131.322 98.5151 131.344 98.4977C131.365 98.4803 131.379 98.4586 131.379 98.4325V97.9109C131.379 97.8848 131.365 97.8631 131.344 97.8457C131.322 97.8283 131.296 97.8196 131.27 97.8196H130.453L130.922 95.9592C130.935 95.9244 130.935 95.8983 130.922 95.8809C130.909 95.8636 130.87 95.8549 130.796 95.8549H130.17C130.131 95.8549 130.105 95.8592 130.088 95.8679C130.07 95.8766 130.057 95.8983 130.044 95.9331L129.583 97.8239H128.657L128.184 95.9331C128.171 95.8983 128.158 95.8766 128.145 95.8679C128.132 95.8592 128.105 95.8549 128.066 95.8549H127.367C127.327 95.8549 127.301 95.8592 127.288 95.8679C127.275 95.8766 127.262 95.8983 127.249 95.9331L126.771 97.8239H125.845L125.384 95.9331C125.371 95.8983 125.358 95.8766 125.341 95.8679C125.324 95.8592 125.297 95.8549 125.258 95.8549H124.632C124.559 95.8549 124.519 95.8636 124.506 95.8809C124.498 95.8983 124.498 95.9244 124.506 95.9592L124.976 97.8196H124.167C124.093 97.8196 124.059 97.85 124.059 97.9109V98.4325C124.059 98.4586 124.072 98.4803 124.093 98.4977C124.115 98.5151 124.141 98.5238 124.167 98.5238H125.137ZM129.131 99.6974L128.84 98.5238H129.418L129.131 99.6974ZM127.836 97.8196H127.584L127.71 97.3067L127.836 97.8196ZM126.289 99.6974L126.006 98.5238H126.58L126.289 99.6974Z" fill="#A3B1CC"/>
</g>
<path d="M276.811 206.754C276.951 208.566 277.393 211.811 277.571 215.17C277.811 219.895 277.524 224.85 275.055 226.394C272.415 228.019 269.284 228.552 266.224 228.997C251.957 231.064 237.509 231.849 223.108 231.351C218.103 231.178 212.866 230.783 208.596 228.135C206.46 226.817 205.041 224.671 203.524 222.674C193.594 209.625 185.722 195.021 180.149 179.563C177.087 188.9 173.672 198.125 169.893 207.186C169.324 208.555 168.729 209.949 167.752 211.047C165.993 213.009 163.221 213.796 160.603 213.696C157.985 213.609 156.114 212.825 153.907 211.412C138.271 201.394 132.224 177.135 120.234 162.933C119.585 162.363 120.839 156.706 120.644 155.864C120.469 155.101 120.734 154.312 120.994 153.587C123.577 146.52 122.836 152.656 127.731 146.969C128.131 146.499 128.583 146.019 129.18 145.937C129.763 145.854 130.311 146.171 130.807 146.485C141.293 153.051 142.629 170.599 154.008 175.296C156.766 166.98 158.747 158.541 161.014 150.054C161.998 146.399 163.688 142.98 165.025 139.436C170.887 123.953 186.457 113.369 202.743 111.29C209.039 110.486 242.643 108.287 259.822 155.784L273.886 185.35C275.173 192.433 276.289 199.572 276.811 206.754Z" fill="#ADCFF7" stroke="#6479A8" stroke-width="1.66654" stroke-miterlimit="10" stroke-linecap="round" stroke-linejoin="round"/>
<path d="M203.5 111.5C202.377 109.352 199.479 102.539 201.5 100.946C212.239 92.502 212.14 78.9144 205.719 67.6752C202.356 61.796 199.009 57.641 191.831 59.0123C190.631 56.6279 188.076 55.2323 185.508 54.4918C176.453 51.8577 164.382 55.9931 161.159 65.4385C159.78 69.4866 159.046 73.7136 157.717 77.7775C156.562 81.2985 155.043 84.194 154.936 88.0458C154.817 92.5271 155.644 97.1147 158.059 100.946C160.308 104.51 163.604 107.337 167.268 109.35C171.044 111.434 176.422 110.396 178 114.461C179.759 118.976 181.5 121.999 183.096 126.477C183.725 128.275 182.3 129.486 183.096 131.5C183.849 133.37 185.43 134.44 187.381 134.952C188.875 135.348 192.499 135.341 194 134.952C201.038 133.11 206.86 129 209.137 123.219C210.163 120.617 210.054 116.495 207.793 114.461C205.008 111.955 205.547 115.487 203.5 111.5Z" fill="white" stroke="#6479A8" stroke-width="1.66654" stroke-miterlimit="10" stroke-linecap="round" stroke-linejoin="round"/>
<path d="M167.461 58.3586C166.061 59.9236 163.983 61.6384 162.5 63C160.911 54.7087 165.776 39.8723 175.481 40.5521C178.138 37.0656 182.049 34.7176 186.253 34.0639C186.052 34.7998 185.852 35.5356 185.663 36.2688C190.064 33.6204 195.62 33.1976 200.459 35.1046C199.059 36.4897 198.254 38.534 198.28 40.6047C200.252 38.7073 203.484 38.4455 205.797 40.0037C204.614 44.2206 206.94 48.7936 209.824 52.0822C212.707 55.3707 216.274 58.0673 218.503 61.9002C221.99 67.8949 220.387 74.0862 218.73 80.2061C216.911 86.8873 211.982 92.8487 206.454 96.2969C206.506 92.811 205.885 88.5445 202.512 87.7435C195.866 86.2445 194.333 71.5872 192.841 66.2233C192.721 65.7926 192.58 65.3249 192.247 65.0377C191.926 64.7479 191.488 64.6911 191.09 64.6395C183.508 63.5799 176.117 60.6789 169.636 56.2093C168.86 56.8492 168.144 57.5868 167.461 58.3586Z" fill="#6479A8" stroke="#6479A8" stroke-width="1.80541" stroke-miterlimit="10" stroke-linecap="round" stroke-linejoin="round"/>
<path d="M200.448 92.3835C202.311 91.3752 203.831 89.6392 204.322 87.5735C204.812 85.5077 204.162 83.1508 202.502 81.8097C200.25 79.9811 196.322 80.8292 194.873 83.2826" fill="white"/>
<path d="M200.448 92.3835C202.311 91.3752 203.831 89.6392 204.322 87.5735C204.812 85.5077 204.162 83.1508 202.502 81.8097C200.25 79.9811 196.322 80.8292 194.873 83.2826" stroke="#6479A8" stroke-width="1.66654" stroke-miterlimit="10" stroke-linecap="round" stroke-linejoin="round"/>
<path d="M187.208 70.9727C185.547 69.2431 182.762 68.6958 180.572 69.6491" stroke="#6479A8" stroke-width="1.80541" stroke-miterlimit="10" stroke-linecap="round" stroke-linejoin="round"/>
<path d="M169.464 68.9152C167.81 67.9319 165.638 67.9089 163.951 68.8398" stroke="#6479A8" stroke-width="1.80541" stroke-miterlimit="10" stroke-linecap="round" stroke-linejoin="round"/>
<path d="M170.835 81.7911C170.172 82.5757 169.375 83.2496 168.495 83.7773C167.643 84.2809 166.61 84.7869 166.439 85.7543C166.234 86.8484 167.261 87.7567 168.176 88.3885C168.806 88.8366 169.475 89.2868 170.241 89.3699" stroke="#6479A8" stroke-width="1.66654" stroke-miterlimit="10" stroke-linecap="round" stroke-linejoin="round"/>
<path d="M181.123 79.7524C183.118 78.814 183.767 82.7079 181.662 82.6501C180.174 82.6024 179.647 80.5923 180.964 79.8331C181.017 79.8105 181.07 79.775 181.123 79.7524Z" fill="#6479A8" stroke="#6479A8" stroke-width="2.08317" stroke-miterlimit="10" stroke-linecap="round" stroke-linejoin="round"/>
<path d="M164.683 79.3774C166.78 78.6892 166.95 82.6325 164.86 82.3184C163.382 82.0913 163.116 80.0321 164.499 79.4439C164.565 79.422 164.631 79.4001 164.683 79.3774Z" fill="#6479A8" stroke="#6479A8" stroke-width="2.08317" stroke-miterlimit="10" stroke-linecap="round" stroke-linejoin="round"/>
<path d="M167.539 96.7236C170.908 98.0507 174.986 97.3612 177.721 94.9992" stroke="#6479A8" stroke-width="1.66654" stroke-miterlimit="10" stroke-linecap="round" stroke-linejoin="round"/>
<path d="M139.967 126.958C139.828 126.831 139.674 126.71 139.527 126.597C132.462 123.066 118.845 115.875 114.5 113.575C113.768 113.188 113.253 113.723 113.363 114.5C114.389 121.778 115.55 129.026 116.93 136.248C118.47 144.344 120.189 152.406 121.908 160.46C122.059 161.163 122.224 161.896 122.674 162.467C123.053 162.944 123.61 163.26 124.144 163.567C131.542 167.735 139.109 171.636 146.808 175.246C146.241 174.982 145.5 163.567 145.5 163.567L140.74 128.697C140.68 128.276 140.621 127.839 140.405 127.469C140.285 127.283 140.134 127.117 139.967 126.958Z" fill="#6479A8" stroke="#6479A8" stroke-width="1.66654" stroke-miterlimit="10" stroke-linecap="round" stroke-linejoin="round"/>
<path d="M157.592 184.213C155.213 181.773 152.763 179.226 151.546 176.03C151.006 173.813 150.543 171.6 150.067 169.373C149.671 167.562 148.825 165.07 147.979 163.465C147.191 161.979 145.486 161.661 144.07 161.245C144.5 161.373 144.763 165.272 144.546 165.683C144.054 166.619 142.431 166.667 141.521 166.395C140.838 166.189 139.78 165.806 139.325 165.239C139.628 165.334 139.962 165.109 140.108 164.822C140.24 164.534 140.221 164.198 140.175 163.874C139.882 162.056 138.334 160.153 136.433 159.889C135.118 159.71 133.621 159.584 132.643 160.479C132.059 161.011 131.988 161.586 131.919 162.328C131.914 162.405 131.896 162.494 131.854 162.555C131.535 162.961 130.119 161.876 129.416 163.134C128.512 164.741 129.172 166.232 128.698 167.748C128.493 168.405 127.639 168.497 127.369 169.381C127.128 170.203 127.389 171.247 127.626 172.045C127.883 172.935 128.517 173.525 128.779 174.337C129.158 175.555 128.656 176.902 128.661 178.137C128.664 180.092 129.847 181.871 131.33 183.127C132.813 184.383 134.617 185.208 136.353 186.093C141.325 188.619 144.764 192.304 148.328 196.484C152.519 201.395 156.721 206.32 160.912 211.232C161.321 211.718 161.869 212.239 162.495 212.095C162.769 212.034 162.986 211.84 163.202 211.66C166.657 208.633 170.015 205.497 173.288 202.278C176.084 199.521 170.433 197.406 168.834 195.706C165.151 191.788 161.331 188.03 157.592 184.213Z" fill="white" stroke="#6479A8" stroke-width="1.66654" stroke-miterlimit="10" stroke-linecap="round" stroke-linejoin="round"/>
<path d="M225.046 142.606C219.719 156.391 212.667 176.888 211.502 191.429C211.215 195.039 211.726 199.544 210.223 202.839C208.944 202.932 208.02 202.454 207.008 201.727C196.593 194.153 181.427 191.195 171.012 183.621C166.316 188.326 152.501 203.919 147.804 208.623C160.339 222.442 195.073 214.826 209.456 226.707C218.145 233.886 231.078 239.947 238.209 227.642C250.242 206.863 256.116 184.068 260.136 160.651" fill="#ADCFF7"/>
<path d="M225.046 142.606C219.719 156.391 212.667 176.888 211.502 191.429C211.215 195.039 211.726 199.544 210.223 202.839C208.944 202.932 208.02 202.454 207.008 201.727C196.593 194.153 181.427 191.195 171.012 183.621C166.316 188.326 152.501 203.919 147.804 208.623C160.339 222.442 195.073 214.826 209.456 226.707C218.145 233.886 231.078 239.947 238.209 227.642C250.242 206.863 256.116 184.068 260.136 160.651" stroke="#6479A8" stroke-width="1.66654" stroke-miterlimit="10" stroke-linecap="round" stroke-linejoin="round"/>
<path d="M115.453 152.931C115.669 153.638 116.12 154.281 116.181 155.018C116.28 156.181 115.386 157.415 115.904 158.461C116.087 158.845 116.443 159.135 116.613 159.531C117.019 160.519 116.106 161.624 116.302 162.677C116.392 163.119 116.666 163.508 116.94 163.871C118.528 165.995 120.164 168.16 122.325 169.7C124.19 171.03 127.302 171.031 128.34 168.647C128.429 168.447 128.493 168.232 128.632 168.06C128.981 167.578 129.63 167.475 130.172 167.223C131.176 166.767 131.228 164.982 130.393 164.304C130.135 164.096 129.779 164.024 129.561 163.78C128.872 163.033 130.011 161.8 129.654 160.853C129.51 160.459 129.127 160.192 128.969 159.797C128.757 159.245 129.038 158.618 128.956 158.035C128.847 157.244 128.093 156.724 127.395 156.35C126.373 155.789 125.294 155.315 124.185 154.929C123.201 154.589 122.176 154.311 121.365 153.659C120.406 152.896 119.944 151.777 119.663 150.629C119.455 149.781 119.581 147.602 118.765 147.04C116.897 145.761 115.008 151.516 115.453 152.931Z" fill="white" stroke="#6479A8" stroke-width="1.66654" stroke-miterlimit="10" stroke-linecap="round" stroke-linejoin="round"/>
</g>
<defs>
<filter id="filter0_d" x="92.5" y="56.5" width="41.8571" height="41.8572" filterUnits="userSpaceOnUse" color-interpolation-filters="sRGB">
<feFlood flood-opacity="0" result="BackgroundImageFix"/>
<feColorMatrix in="SourceAlpha" type="matrix" values="0 0 0 0 0 0 0 0 0 0 0 0 0 0 0 0 0 0 127 0"/>
<feOffset dy="4"/>
<feGaussianBlur stdDeviation="2"/>
<feColorMatrix type="matrix" values="0 0 0 0 0.321569 0 0 0 0 0.372549 0 0 0 0 0.478431 0 0 0 0.1 0"/>
<feBlend mode="normal" in2="BackgroundImageFix" result="effect1_dropShadow"/>
<feBlend mode="normal" in="SourceGraphic" in2="effect1_dropShadow" result="shape"/>
</filter>
<filter id="filter1_d" x="114.786" y="89.6429" width="25.8571" height="25.8571" filterUnits="userSpaceOnUse" color-interpolation-filters="sRGB">
<feFlood flood-opacity="0" result="BackgroundImageFix"/>
<feColorMatrix in="SourceAlpha" type="matrix" values="0 0 0 0 0 0 0 0 0 0 0 0 0 0 0 0 0 0 127 0"/>
<feOffset dy="4"/>
<feGaussianBlur stdDeviation="2"/>
<feColorMatrix type="matrix" values="0 0 0 0 0.321569 0 0 0 0 0.372549 0 0 0 0 0.478431 0 0 0 0.1 0"/>
<feBlend mode="normal" in2="BackgroundImageFix" result="effect1_dropShadow"/>
<feBlend mode="normal" in="SourceGraphic" in2="effect1_dropShadow" result="shape"/>
</filter>
</defs>
</svg>
