<svg width="335" height="130" viewBox="0 0 335 130" fill="none" xmlns="http://www.w3.org/2000/svg">
<mask id="mask0" mask-type="alpha" maskUnits="userSpaceOnUse" x="28" y="30" width="135" height="80">
<path d="M163 50C163 38.9543 154.046 30 143 30H62.5C52.2827 30 44 38.2827 44 48.5H28L44 66V90C44 101.046 52.9543 110 64 110H143C154.046 110 163 101.046 163 90V50Z" fill="#EBEEF4"/>
</mask>
<g mask="url(#mask0)">
<path d="M29 30H172V120H29V87.5V30Z" fill="#EBEEF4"/>
<path d="M115.878 135.82C113.091 137.382 109.932 138.274 106.778 138.406C105.703 138.446 104.562 138.387 103.723 137.786C102.916 137.207 102.539 136.247 102.195 135.329C99.8484 129.033 97.4942 122.738 95.1466 116.436C94.9599 115.931 94.7851 115.317 95.147 114.876C95.3597 114.61 95.7065 114.49 96.0257 114.38C98.8301 113.433 101.635 112.486 104.439 111.538C105.571 111.158 107.424 109.95 108.628 110.239C110.218 110.612 110.323 112.816 110.689 114.063C111.915 118.228 112.505 122.389 113.522 126.622C114.262 129.705 115.042 132.77 115.878 135.82Z" fill="white" stroke="#6479A8" stroke-width="1.2" stroke-miterlimit="10" stroke-linecap="round" stroke-linejoin="round"/>
<path d="M93.2149 149.734C93.5483 145.092 94.4148 140.481 95.1613 135.872C95.6186 133.068 97.3047 117.183 98.1983 116.964C104.664 115.409 107.795 114.068 114.204 112.272C111.04 102.379 109.946 89.7583 98.8395 83.6383C87.4429 77.355 75.7838 77.1832 63.2053 83.2165C51.6389 88.7664 42.7242 100.015 40.5571 112.066C37.818 127.311 36.9771 142.91 36.4455 158.239C36.3074 162.277 59.6138 160.525 62.6187 160.262C67.8571 159.811 73.0904 159.058 78.2693 158.003C79.7015 157.713 92.8657 155.172 92.9256 154.149C93.0168 152.671 93.1092 151.207 93.2149 149.734Z" fill="#ADCFF7"/>
<path d="M93.2149 149.734C93.5483 145.092 94.4148 140.481 95.1613 135.872C95.6186 133.068 97.3047 117.183 98.1983 116.964C104.664 115.409 107.795 114.068 114.204 112.272C111.04 102.379 109.946 89.7583 98.8395 83.6383C87.4429 77.355 75.7838 77.1832 63.2053 83.2165C51.6389 88.7664 42.7242 100.015 40.5571 112.066C37.818 127.311 36.9771 142.91 36.4455 158.239C36.3074 162.277 59.6138 160.525 62.6187 160.262C67.8571 159.811 73.0904 159.058 78.2693 158.003C79.7015 157.713 92.8657 155.172 92.9256 154.149C93.0168 152.671 93.1092 151.207 93.2149 149.734Z" fill="white" fill-opacity="0.5"/>
<path d="M93.2149 149.734C93.5483 145.092 94.4148 140.481 95.1613 135.872C95.6186 133.068 97.3047 117.183 98.1983 116.964C104.664 115.409 107.795 114.068 114.204 112.272C111.04 102.379 109.946 89.7583 98.8395 83.6383C87.4429 77.355 75.7838 77.1832 63.2053 83.2165C51.6389 88.7664 42.7242 100.015 40.5571 112.066C37.818 127.311 36.9771 142.91 36.4455 158.239C36.3074 162.277 59.6138 160.525 62.6187 160.262C67.8571 159.811 73.0904 159.058 78.2693 158.003C79.7015 157.713 92.8657 155.172 92.9256 154.149C93.0168 152.671 93.1092 151.207 93.2149 149.734Z" stroke="#6479A8" stroke-width="1.2" stroke-miterlimit="10" stroke-linecap="round" stroke-linejoin="round"/>
<path d="M79.645 90.132C79.4941 90.3318 79.3955 90.5577 79.2962 90.7793C78.9187 91.6386 78.5412 92.4979 78.163 93.3528C78.0885 93.5189 78.0147 93.6895 78.0283 93.8656C78.0391 94.0239 78.1197 94.1684 78.2035 94.3029C78.6059 94.9609 79.0779 95.5729 79.618 96.13C79.6759 96.1919 79.7384 96.2527 79.8199 96.2823C79.9162 96.3136 80.0186 96.2932 80.1211 96.2727C80.7451 96.1483 81.3691 96.0239 81.993 95.8995C82.1281 95.8726 82.2724 95.8438 82.3783 95.7539C82.4722 95.6802 82.5272 95.5729 82.5823 95.4657C82.9163 94.8167 83.2544 94.1625 83.5884 93.5136C83.6906 93.3098 83.8013 93.0997 83.79 92.8773C83.7826 92.6496 83.6495 92.4468 83.5239 92.261C83.0835 91.606 82.6439 90.9555 82.2035 90.3005C81.6261 89.4482 80.4328 89.1038 79.645 90.132Z" fill="#6479A8" stroke="#6479A8" stroke-width="1.2" stroke-miterlimit="10" stroke-linecap="round" stroke-linejoin="round"/>
<path d="M81.0079 128.957C80.9949 129.171 80.9842 129.396 81.0587 129.6C81.1499 129.859 81.3626 130.034 81.561 130.19C84.1212 132.193 87.0244 133.736 89.0429 136.455C88.9166 136.287 91.1536 131.581 91.3448 131.041C91.5674 130.417 91.6206 129.724 91.8481 129.122C92.1012 128.456 92.8723 127.947 92.9832 127.222C93.0139 126.997 92.9394 126.77 92.8578 126.556C90.6664 120.488 88.6297 114.352 86.6946 108.179C85.739 105.125 84.8058 102.059 83.8963 98.9871C83.6698 98.2233 83.2579 95.5137 82.5764 95.2679C81.7158 94.9553 80.8157 96.5627 80.7441 97.3305C80.5477 99.5591 80.982 102.029 81.0886 104.276C81.3306 109.518 81.4081 114.76 81.32 119.996C81.2755 122.99 81.1695 125.975 81.0079 128.957Z" fill="#6479A8" stroke="#6479A8" stroke-width="1.2" stroke-miterlimit="10" stroke-linecap="round" stroke-linejoin="round"/>
<path d="M65.5629 88.6712C64.4307 87.6044 63.7785 86.0836 64.0296 84.1328C64.3767 81.4312 67.8631 80.5889 69.9384 79.9106C72.655 79.0176 75.5652 78.8156 78.3107 79.3807C79.9478 79.7153 81.7132 80.3948 82.2819 82.1654C82.8613 83.978 81.9585 86.5066 80.6492 87.8368C79.65 88.8584 78.3666 89.5194 77.0461 89.9971C73.5404 91.2617 68.4016 91.3516 65.5629 88.6712Z" fill="white" stroke="#6479A8" stroke-width="1.2" stroke-miterlimit="10" stroke-linecap="round" stroke-linejoin="round"/>
<path d="M66.6727 81.3902C66.7099 79.452 68.9345 77.7978 68.9991 76.8711C69.0637 75.9443 69.113 74.8415 68.2123 73.759C68.1281 73.6527 68.0302 73.5515 67.9304 73.444C63.2803 68.5576 65.0566 59.4782 69.9272 54.0786C72.6435 51.0674 76.4627 48.8594 80.3811 48.1085C80.6737 47.6387 80.9718 47.2149 81.2411 46.6647C81.8651 45.4097 82.8326 44.1527 84.2001 43.6471C85.1596 43.2903 84.1799 44.693 85.0943 44.9486C85.7254 45.1226 86.3295 45.3885 86.7496 45.8381C87.1697 46.2876 87.3817 46.9432 87.1825 47.5775C86.8295 48.6857 88.9306 48.2028 88.7285 49.1189C90.1343 49.8323 91.3603 50.8236 92.3401 52.021C94.452 54.6001 94.7564 57.9344 94.5301 61.2841C94.5026 61.7188 94.4682 62.156 94.5083 62.5866C94.6455 64.2283 94.7741 65.4691 94.395 67.1759C93.8874 69.4706 92.8544 71.772 91.0681 73.6084C88.3087 76.4436 84.1196 78.1905 80.307 78.5399C79.3037 78.6387 80.5073 83.2888 80.6362 83.7624" fill="white"/>
<path d="M66.6727 81.3902C66.7099 79.452 68.9345 77.7978 68.9991 76.871C69.0637 75.9443 69.113 74.8415 68.2123 73.759C68.1281 73.6527 68.0302 73.5515 67.9304 73.444C63.2803 68.5576 65.0566 59.4782 69.9272 54.0786C72.6435 51.0674 76.4627 48.8594 80.3811 48.1085C80.6737 47.6387 80.9718 47.2149 81.2411 46.6647C81.8651 45.4097 82.8326 44.1527 84.2001 43.6471C85.1596 43.2903 84.1799 44.693 85.0943 44.9486C85.7254 45.1226 86.3295 45.3885 86.7496 45.8381C87.1697 46.2876 87.3817 46.9432 87.1825 47.5775C86.8295 48.6857 88.9306 48.2028 88.7285 49.1189C90.1343 49.8323 91.3603 50.8236 92.3401 52.021C94.452 54.6001 94.7564 57.9344 94.5301 61.2841C94.5026 61.7188 94.4682 62.156 94.5083 62.5866C94.6455 64.2283 94.7741 65.4691 94.395 67.1759C93.8874 69.4706 92.8544 71.772 91.0681 73.6084C88.3087 76.4436 84.1196 78.1905 80.307 78.5399C79.3037 78.6387 80.5073 83.2888 80.6362 83.7624" stroke="#6479A8" stroke-width="1.2" stroke-miterlimit="10" stroke-linecap="round" stroke-linejoin="round"/>
<path d="M83.2937 71.6434C85.092 71.7998 86.9982 71.4731 88.7371 70.7139" stroke="#6479A8" stroke-width="1.2" stroke-miterlimit="10" stroke-linecap="round" stroke-linejoin="round"/>
<path d="M60.8673 54.2794C62.9334 49.724 67.47 45.6475 72.3362 43.461C72.7524 43.2759 73.4846 43.3889 73.2256 43.7459C74.7281 43.1021 76.0214 42.6039 77.2874 41.5963C78.2977 40.7886 80.1458 40.0639 80.4737 38.8007C80.9048 39.2435 81.3354 39.6813 81.7665 40.1241C81.8289 40.1879 81.8974 40.2556 81.9951 40.2673C82.11 40.2808 82.2288 40.2077 82.3252 40.139C83.2134 39.4958 83.6443 38.3695 83.3508 37.4818C85.9781 38.1276 87.9822 40.1078 88.4682 42.5533C88.6529 42.4526 88.8172 42.3154 88.9394 42.1509C89.7594 43.2059 90.2777 44.3889 90.9768 45.4922C91.6302 46.5284 92.8443 47.2108 93.1349 48.4573C93.3971 49.5729 93.3545 50.7818 93.0188 51.9557C93.2888 51.0063 89.7537 49.4735 88.9986 49.2285C88.8053 49.1644 88.6073 49.1112 88.3946 49.0861C87.8312 49.0166 87.2307 49.1762 86.6531 49.3364C84.0978 50.0392 79.4736 50.1717 77.7523 52.4818C76.7232 53.8581 76.6889 55.3581 76.0167 56.7826C75.5943 57.6803 74.7483 58.2851 74.1998 59.1059C73.5158 60.134 73.828 60.4531 73.7006 61.5368C73.6079 62.3012 73.7025 63.0602 73.9731 63.7504C73.8636 63.4736 73.1297 63.4062 72.8576 63.2864C72.2902 63.0411 71.7137 62.8228 71.117 62.6335C70.8363 62.5456 70.5505 62.4637 70.2483 62.4556C69.2725 62.4191 69.0425 63.1742 68.4452 63.7621C67.7852 64.4123 67.0011 64.9448 66.2287 65.4802C65.4403 66.0287 66.9642 70.115 66.4574 70.8925C66.3873 71.0017 62.1329 65.2801 61.9877 65.0503C59.8979 61.7594 58.9819 58.5582 60.7955 54.4343C60.8191 54.3793 60.8432 54.3293 60.8673 54.2794Z" fill="#6479A8" stroke="#6479A8" stroke-width="1.2" stroke-miterlimit="10" stroke-linecap="round" stroke-linejoin="round"/>
<path d="M78.6229 58.7951C79.5048 57.8794 80.9626 57.4531 82.1166 57.778" stroke="#6479A8" stroke-width="1.2" stroke-miterlimit="10" stroke-linecap="round" stroke-linejoin="round"/>
<path d="M86.7433 56.968C87.5718 56.3244 88.7107 56.0934 89.6309 56.376" stroke="#6479A8" stroke-width="1.2" stroke-miterlimit="10" stroke-linecap="round" stroke-linejoin="round"/>
<path d="M81.413 62.4907C80.2558 62.3828 80.3471 64.4017 81.454 64.0074C82.2405 63.727 82.2834 62.6493 81.5125 62.5084C81.4752 62.4999 81.4409 62.4971 81.413 62.4907Z" fill="#6479A8" stroke="#6479A8" stroke-width="1.2" stroke-miterlimit="10" stroke-linecap="round" stroke-linejoin="round"/>
<path d="M89.5136 60.871C88.3564 60.7631 88.4477 62.782 89.5546 62.3878C90.3411 62.1074 90.384 61.0297 89.6131 60.8887C89.5729 60.8745 89.545 60.8681 89.5136 60.871Z" fill="#6479A8" stroke="#6479A8" stroke-width="1.2" stroke-miterlimit="10" stroke-linecap="round" stroke-linejoin="round"/>
<path d="M88.1676 63.8354C88.7875 63.7986 89.38 63.9897 89.8863 64.272C90.179 64.4357 90.4666 64.6388 90.6114 64.9346C90.8876 65.482 90.6105 66.2357 90.1091 66.715C89.6077 67.1942 88.9232 67.45 88.2599 67.5987" stroke="#6479A8" stroke-width="1.2" stroke-miterlimit="10" stroke-linecap="round" stroke-linejoin="round"/>
<path d="M72.557 68.441C71.4911 68.5774 70.4049 68.3126 69.6975 67.6069C68.9901 66.9013 68.72 65.7378 69.1389 64.6936C69.5529 63.6549 70.6985 62.8518 71.7377 62.957C72.1674 62.7677 72.4921 62.859 72.8743 63.0405" fill="white"/>
<path d="M72.557 68.441C71.4911 68.5774 70.4049 68.3126 69.6975 67.6069C68.9901 66.9013 68.72 65.7378 69.1389 64.6936C69.5529 63.6549 70.6985 62.8518 71.7377 62.957C72.1674 62.7677 72.4921 62.859 72.8743 63.0405" stroke="#6479A8" stroke-width="1.2" stroke-miterlimit="10" stroke-linecap="round" stroke-linejoin="round"/>
<rect width="8.95745" height="32.6517" transform="matrix(0.980319 0.109081 -0.150634 1.00156 90.6738 108.385)" fill="#ADCFF7"/>
<rect width="8.95745" height="32.6517" transform="matrix(0.980319 0.109081 -0.150634 1.00156 90.6738 108.385)" fill="white" fill-opacity="0.5"/>
<path d="M145.589 118.581L92.1265 135.045C90.1726 135.646 88.7136 134.427 89.0841 132.501L95.9977 97.1461C96.2863 95.6767 97.5792 94.2771 99.0709 93.8114L152.54 77.3465C154.494 76.7455 155.953 77.9654 155.582 79.8912L148.669 115.246C148.373 116.722 147.087 118.121 145.589 118.581Z" fill="#6479A8" stroke="#6479A8" stroke-width="1.2" stroke-miterlimit="10" stroke-linecap="round" stroke-linejoin="round"/>
<path d="M69.5671 85.8012C71.5803 87.6912 76.9453 88.0089 79.6968 88.7332C79.4768 91.3648 76.1088 95.0483 75.2772 97.5986C75.1819 97.8952 75.0404 98.2316 74.7356 98.326C74.5351 98.3931 74.3161 98.3274 74.1187 98.2657C71.1535 97.2925 68.282 95.9217 66.1337 93.7859C63.9854 91.6501 62.6231 88.6533 62.9994 85.6089C63.1423 84.4679 66.9713 77.0257 68.9622 78.9863C69.4521 79.469 68.2696 81.3357 68.1677 81.8832C67.8437 83.5619 68.3056 84.6229 69.5671 85.8012Z" fill="#ADCFF7"/>
<path d="M69.5671 85.8012C71.5803 87.6912 76.9453 88.0089 79.6968 88.7332C79.4768 91.3648 76.1088 95.0483 75.2772 97.5986C75.1819 97.8952 75.0404 98.2316 74.7356 98.326C74.5351 98.3931 74.3161 98.3274 74.1187 98.2657C71.1535 97.2925 68.282 95.9217 66.1337 93.7859C63.9854 91.6501 62.6231 88.6533 62.9994 85.6089C63.1423 84.4679 66.9713 77.0257 68.9622 78.9863C69.4521 79.469 68.2696 81.3357 68.1677 81.8832C67.8437 83.5619 68.3056 84.6229 69.5671 85.8012Z" fill="white" fill-opacity="0.5"/>
<path d="M69.5671 85.8012C71.5803 87.6912 76.9453 88.0089 79.6968 88.7332C79.4768 91.3648 76.1088 95.0483 75.2772 97.5986C75.1819 97.8952 75.0404 98.2316 74.7356 98.326C74.5351 98.3931 74.3161 98.3274 74.1187 98.2657C71.1535 97.2925 68.282 95.9217 66.1337 93.7859C63.9854 91.6501 62.6231 88.6533 62.9994 85.6089C63.1423 84.4679 66.9713 77.0257 68.9622 78.9863C69.4521 79.469 68.2696 81.3357 68.1677 81.8832C67.8437 83.5619 68.3056 84.6229 69.5671 85.8012Z" stroke="#6479A8" stroke-width="1.2" stroke-miterlimit="10" stroke-linecap="round" stroke-linejoin="round"/>
<path d="M79.6832 89.441C82.2042 90.7786 84.5591 92.3836 86.6984 94.2259C87.3314 92.1801 87.8722 90.0728 87.7029 87.9856C87.4131 84.4304 84.8781 81.2396 81.4171 80.0866C80.9884 79.9442 81.3871 82.0125 81.3949 82.0522C81.563 82.8719 81.6197 83.7177 81.5528 84.5645C81.4116 86.2947 80.7732 88.0161 79.6832 89.441Z" fill="#ADCFF7"/>
<path d="M79.6832 89.441C82.2042 90.7786 84.5591 92.3836 86.6984 94.2259C87.3314 92.1801 87.8722 90.0728 87.7029 87.9856C87.4131 84.4304 84.8781 81.2396 81.4171 80.0866C80.9884 79.9442 81.3871 82.0125 81.3949 82.0522C81.563 82.8719 81.6197 83.7177 81.5528 84.5645C81.4116 86.2947 80.7732 88.0161 79.6832 89.441Z" fill="white" fill-opacity="0.5"/>
<path d="M79.6832 89.441C82.2042 90.7786 84.5591 92.3836 86.6984 94.2259C87.3314 92.1801 87.8722 90.0728 87.7029 87.9856C87.4131 84.4304 84.8781 81.2396 81.4171 80.0866C80.9884 79.9442 81.3871 82.0125 81.3949 82.0522C81.563 82.8719 81.6197 83.7177 81.5528 84.5645C81.4116 86.2947 80.7732 88.0161 79.6832 89.441Z" stroke="#6479A8" stroke-width="1.2" stroke-miterlimit="10" stroke-linecap="round" stroke-linejoin="round"/>
</g>
<mask id="mask1" mask-type="alpha" maskUnits="userSpaceOnUse" x="172" y="0" width="135" height="80">
<path d="M172 20C172 8.95431 180.954 0 192 0H272.5C282.717 0 291 8.28273 291 18.5H307L291 36V60C291 71.0457 282.046 80 271 80H192C180.954 80 172 71.0457 172 60V20Z" fill="#EBEEF4"/>
</mask>
<g mask="url(#mask1)">
<path d="M312 0H169V90H312V57.5V0Z" fill="#EBEEF4"/>
<path d="M242.178 17.0921C241.865 18.2798 241.61 19.4999 241.325 20.5771C240.257 24.5462 241.272 29.9127 242.463 33.8564C243.138 36.0874 244.051 38.2583 244.615 40.5093C246.053 46.2656 245.106 52.2282 244.087 57.9886C243.868 59.2184 243.641 60.4687 243.074 61.5816C242.007 63.6575 239.841 65.034 237.529 65.7313C235.218 66.4286 232.743 66.5228 230.306 66.6127C233.118 61.4827 232.922 55.2609 232.151 49.4124C231.407 43.7699 230.183 38.163 229.779 32.496C229.366 26.8285 229.807 20.9979 232.235 15.9032C233.229 13.829 234.563 11.8711 236.387 10.4204C238.296 8.90551 240.611 8.27889 243.039 7.92789C244.164 7.76352 245.314 8.01619 246.382 8.43888C246.685 8.5595 249.113 10.2566 249.046 10.2798C246.811 11.0742 244.392 12.01 243.298 14.0347C242.808 14.9421 242.464 16.0079 242.178 17.0921Z" fill="#6479A8" stroke="#6479A8" stroke-width="1.2" stroke-miterlimit="10" stroke-linecap="round" stroke-linejoin="round"/>
<path d="M297.543 96.5237C297.634 97.492 297.904 99.2277 298.029 101.022C298.198 103.546 298.077 106.187 296.719 106.986C295.266 107.827 293.532 108.08 291.837 108.287C283.936 109.248 275.923 109.523 267.927 109.115C265.148 108.972 262.238 108.71 259.848 107.254C258.653 106.529 257.849 105.37 256.991 104.29C251.38 97.2285 246.9 89.3576 243.689 81.0543C242.061 86.0057 240.236 90.8942 238.208 95.6916C237.903 96.4164 237.583 97.1539 237.05 97.7303C236.088 98.7596 234.556 99.1519 233.102 99.0725C231.648 99.0001 230.604 98.5635 229.368 97.7876C220.614 92.2865 217.072 79.282 210.309 71.5851C209.945 71.2747 210.597 68.2686 210.482 67.8174C210.38 67.4085 210.52 66.99 210.659 66.6058C212.039 62.8607 211.674 66.1271 214.347 63.1413C214.566 62.8945 214.813 62.6429 215.144 62.6049C215.467 62.5665 215.773 62.7412 216.051 62.9139C221.921 66.5215 222.797 75.8982 229.148 78.5173C230.615 74.1076 231.65 69.6245 232.843 65.1184C233.361 63.1779 234.272 61.3701 234.987 59.4925C238.122 51.2896 246.682 45.7968 255.704 44.8489C259.193 44.483 277.825 43.6434 287.723 69.1581L295.755 85.0735C296.523 88.866 297.198 92.6862 297.543 96.5237Z" fill="#ADCFF7" stroke="#6479A8" stroke-width="1.2" stroke-miterlimit="10" stroke-linecap="round" stroke-linejoin="round"/>
<path d="M257.666 46.1368C256.848 46.2164 256.716 46.1018 256.141 45.451C255.641 44.8827 255.208 44.2705 254.856 43.6152C254.211 42.4349 254.016 41.05 255.135 40.2026C261.084 35.7118 261.474 26.1122 257.795 19.9325C255.868 16.6998 253.963 14.4057 249.955 15.0821C249.266 13.7726 247.825 12.9881 246.382 12.56C241.292 11.038 234.566 13.1711 232.832 18.2804C232.09 20.4703 231.711 22.7637 230.998 24.9626C230.377 26.8677 229.549 28.4288 229.518 30.5242C229.485 32.9621 229.982 35.467 231.363 37.5756C232.649 39.5373 234.515 41.1084 236.581 42.2397C238.711 43.4106 241.045 43.2541 241.959 45.4821C242.769 47.4507 243.807 49.3451 245.096 51.0695C245.606 51.7503 246.859 52.6958 247.142 53.4438C247.507 54.4287 246.971 55.5988 247.432 56.7026C247.867 57.7276 248.764 58.5979 249.86 58.8954C250.7 59.1252 251.591 59.0091 252.429 58.8122C256.356 57.8781 259.693 55.0266 261.129 51.3707C261.683 49.9642 261.592 47.7199 260.311 46.5906C259.48 45.8581 258.665 46.0357 257.666 46.1368Z" fill="white" stroke="#6479A8" stroke-width="1.2" stroke-miterlimit="10" stroke-linecap="round" stroke-linejoin="round"/>
<path d="M254.947 33.1238C255.973 32.5918 256.803 31.6595 257.059 30.5375C257.316 29.4154 256.938 28.1236 256.008 27.3761C255.085 26.6308 253.634 26.5687 252.761 27.3175C252.276 27.4024 252.034 27.6928 251.789 28.1061" fill="white"/>
<path d="M254.947 33.1238C255.973 32.5918 256.803 31.6595 257.059 30.5375C257.316 29.4154 256.938 28.1236 256.008 27.3761C255.085 26.6308 253.634 26.5687 252.761 27.3175C252.276 27.4024 252.034 27.6928 251.789 28.1061" stroke="#6479A8" stroke-width="1.2" stroke-miterlimit="10" stroke-linecap="round" stroke-linejoin="round"/>
<path d="M247.624 20.6002C246.696 19.6861 245.157 19.3758 243.956 19.8508" stroke="#6479A8" stroke-width="1.2" stroke-miterlimit="10" stroke-linecap="round" stroke-linejoin="round"/>
<path d="M237.856 19.4774C236.938 18.9623 235.742 18.9306 234.819 19.3886" stroke="#6479A8" stroke-width="1.2" stroke-miterlimit="10" stroke-linecap="round" stroke-linejoin="round"/>
<path d="M238.605 27.3531C238.238 27.7749 237.795 28.1349 237.305 28.4144C236.831 28.6809 236.255 28.9471 236.165 29.4734C236.059 30.0685 236.642 30.5743 237.161 30.9279C237.518 31.1786 237.897 31.4309 238.328 31.4836" stroke="#6479A8" stroke-width="1.2" stroke-miterlimit="10" stroke-linecap="round" stroke-linejoin="round"/>
<path d="M244.253 26.9623C245.359 26.4723 245.749 28.5921 244.575 28.5404C243.745 28.5 243.437 27.4039 244.165 27.0046C244.194 26.9928 244.224 26.974 244.253 26.9623Z" fill="#6479A8" stroke="#6479A8" stroke-width="1.2" stroke-miterlimit="10" stroke-linecap="round" stroke-linejoin="round"/>
<path d="M235.209 26.7582C236.373 26.4049 236.497 28.547 235.33 28.3563C234.504 28.2187 234.34 27.0984 235.107 26.7925C235.144 26.7812 235.18 26.77 235.209 26.7582Z" fill="#6479A8" stroke="#6479A8" stroke-width="1.2" stroke-miterlimit="10" stroke-linecap="round" stroke-linejoin="round"/>
<path d="M236.79 35.4667C238.658 36.1934 240.903 35.8704 242.394 34.6588" stroke="#6479A8" stroke-width="1.2" stroke-miterlimit="10" stroke-linecap="round" stroke-linejoin="round"/>
<path d="M250.55 32.339C250.518 33.0256 250.479 33.7116 250.426 34.3966C250.121 38.4514 249.482 42.4677 248.67 46.4362C248.291 48.2924 247.621 50.0007 247.314 51.8832C246.986 53.9189 246.854 55.9899 246.533 58.0261C246.046 61.1326 245.014 64.3258 242.575 66.3616C242.795 66.1739 245.608 66.9491 246.073 66.9972C247.026 67.0881 248.005 67.2441 248.944 67.3128C250.91 67.4567 252.169 65.8196 253.177 64.3891C255.226 61.4812 256.743 58.218 257.647 54.7835C258.072 53.1838 258.237 51.5228 258.704 49.9613C259.214 48.2412 259.804 46.5481 260.192 44.7981C261.165 40.3493 262.038 35.8651 262.446 31.3117C262.959 25.5991 262.35 19.6638 259.249 14.5443C257.288 11.3078 252.666 8.2702 248.788 9.0478C247.247 9.35679 245.8 10.01 244.437 10.7327C243.605 11.178 241.851 12.7859 240.936 12.8244C243.146 12.7401 245.255 14.0473 246.659 15.7387C250.672 20.5735 250.812 26.5307 250.55 32.339Z" fill="#6479A8" stroke="#6479A8" stroke-width="1.2" stroke-miterlimit="10" stroke-linecap="round" stroke-linejoin="round"/>
<path d="M221.603 52.3504C221.524 52.2796 221.437 52.2123 221.354 52.1493C216.566 49.7572 210.853 46.4937 206.446 44.4014C206.364 46.2598 207.087 48.5227 207.423 50.3996C207.831 52.6678 208.278 54.9307 208.752 57.1874C209.676 61.6139 210.701 66.0234 211.726 70.4289C211.816 70.8133 211.913 71.2145 212.17 71.5299C212.386 71.7936 212.701 71.9712 213.003 72.1437C217.184 74.4868 221.458 76.6865 225.803 78.7289C225.483 78.5794 225.076 73.5736 224.983 73.0591C224.575 70.7949 224.149 68.5296 223.81 66.2543C223.523 64.3404 223.53 62.4115 223.202 60.4579C222.799 58.0764 222.418 55.6925 222.05 53.3054C222.013 53.0752 221.977 52.8369 221.853 52.6328C221.784 52.5303 221.698 52.4386 221.603 52.3504Z" fill="#6479A8" stroke="#6479A8" stroke-width="1.2" stroke-miterlimit="10" stroke-linecap="round" stroke-linejoin="round"/>
<path d="M231.355 83.7447C230.012 82.3995 228.628 80.9955 227.926 79.252C227.609 78.0451 227.334 76.8413 227.053 75.6301C226.818 74.6451 226.328 73.2862 225.845 72.4082C225.395 71.5953 224.443 71.4067 223.651 71.1672C223.891 71.2407 224.066 73.3561 223.949 73.5771C223.682 74.0796 222.778 74.0895 222.269 73.9336C221.887 73.8149 221.295 73.5972 221.037 73.2857C221.206 73.34 221.391 73.2214 221.47 73.067C221.541 72.9122 221.528 72.7302 221.5 72.5541C221.323 71.5664 220.447 70.5201 219.386 70.3583C218.652 70.2485 217.817 70.166 217.279 70.6415C216.958 70.9241 216.922 71.2347 216.889 71.6361C216.887 71.6777 216.878 71.7258 216.855 71.7589C216.68 71.9757 215.883 71.3739 215.501 72.0489C215.009 72.9107 215.388 73.7253 215.135 74.5421C215.026 74.896 214.551 74.9375 214.407 75.4143C214.279 75.8573 214.432 76.4256 214.57 76.8604C214.72 77.3449 215.078 77.6707 215.229 78.1135C215.45 78.7772 215.18 79.5022 215.192 80.1714C215.208 81.2308 215.881 82.2063 216.716 82.9015C217.552 83.5967 218.563 84.0611 219.537 84.5577C222.326 85.9747 224.269 88.0047 226.286 90.3047C228.657 93.0068 231.035 95.7163 233.407 98.4184C233.638 98.6861 233.948 98.9735 234.295 98.9017C234.447 98.8711 234.567 98.7685 234.686 98.6729C236.588 97.0658 238.435 95.399 240.235 93.6869C241.772 92.2199 238.608 91.0188 237.704 90.0819C235.623 87.9234 233.467 85.8499 231.355 83.7447Z" fill="white" stroke="#6479A8" stroke-width="1.2" stroke-miterlimit="10" stroke-linecap="round" stroke-linejoin="round"/>
<path d="M268.215 61.4356C265.358 68.8272 261.591 79.825 261.052 87.6649C260.92 89.6111 261.237 92.0483 260.427 93.8128C259.717 93.8507 259.2 93.5837 258.632 93.1812C252.788 88.991 244.338 87.2476 238.494 83.0575C235.919 85.5521 228.358 93.8373 225.783 96.3319C232.851 103.914 252.097 100.138 260.178 106.692C265.06 110.652 272.292 114.049 276.163 107.475C282.696 96.3725 285.79 84.1222 287.85 71.5181" fill="#ADCFF7"/>
<path d="M268.215 61.4356C265.358 68.8272 261.591 79.825 261.052 87.6649C260.92 89.6111 261.237 92.0483 260.427 93.8128C259.717 93.8507 259.2 93.5837 258.632 93.1812C252.788 88.991 244.338 87.2476 238.494 83.0575C235.919 85.5521 228.358 93.8373 225.783 96.3319C232.851 103.914 252.097 100.138 260.178 106.692C265.06 110.652 272.292 114.049 276.163 107.475C282.696 96.3725 285.79 84.1222 287.85 71.5181" stroke="#6479A8" stroke-width="1.2" stroke-miterlimit="10" stroke-linecap="round" stroke-linejoin="round"/>
<path d="M208.02 66.4135C208.146 66.8005 208.404 67.1552 208.443 67.5567C208.507 68.1909 208.016 68.8541 208.314 69.4286C208.419 69.6392 208.62 69.8009 208.718 70.018C208.953 70.5598 208.45 71.1522 208.568 71.7274C208.622 71.9692 208.777 72.1835 208.934 72.3838C209.837 73.5555 210.768 74.7502 211.988 75.6096C213.041 76.3516 214.781 76.3821 215.344 75.0947C215.392 74.9863 215.426 74.87 215.503 74.7777C215.694 74.519 216.057 74.4688 216.358 74.3372C216.916 74.0985 216.931 73.1275 216.459 72.75C216.314 72.6343 216.114 72.5917 215.991 72.4567C215.599 72.0431 216.227 71.383 216.021 70.8642C215.937 70.6482 215.721 70.4994 215.63 70.2829C215.507 69.9801 215.659 69.6416 215.609 69.3232C215.543 68.8916 215.117 68.6015 214.724 68.3906C214.148 68.0754 213.541 67.8068 212.918 67.586C212.366 67.3914 211.79 67.2301 211.332 66.8675C210.79 66.4429 210.523 65.8287 210.357 65.201C210.235 64.7374 210.289 63.5524 209.828 63.2387C208.774 62.5245 207.761 65.639 208.02 66.4135Z" fill="white" stroke="#6479A8" stroke-width="1.2" stroke-miterlimit="10" stroke-linecap="round" stroke-linejoin="round"/>
</g>
</svg>
