<svg width="336" height="135" viewBox="0 0 336 135" fill="none" xmlns="http://www.w3.org/2000/svg">
<path fill-rule="evenodd" clip-rule="evenodd" d="M10.5356 8C10.5356 3.58172 14.1174 0 18.5356 0H317.536C321.954 0 325.536 3.58172 325.536 8V57C319.461 57 314.536 61.9249 314.536 68C314.536 74.0751 319.461 79 325.536 79V127C325.536 131.418 321.954 135 317.536 135H18.5356C14.1174 135 10.5356 131.418 10.5356 127V79C16.6108 79 21.5356 74.0751 21.5356 68C21.5356 61.9249 16.6108 57 10.5356 57V8Z" fill="#6E84AF"/>
<mask id="path-2-inside-1" fill="white">
<path fill-rule="evenodd" clip-rule="evenodd" d="M17.5356 15C17.5356 10.5817 21.1174 7 25.5356 7H310.536C314.954 7 318.536 10.5817 318.536 15V50.7035C311.027 52.8702 305.536 59.7938 305.536 68C305.536 76.2062 311.027 83.1298 318.536 85.2965V120C318.536 124.418 314.954 128 310.536 128H25.5356C21.1174 128 17.5356 124.418 17.5356 120V84.5882C23.9995 81.8572 28.5356 75.4583 28.5356 68C28.5356 60.5417 23.9995 54.1428 17.5356 51.4118V15Z"/>
</mask>
<path d="M318.536 50.7035L319.09 52.6251L320.536 52.208V50.7035H318.536ZM318.536 85.2965H320.536V83.792L319.09 83.3749L318.536 85.2965ZM17.5356 84.5882L16.7573 82.7459L15.5356 83.262V84.5882H17.5356ZM17.5356 51.4118H15.5356V52.738L16.7573 53.2541L17.5356 51.4118ZM25.5356 5C20.0128 5 15.5356 9.47715 15.5356 15H19.5356C19.5356 11.6863 22.2219 9 25.5356 9V5ZM310.536 5H25.5356V9H310.536V5ZM320.536 15C320.536 9.47715 316.059 5 310.536 5V9C313.849 9 316.536 11.6863 316.536 15H320.536ZM320.536 50.7035V15H316.536V50.7035H320.536ZM307.536 68C307.536 60.7085 312.415 54.5514 319.09 52.6251L317.981 48.7819C309.639 51.189 303.536 58.8791 303.536 68H307.536ZM319.09 83.3749C312.415 81.4486 307.536 75.2915 307.536 68H303.536C303.536 77.1209 309.639 84.811 317.981 87.2181L319.09 83.3749ZM320.536 120V85.2965H316.536V120H320.536ZM310.536 130C316.058 130 320.536 125.523 320.536 120H316.536C316.536 123.314 313.849 126 310.536 126V130ZM25.5356 130H310.536V126H25.5356V130ZM15.5356 120C15.5356 125.523 20.0128 130 25.5356 130V126C22.2219 126 19.5356 123.314 19.5356 120H15.5356ZM15.5356 84.5882V120H19.5356V84.5882H15.5356ZM26.5356 68C26.5356 74.6265 22.5069 80.3166 16.7573 82.7459L18.314 86.4305C25.4922 83.3977 30.5356 76.2901 30.5356 68H26.5356ZM16.7573 53.2541C22.5069 55.6834 26.5356 61.3735 26.5356 68H30.5356C30.5356 59.7099 25.4922 52.6023 18.314 49.5695L16.7573 53.2541ZM15.5356 15V51.4118H19.5356V15H15.5356Z" fill="white" fill-opacity="0.2" mask="url(#path-2-inside-1)"/>
<g filter="url(#filter0_d)">
<path d="M85.8451 68.6185C86.0745 67.0562 86.5116 65.6945 87.1566 64.5335C87.816 63.3725 88.6258 62.405 89.5861 61.631C90.5608 60.857 91.6716 60.2837 92.9186 59.911C94.1656 59.524 95.5058 59.3305 96.9391 59.3305C98.4871 59.3305 99.8631 59.5527 101.067 59.997C102.271 60.427 103.289 61.0147 104.12 61.76C104.951 62.5053 105.582 63.3725 106.012 64.3615C106.442 65.3362 106.657 66.3682 106.657 67.4575C106.657 68.4465 106.557 69.3208 106.356 70.0805C106.155 70.8258 105.854 71.478 105.453 72.037C105.066 72.5817 104.579 73.0475 103.991 73.4345C103.418 73.8072 102.758 74.1225 102.013 74.3805C105.482 75.5988 107.216 77.9638 107.216 81.4755C107.216 83.1382 106.915 84.5858 106.313 85.8185C105.711 87.0512 104.901 88.076 103.884 88.893C102.88 89.71 101.712 90.3263 100.379 90.742C99.0461 91.1433 97.6558 91.344 96.2081 91.344C94.7175 91.344 93.3916 91.1863 92.2306 90.871C91.0696 90.5413 90.0376 90.0397 89.1346 89.366C88.2316 88.678 87.4361 87.8037 86.7481 86.743C86.0745 85.6823 85.4868 84.421 84.9851 82.959L87.9521 81.755C88.7261 81.454 89.4428 81.3752 90.1021 81.5185C90.7615 81.6618 91.2345 81.9915 91.5211 82.5075C92.1661 83.6972 92.847 84.5643 93.5636 85.109C94.2946 85.6393 95.1475 85.9045 96.1221 85.9045C96.8675 85.9045 97.5125 85.7827 98.0571 85.539C98.6161 85.281 99.0748 84.9585 99.4331 84.5715C99.8058 84.1702 100.085 83.7187 100.272 83.217C100.458 82.7153 100.551 82.2065 100.551 81.6905C100.551 81.0168 100.501 80.4148 100.401 79.8845C100.315 79.3398 100.057 78.874 99.6266 78.487C99.1966 78.1 98.5445 77.8062 97.6701 77.6055C96.8101 77.3905 95.6061 77.283 94.0581 77.283V72.682C95.3625 72.682 96.416 72.5817 97.2186 72.381C98.0213 72.1803 98.6376 71.908 99.0676 71.564C99.512 71.2057 99.8058 70.7757 99.9491 70.274C100.092 69.7723 100.164 69.2205 100.164 68.6185C100.164 67.3858 99.8631 66.4398 99.2611 65.7805C98.6735 65.1068 97.7705 64.77 96.5521 64.77C95.5631 64.77 94.7246 65.0352 94.0366 65.5655C93.363 66.0815 92.8971 66.7265 92.6391 67.5005C92.3381 68.2888 91.944 68.812 91.4566 69.07C90.9693 69.328 90.2741 69.3853 89.3711 69.242L85.8451 68.6185ZM132.976 75.3265C132.976 78.0642 132.683 80.4363 132.095 82.443C131.507 84.4497 130.69 86.1123 129.644 87.431C128.612 88.7497 127.379 89.7315 125.946 90.3765C124.527 91.0215 122.986 91.344 121.323 91.344C119.661 91.344 118.12 91.0215 116.701 90.3765C115.296 89.7315 114.078 88.7497 113.046 87.431C112.014 86.1123 111.204 84.4497 110.616 82.443C110.043 80.4363 109.756 78.0642 109.756 75.3265C109.756 72.5888 110.043 70.2167 110.616 68.21C111.204 66.2033 112.014 64.5407 113.046 63.222C114.078 61.9033 115.296 60.9287 116.701 60.298C118.12 59.653 119.661 59.3305 121.323 59.3305C122.986 59.3305 124.527 59.653 125.946 60.298C127.379 60.9287 128.612 61.9033 129.644 63.222C130.69 64.5407 131.507 66.2033 132.095 68.21C132.683 70.2167 132.976 72.5888 132.976 75.3265ZM126.096 75.3265C126.096 73.1622 125.96 71.392 125.688 70.016C125.416 68.6257 125.05 67.5363 124.591 66.748C124.147 65.9597 123.638 65.4222 123.065 65.1355C122.492 64.8345 121.911 64.684 121.323 64.684C120.736 64.684 120.155 64.8345 119.582 65.1355C119.023 65.4222 118.521 65.9597 118.077 66.748C117.647 67.5363 117.296 68.6257 117.023 70.016C116.765 71.392 116.636 73.1622 116.636 75.3265C116.636 77.5052 116.765 79.2825 117.023 80.6585C117.296 82.0345 117.647 83.1238 118.077 83.9265C118.521 84.7148 119.023 85.2595 119.582 85.5605C120.155 85.8472 120.736 85.9905 121.323 85.9905C121.911 85.9905 122.492 85.8472 123.065 85.5605C123.638 85.2595 124.147 84.7148 124.591 83.9265C125.05 83.1238 125.416 82.0345 125.688 80.6585C125.96 79.2825 126.096 77.5052 126.096 75.3265ZM136.14 96.3105C135.825 96.0525 135.667 95.7372 135.667 95.3645C135.667 95.2212 135.718 95.0635 135.818 94.8915C135.918 94.7338 136.04 94.5905 136.183 94.4615C136.355 94.2895 136.556 94.0745 136.785 93.8165C137.015 93.5728 137.244 93.3005 137.473 92.9995C137.703 92.6985 137.911 92.3688 138.097 92.0105C138.298 91.6522 138.448 91.2723 138.548 90.871C138.061 90.828 137.617 90.7062 137.215 90.5055C136.814 90.3048 136.47 90.0468 136.183 89.7315C135.897 89.4018 135.675 89.0292 135.517 88.6135C135.359 88.1835 135.28 87.7177 135.28 87.216C135.28 86.7573 135.366 86.3345 135.538 85.9475C135.71 85.5462 135.954 85.2022 136.269 84.9155C136.599 84.6145 136.979 84.378 137.409 84.206C137.853 84.034 138.348 83.948 138.892 83.948C139.537 83.948 140.096 84.0627 140.569 84.292C141.042 84.507 141.437 84.808 141.752 85.195C142.067 85.5677 142.297 86.0048 142.44 86.5065C142.598 86.9938 142.676 87.5098 142.676 88.0545C142.676 88.7712 142.562 89.538 142.332 90.355C142.103 91.1577 141.759 91.9675 141.3 92.7845C140.856 93.6015 140.297 94.4042 139.623 95.1925C138.95 95.9808 138.176 96.6975 137.301 97.3425L136.14 96.3105ZM168.25 75.3265C168.25 78.0642 167.956 80.4363 167.368 82.443C166.781 84.4497 165.964 86.1123 164.917 87.431C163.885 88.7497 162.653 89.7315 161.219 90.3765C159.8 91.0215 158.26 91.344 156.597 91.344C154.934 91.344 153.393 91.0215 151.974 90.3765C150.57 89.7315 149.351 88.7497 148.319 87.431C147.287 86.1123 146.478 84.4497 145.89 82.443C145.317 80.4363 145.03 78.0642 145.03 75.3265C145.03 72.5888 145.317 70.2167 145.89 68.21C146.478 66.2033 147.287 64.5407 148.319 63.222C149.351 61.9033 150.57 60.9287 151.974 60.298C153.393 59.653 154.934 59.3305 156.597 59.3305C158.26 59.3305 159.8 59.653 161.219 60.298C162.653 60.9287 163.885 61.9033 164.917 63.222C165.964 64.5407 166.781 66.2033 167.368 68.21C167.956 70.2167 168.25 72.5888 168.25 75.3265ZM161.37 75.3265C161.37 73.1622 161.234 71.392 160.961 70.016C160.689 68.6257 160.324 67.5363 159.865 66.748C159.421 65.9597 158.912 65.4222 158.338 65.1355C157.765 64.8345 157.185 64.684 156.597 64.684C156.009 64.684 155.429 64.8345 154.855 65.1355C154.296 65.4222 153.795 65.9597 153.35 66.748C152.92 67.5363 152.569 68.6257 152.297 70.016C152.039 71.392 151.91 73.1622 151.91 75.3265C151.91 77.5052 152.039 79.2825 152.297 80.6585C152.569 82.0345 152.92 83.1238 153.35 83.9265C153.795 84.7148 154.296 85.2595 154.855 85.5605C155.429 85.8472 156.009 85.9905 156.597 85.9905C157.185 85.9905 157.765 85.8472 158.338 85.5605C158.912 85.2595 159.421 84.7148 159.865 83.9265C160.324 83.1238 160.689 82.0345 160.961 80.6585C161.234 79.2825 161.37 77.5052 161.37 75.3265ZM193.193 75.3265C193.193 78.0642 192.899 80.4363 192.312 82.443C191.724 84.4497 190.907 86.1123 189.861 87.431C188.829 88.7497 187.596 89.7315 186.163 90.3765C184.744 91.0215 183.203 91.344 181.54 91.344C179.878 91.344 178.337 91.0215 176.918 90.3765C175.513 89.7315 174.295 88.7497 173.263 87.431C172.231 86.1123 171.421 84.4497 170.833 82.443C170.26 80.4363 169.973 78.0642 169.973 75.3265C169.973 72.5888 170.26 70.2167 170.833 68.21C171.421 66.2033 172.231 64.5407 173.263 63.222C174.295 61.9033 175.513 60.9287 176.918 60.298C178.337 59.653 179.878 59.3305 181.54 59.3305C183.203 59.3305 184.744 59.653 186.163 60.298C187.596 60.9287 188.829 61.9033 189.861 63.222C190.907 64.5407 191.724 66.2033 192.312 68.21C192.899 70.2167 193.193 72.5888 193.193 75.3265ZM186.313 75.3265C186.313 73.1622 186.177 71.392 185.905 70.016C185.632 68.6257 185.267 67.5363 184.808 66.748C184.364 65.9597 183.855 65.4222 183.282 65.1355C182.708 64.8345 182.128 64.684 181.54 64.684C180.953 64.684 180.372 64.8345 179.799 65.1355C179.24 65.4222 178.738 65.9597 178.294 66.748C177.864 67.5363 177.513 68.6257 177.24 70.016C176.982 71.392 176.853 73.1622 176.853 75.3265C176.853 77.5052 176.982 79.2825 177.24 80.6585C177.513 82.0345 177.864 83.1238 178.294 83.9265C178.738 84.7148 179.24 85.2595 179.799 85.5605C180.372 85.8472 180.953 85.9905 181.54 85.9905C182.128 85.9905 182.708 85.8472 183.282 85.5605C183.855 85.2595 184.364 84.7148 184.808 83.9265C185.267 83.1238 185.632 82.0345 185.905 80.6585C186.177 79.2825 186.313 77.5052 186.313 75.3265ZM218.137 75.3265C218.137 78.0642 217.843 80.4363 217.255 82.443C216.667 84.4497 215.85 86.1123 214.804 87.431C213.772 88.7497 212.539 89.7315 211.106 90.3765C209.687 91.0215 208.146 91.344 206.484 91.344C204.821 91.344 203.28 91.0215 201.861 90.3765C200.456 89.7315 199.238 88.7497 198.206 87.431C197.174 86.1123 196.364 84.4497 195.777 82.443C195.203 80.4363 194.917 78.0642 194.917 75.3265C194.917 72.5888 195.203 70.2167 195.777 68.21C196.364 66.2033 197.174 64.5407 198.206 63.222C199.238 61.9033 200.456 60.9287 201.861 60.298C203.28 59.653 204.821 59.3305 206.484 59.3305C208.146 59.3305 209.687 59.653 211.106 60.298C212.539 60.9287 213.772 61.9033 214.804 63.222C215.85 64.5407 216.667 66.2033 217.255 68.21C217.843 70.2167 218.137 72.5888 218.137 75.3265ZM211.257 75.3265C211.257 73.1622 211.12 71.392 210.848 70.016C210.576 68.6257 210.21 67.5363 209.752 66.748C209.307 65.9597 208.798 65.4222 208.225 65.1355C207.652 64.8345 207.071 64.684 206.484 64.684C205.896 64.684 205.315 64.8345 204.742 65.1355C204.183 65.4222 203.681 65.9597 203.237 66.748C202.807 67.5363 202.456 68.6257 202.184 70.016C201.926 71.392 201.797 73.1622 201.797 75.3265C201.797 77.5052 201.926 79.2825 202.184 80.6585C202.456 82.0345 202.807 83.1238 203.237 83.9265C203.681 84.7148 204.183 85.2595 204.742 85.5605C205.315 85.8472 205.896 85.9905 206.484 85.9905C207.071 85.9905 207.652 85.8472 208.225 85.5605C208.798 85.2595 209.307 84.7148 209.752 83.9265C210.21 83.1238 210.576 82.0345 210.848 80.6585C211.12 79.2825 211.257 77.5052 211.257 75.3265Z" fill="white"/>
</g>
<g filter="url(#filter1_d)">
<path d="M238.835 77.5331V80.5031H244.544V82.9121H248.9V59.8781H244.544V77.5331H238.835ZM232.994 64.0691C235.007 64.0691 236.426 64.8611 236.426 66.3461C236.426 67.8311 235.007 68.5901 232.994 68.5901C230.948 68.5901 229.529 67.8311 229.529 66.3461C229.529 64.8611 230.948 64.0691 232.994 64.0691ZM232.994 71.7581C237.416 71.7581 240.551 69.5801 240.551 66.3461C240.551 63.1121 237.416 60.9011 232.994 60.9011C228.539 60.9011 225.437 63.1121 225.437 66.3461C225.437 69.5801 228.539 71.7581 232.994 71.7581ZM231.377 86.2781V82.1201H235.568V76.3781C238.01 76.1801 240.452 75.9161 242.828 75.5201L242.531 72.4181C236.129 73.2431 228.737 73.3091 223.193 73.3421L223.754 76.8071C226.031 76.8071 228.572 76.7741 231.245 76.6421V80.7011H227.021V89.7431H249.56V86.2781H231.377Z" fill="white"/>
</g>
<path d="M112.407 34.144V35.856H117.223C116.839 39.12 115.015 41.456 111.591 43.216L112.775 44.832C117.671 42.352 119.351 38.56 119.351 34.144H112.407ZM125.335 38.256H123.271V32.624H121.159V47.344H123.271V40H125.335V38.256ZM136.566 32.64V40.56H138.694V32.64H136.566ZM128.902 41.2V47.2H138.694V41.2H136.598V42.576H130.998V41.2H128.902ZM130.998 44.192H136.598V45.52H130.998V44.192ZM130.678 33.248C128.39 33.248 126.662 34.704 126.662 36.72C126.662 38.752 128.39 40.208 130.678 40.208C132.966 40.208 134.678 38.752 134.678 36.72C134.678 34.704 132.966 33.248 130.678 33.248ZM130.678 34.992C131.798 34.992 132.614 35.648 132.614 36.72C132.614 37.824 131.798 38.464 130.678 38.464C129.558 38.464 128.726 37.824 128.726 36.72C128.726 35.648 129.558 34.992 130.678 34.992ZM150.509 33.776H148.397V35.92C148.397 38.784 147.181 41.632 144.605 42.736L145.869 44.48C147.629 43.648 148.829 42.064 149.485 40.096C150.141 41.904 151.277 43.36 152.973 44.128L154.173 42.416C151.677 41.344 150.509 38.656 150.509 35.92V33.776ZM154.893 32.624V47.408H157.005V32.624H154.893ZM164.469 41.088C166.181 40.624 167.349 39.632 168.005 38.352C168.661 39.568 169.813 40.512 171.509 40.944L172.437 39.344C170.277 38.784 169.205 37.456 169.061 36.048H172.037V34.368H169.045V32.768H166.917V34.368H163.957V36.048H166.901C166.757 37.52 165.717 38.896 163.525 39.472L164.469 41.088ZM169.045 40.656H166.917V42.896C165.573 42.944 164.293 42.944 163.205 42.944L163.477 44.656C166.005 44.64 169.477 44.624 172.645 43.984L172.517 42.448C171.397 42.624 170.229 42.72 169.045 42.8V40.656ZM173.317 32.624V47.408H175.429V32.624H173.317ZM180.356 36.048H183.732V34.336H178.276V44.064H179.3C181.188 44.064 182.756 44 184.548 43.664L184.388 41.952C182.98 42.208 181.732 42.288 180.356 42.32V36.048ZM188.5 32.624V38.304H187.172V32.912H185.204V46.688H187.172V40H188.5V47.376H190.5V32.624H188.5ZM201.9 35.792H204.94V34.048H196.684V35.792H199.756V36.608C199.756 39.12 198.556 41.824 196.092 42.928L197.292 44.608C199.02 43.824 200.204 42.208 200.86 40.288C201.516 42.064 202.684 43.504 204.396 44.24L205.548 42.576C203.084 41.552 201.9 39.008 201.9 36.608V35.792ZM206.3 32.64V47.376H208.412V32.64H206.3ZM220.554 45.52H214.602V44.192H220.554V45.52ZM220.554 42.56H214.602V41.024H212.506V47.216H222.666V41.024H220.554V42.56ZM222.378 38.384C222.698 36.736 222.698 35.568 222.698 34.416V33.232H212.57V34.912H220.618C220.618 35.888 220.57 36.992 220.282 38.384H210.922V40.08H224.266V38.384H222.378Z" fill="white"/>
<defs>
<filter id="filter0_d" x="81.9851" y="58.3304" width="139.152" height="44.012" filterUnits="userSpaceOnUse" color-interpolation-filters="sRGB">
<feFlood flood-opacity="0" result="BackgroundImageFix"/>
<feColorMatrix in="SourceAlpha" type="matrix" values="0 0 0 0 0 0 0 0 0 0 0 0 0 0 0 0 0 0 127 0"/>
<feOffset dy="2"/>
<feGaussianBlur stdDeviation="1.5"/>
<feColorMatrix type="matrix" values="0 0 0 0 0 0 0 0 0 0 0 0 0 0 0 0 0 0 0.1 0"/>
<feBlend mode="normal" in2="BackgroundImageFix" result="effect1_dropShadow"/>
<feBlend mode="normal" in="SourceGraphic" in2="effect1_dropShadow" result="shape"/>
</filter>
<filter id="filter1_d" x="220.193" y="58.8781" width="32.367" height="35.865" filterUnits="userSpaceOnUse" color-interpolation-filters="sRGB">
<feFlood flood-opacity="0" result="BackgroundImageFix"/>
<feColorMatrix in="SourceAlpha" type="matrix" values="0 0 0 0 0 0 0 0 0 0 0 0 0 0 0 0 0 0 127 0"/>
<feOffset dy="2"/>
<feGaussianBlur stdDeviation="1.5"/>
<feColorMatrix type="matrix" values="0 0 0 0 0 0 0 0 0 0 0 0 0 0 0 0 0 0 0.1 0"/>
<feBlend mode="normal" in2="BackgroundImageFix" result="effect1_dropShadow"/>
<feBlend mode="normal" in="SourceGraphic" in2="effect1_dropShadow" result="shape"/>
</filter>
</defs>
</svg>
