<svg width="130" height="130" viewBox="0 0 130 130" fill="none" xmlns="http://www.w3.org/2000/svg">
<mask id="mask0" mask-type="alpha" maskUnits="userSpaceOnUse" x="0" y="0" width="130" height="130">
<rect width="130" height="130" rx="65" fill="black"/>
</mask>
<g mask="url(#mask0)">
<rect width="130" height="130" fill="#EBEEF4"/>
<path d="M133.583 133.133C133.684 134.426 134.003 136.741 134.133 139.137C134.308 142.509 134.103 146.043 132.326 147.144C130.425 148.303 128.171 148.681 125.968 148.998C115.696 150.467 105.293 151.022 94.9241 150.661C91.32 150.535 87.5491 150.252 84.4733 148.36C82.9352 147.419 81.9128 145.888 80.8194 144.463C73.6644 135.149 67.9905 124.727 63.9723 113.696C61.7711 120.356 59.3153 126.937 56.5977 133.4C56.1892 134.377 55.7611 135.37 55.0583 136.154C53.7918 137.553 51.7962 138.113 49.9114 138.041C48.026 137.978 46.6787 137.418 45.0889 136.409C33.8268 129.255 29.4636 111.945 20.8246 101.809C20.3574 101.402 21.2582 97.3664 21.1171 96.7656C20.9912 96.2212 21.1813 95.6581 21.3687 95.1412C23.2259 90.1003 22.6943 94.4772 26.2168 90.4219C26.5048 90.0867 26.8302 89.7444 27.2596 89.686C27.6797 89.627 28.074 89.8536 28.4314 90.0781C35.9842 94.7664 36.9528 107.287 45.1478 110.642C47.1308 104.71 48.5541 98.6901 50.1831 92.6359C50.8899 90.0285 52.1055 87.5895 53.0669 85.0617C57.2817 74.0181 68.4887 66.4728 80.2143 64.9952C84.7477 64.4247 108.942 62.8683 121.33 96.7618L131.468 117.861C132.397 122.915 133.204 128.008 133.583 133.133Z" fill="#ADCFF7" stroke="#6479A8" stroke-width="1.2" stroke-miterlimit="10" stroke-linecap="round" stroke-linejoin="round"/>
<path d="M81.7721 67.4841C80.7185 67.6082 80.5512 67.4596 79.8225 66.6117C79.1895 65.8712 78.6432 65.071 78.2022 64.212C77.3937 62.665 77.1664 60.8368 78.6219 59.6896C86.3547 53.6097 87.0271 40.8976 82.4034 32.8048C79.982 28.5714 77.5719 25.5796 72.4031 26.567C71.5396 24.8501 69.6996 23.8452 67.8507 23.312C61.3305 21.4152 52.6386 24.393 50.3181 31.1942C49.3249 34.1091 48.7966 37.1528 47.8398 40.079C47.0075 42.6143 45.9143 44.6992 45.8368 47.4728C45.7515 50.6996 46.3471 54.0029 48.0854 56.7613C49.7053 59.3277 52.0782 61.3636 54.7166 62.813C57.4353 64.3134 60.4415 64.0525 61.5774 66.9797C62.5849 69.5661 63.8855 72.0492 65.5143 74.3012C66.1572 75.1904 67.7532 76.4127 68.1036 77.3961C68.5563 78.6909 67.8454 80.2517 68.4188 81.7017C68.9611 83.0481 70.0993 84.179 71.504 84.5475C72.5802 84.8322 73.7293 84.6581 74.8104 84.3781C79.8785 83.0515 84.2225 79.2012 86.1347 74.3302C86.8731 72.4562 86.7952 69.4885 85.167 68.0236C84.1109 67.0734 83.0591 67.3272 81.7721 67.4841Z" fill="white" stroke="#6479A8" stroke-width="1.2" stroke-miterlimit="10" stroke-linecap="round" stroke-linejoin="round"/>
<path d="M54.8551 26.0963C53.8473 27.2232 52.9352 28.4487 51.8676 29.4291C50.7234 23.4589 53.6422 12.7851 60.6299 13.2746C62.5433 10.7642 65.3597 9.07344 68.3864 8.60272C68.242 9.1326 68.0975 9.66248 67.9619 10.1904C71.1305 8.28337 75.1314 7.97897 78.616 9.35207C77.6077 10.3494 77.028 11.8215 77.0467 13.3125C78.4667 11.9463 80.7935 11.7578 82.459 12.8797C81.6076 15.9161 83.2822 19.209 85.3586 21.5769C87.4351 23.9449 90.0037 25.8865 91.6085 28.6464C94.1192 32.963 92.9649 37.421 91.7716 41.8278C90.4621 46.6386 86.9131 50.9311 82.9323 53.414C82.9699 50.904 82.5228 47.8318 80.094 47.2551C75.3084 46.1757 74.2046 35.6216 73.1302 31.7593C73.0439 31.4492 72.9426 31.1124 72.7025 30.9057C72.4713 30.6969 72.1559 30.6561 71.8693 30.6189C66.4098 29.8559 61.0883 27.7671 56.4213 24.5487C55.8625 25.0095 55.3468 25.5406 54.8551 26.0963Z" fill="#6479A8" stroke="#6479A8" stroke-width="1.3" stroke-miterlimit="10" stroke-linecap="round" stroke-linejoin="round"/>
<path d="M78.6075 50.5961C79.949 49.8701 81.0436 48.6201 81.3969 47.1326C81.7501 45.6452 81.2821 43.9481 80.0868 42.9824C78.9009 42.0195 77.0164 41.9708 75.8692 42.9796C75.2379 43.1027 74.9188 43.4917 74.5932 44.043" fill="white"/>
<path d="M78.6075 50.5961C79.949 49.8701 81.0436 48.6201 81.3969 47.1326C81.7501 45.6452 81.2821 43.9481 80.0868 42.9824C78.9009 42.0195 77.0164 41.9708 75.8692 42.9796C75.2379 43.1027 74.9188 43.4917 74.5932 44.043" stroke="#6479A8" stroke-width="1.2" stroke-miterlimit="10" stroke-linecap="round" stroke-linejoin="round"/>
<path d="M69.0744 34.1791C67.878 32.9337 65.8729 32.5396 64.296 33.226" stroke="#6479A8" stroke-width="1.2" stroke-miterlimit="10" stroke-linecap="round" stroke-linejoin="round"/>
<path d="M56.2975 32.6976C55.1069 31.9896 53.5429 31.973 52.328 32.6433" stroke="#6479A8" stroke-width="1.2" stroke-miterlimit="10" stroke-linecap="round" stroke-linejoin="round"/>
<path d="M57.2853 42.969C56.8081 43.5339 56.2336 44.0192 55.6004 44.3992C54.9868 44.7618 54.2433 45.1261 54.1196 45.8227C53.9721 46.6105 54.712 47.2646 55.3708 47.7195C55.8244 48.0421 56.3056 48.3663 56.8578 48.4261" stroke="#6479A8" stroke-width="1.2" stroke-miterlimit="10" stroke-linecap="round" stroke-linejoin="round"/>
<path d="M64.6927 42.501C66.1295 41.8254 66.5963 44.6292 65.0807 44.5876C64.0091 44.5532 63.6302 43.1059 64.5782 42.5592C64.6162 42.5429 64.6547 42.5174 64.6927 42.501Z" fill="#6479A8" stroke="#6479A8" stroke-width="1.2" stroke-miterlimit="10" stroke-linecap="round" stroke-linejoin="round"/>
<path d="M52.8552 42.231C54.3649 41.7355 54.4872 44.5748 52.9823 44.3487C51.9181 44.1852 51.7264 42.7024 52.7229 42.2789C52.77 42.2631 52.8172 42.2473 52.8552 42.231Z" fill="#6479A8" stroke="#6479A8" stroke-width="1.2" stroke-miterlimit="10" stroke-linecap="round" stroke-linejoin="round"/>
<path d="M54.9115 53.7213C57.3378 54.6769 60.2742 54.1804 62.2434 52.4796" stroke="#6479A8" stroke-width="1.2" stroke-miterlimit="10" stroke-linecap="round" stroke-linejoin="round"/>
<path d="M35.0577 75.4918C34.958 75.4001 34.8471 75.313 34.7414 75.2317C28.6359 72.1801 21.3581 67.998 15.7354 65.3337C15.5983 67.7921 16.4863 70.7665 16.8842 73.2397C17.3681 76.2284 17.9022 79.2092 18.47 82.1812C19.579 88.0109 20.8165 93.8157 22.0544 99.6153C22.1631 100.121 22.2816 100.649 22.6057 101.06C22.8786 101.404 23.2796 101.631 23.6645 101.853C28.9916 104.853 34.4404 107.662 39.9841 110.262C39.5754 110.072 39.1411 103.465 39.0313 102.787C38.547 99.8033 38.0407 96.8187 37.6457 93.8191C37.3115 91.2959 37.3545 88.7461 36.968 86.1715C36.4928 83.0329 36.0453 79.8906 35.6147 76.7438C35.5716 76.4404 35.529 76.1263 35.3733 75.8594C35.2871 75.7254 35.1781 75.6063 35.0577 75.4918Z" fill="#6479A8" stroke="#6479A8" stroke-width="1.2" stroke-miterlimit="10" stroke-linecap="round" stroke-linejoin="round"/>
<path d="M47.7485 116.718C46.0354 114.961 44.2713 113.128 43.3953 110.827C43.0064 109.23 42.6729 107.636 42.3306 106.033C42.0451 104.729 41.4361 102.934 40.8272 101.779C40.2595 100.709 39.032 100.48 38.0122 100.18C38.3217 100.272 38.5108 103.08 38.3547 103.376C38.0008 104.05 36.832 104.084 36.1766 103.889C35.6852 103.74 34.9234 103.464 34.5952 103.056C34.8134 103.125 35.0543 102.963 35.1589 102.756C35.2543 102.548 35.2405 102.307 35.2078 102.073C34.9966 100.765 33.8815 99.3943 32.5128 99.2038C31.5665 99.0748 30.4883 98.9845 29.7842 99.6289C29.3638 100.012 29.3121 100.426 29.2626 100.96C29.2593 101.015 29.2464 101.079 29.216 101.124C28.9861 101.416 27.9665 100.635 27.4602 101.541C26.8097 102.697 27.2846 103.771 26.9435 104.863C26.7957 105.336 26.1807 105.402 25.9863 106.039C25.8131 106.631 26.001 107.382 26.1714 107.957C26.3565 108.598 26.8134 109.022 27.0017 109.607C27.2749 110.484 26.9131 111.454 26.9171 112.343C26.9188 113.751 27.7705 115.032 28.8385 115.937C29.9066 116.841 31.2056 117.435 32.4557 118.072C36.0358 119.891 38.5118 122.544 41.0782 125.555C44.0956 129.091 47.1217 132.637 50.1391 136.173C50.4337 136.524 50.8286 136.899 51.2791 136.795C51.4761 136.751 51.6324 136.612 51.7881 136.482C54.2758 134.302 56.694 132.044 59.0508 129.727C61.0642 127.741 56.9948 126.218 55.8434 124.994C53.1919 122.173 50.4412 119.467 47.7485 116.718Z" fill="white" stroke="#6479A8" stroke-width="1.2" stroke-miterlimit="10" stroke-linecap="round" stroke-linejoin="round"/>
<path d="M96.3192 86.7589C92.484 96.6855 87.4056 111.444 86.5669 121.915C86.3606 124.514 86.7281 127.758 85.646 130.13C84.7253 130.197 84.06 129.853 83.3311 129.329C75.8319 123.876 64.9114 121.746 57.4122 116.292C54.0303 119.68 44.0829 130.908 40.701 134.295C49.7266 144.246 74.7371 138.762 85.0938 147.317C91.3502 152.486 100.663 156.85 105.797 147.99C114.462 133.028 118.692 116.614 121.586 99.7529" fill="#ADCFF7"/>
<path d="M96.3192 86.7589C92.484 96.6855 87.4056 111.444 86.5669 121.915C86.3606 124.514 86.7281 127.758 85.646 130.13C84.7253 130.197 84.06 129.853 83.3311 129.329C75.8319 123.876 64.9114 121.746 57.4122 116.292C54.0303 119.68 44.0829 130.908 40.701 134.295C49.7266 144.246 74.7371 138.762 85.0938 147.317C91.3502 152.486 100.663 156.85 105.797 147.99C114.462 133.028 118.692 116.614 121.586 99.7529" stroke="#6479A8" stroke-width="1.2" stroke-miterlimit="10" stroke-linecap="round" stroke-linejoin="round"/>
<path d="M17.4068 94.1935C17.5625 94.7026 17.8875 95.1659 17.9308 95.6962C18.0026 96.5338 17.3584 97.4224 17.7315 98.1756C17.8636 98.4518 18.12 98.6612 18.2424 98.9461C18.5345 99.6575 17.8772 100.453 18.0184 101.211C18.0833 101.53 18.28 101.81 18.4779 102.071C19.6208 103.6 20.799 105.16 22.3552 106.268C23.6979 107.226 25.9388 107.226 26.6865 105.51C26.7505 105.366 26.7965 105.211 26.8963 105.087C27.1479 104.741 27.6152 104.666 28.0054 104.485C28.7282 104.156 28.7657 102.871 28.1643 102.383C27.9785 102.233 27.7223 102.181 27.5658 102.005C27.0692 101.467 27.8892 100.58 27.6324 99.898C27.5285 99.6142 27.2526 99.4223 27.1394 99.1379C26.9865 98.7401 27.1887 98.2888 27.1297 97.8687C27.0516 97.2993 26.5084 96.9252 26.0055 96.6553C25.2696 96.2514 24.493 95.9101 23.6943 95.6323C22.9862 95.3875 22.2477 95.1872 21.6637 94.7182C20.9733 94.1688 20.6404 93.3624 20.4383 92.5358C20.2885 91.9252 20.3795 90.3563 19.7918 89.9518C18.4469 89.0311 17.0862 93.1748 17.4068 94.1935Z" fill="white" stroke="#6479A8" stroke-width="1.2" stroke-miterlimit="10" stroke-linecap="round" stroke-linejoin="round"/>
</g>
</svg>
