<svg width="130" height="130" viewBox="0 0 130 130" fill="none" xmlns="http://www.w3.org/2000/svg">
<mask id="mask0" mask-type="alpha" maskUnits="userSpaceOnUse" x="0" y="0" width="130" height="130">
<rect width="130" height="130" rx="65" fill="black"/>
</mask>
<g mask="url(#mask0)">
<rect width="130" height="130" fill="#EBEEF4"/>
<path d="M15.4704 170.291C14.3104 176.261 12.4004 182.081 9.81039 187.591C5.59039 196.551 2.38039 205.821 -1.97961 214.701C-8.86961 228.751 -16.7896 242.301 -25.6596 255.191C-34.2896 251.421 -42.2596 246.131 -49.0996 239.651C-45.4196 232.231 -41.7496 224.811 -38.0796 217.381C-29.1896 199.361 -20.3096 181.201 -14.7496 161.901C-11.1396 149.361 -8.94961 136.411 -4.55961 124.121C-1.88961 116.641 1.66039 109.391 6.57039 103.111C8.89039 100.141 11.6304 97.4814 14.7804 95.4014C18.3504 93.0514 22.8704 91.3614 26.8704 89.9714" fill="#ADCFF7"/>
<path d="M15.4704 170.291C14.3104 176.261 12.4004 182.081 9.81039 187.591C5.59039 196.551 2.38039 205.821 -1.97961 214.701C-8.86961 228.751 -16.7896 242.301 -25.6596 255.191C-34.2896 251.421 -42.2596 246.131 -49.0996 239.651C-45.4196 232.231 -41.7496 224.811 -38.0796 217.381C-29.1896 199.361 -20.3096 181.201 -14.7496 161.901C-11.1396 149.361 -8.94961 136.411 -4.55961 124.121C-1.88961 116.641 1.66039 109.391 6.57039 103.111C8.89039 100.141 11.6304 97.4814 14.7804 95.4014C18.3504 93.0514 22.8704 91.3614 26.8704 89.9714" stroke="#6479A8" stroke-width="1.3" stroke-miterlimit="10" stroke-linecap="round" stroke-linejoin="round"/>
<path d="M71.7506 78.6214C71.1506 78.7914 70.5406 78.8914 69.9306 78.9114C67.7671 82.1475 66.9598 82.5906 67.5002 86.5C75.1578 88 78.5729 92.7994 79.5002 95C79.7702 95.65 70.3806 98.3214 70.2806 99.0214C70.0506 100.511 68.2606 101.101 66.7806 101.391C62.9606 102.131 58.7606 102.811 55.3906 100.871C52.6006 99.2714 50.9806 96.1014 50.5406 92.9214C49.7406 87.0814 52.3806 79.9914 54.7806 74.7414C50.9706 72.5214 47.2106 67.7414 46.0506 63.4914C43.7406 55.0514 50.0306 44.4214 55.8406 39.3314C58.5306 36.9714 61.3006 36.1614 64.8806 36.0414C68.4606 35.9214 71.6106 37.2514 75.0806 38.1414C76.9906 38.6314 78.9306 39.1314 80.6406 40.1314C82.7906 41.3814 84.4506 43.3514 85.7406 45.4814C87.5606 48.4714 88.5506 50.8414 88.1206 54.4014C87.7706 57.3714 86.9806 60.2914 85.8106 63.0514C83.9406 67.4814 82.7506 71.7014 79.0606 75.0614C77.1006 76.8214 74.2706 77.9214 71.7506 78.6214Z" fill="white" stroke="#6479A8" stroke-width="1.3" stroke-miterlimit="10" stroke-linecap="round" stroke-linejoin="round"/>
<path d="M73.7502 52.6914C72.9602 50.9914 71.0602 49.8814 69.2002 50.0314" stroke="#6479A8" stroke-width="1.3" stroke-miterlimit="10" stroke-linecap="round" stroke-linejoin="round"/>
<path d="M59.8603 47.8014C58.9003 46.6514 57.3003 46.0814 55.8203 46.3414" stroke="#6479A8" stroke-width="1.3" stroke-miterlimit="10" stroke-linecap="round" stroke-linejoin="round"/>
<path d="M61.0408 54.7714C58.3308 55.8914 56.2508 58.9514 58.8808 61.5614" stroke="#6479A8" stroke-width="1.3" stroke-miterlimit="10" stroke-linecap="round" stroke-linejoin="round"/>
<path d="M59 37.6114C57.65 38.5214 56.38 39.5514 55 40.3014C55.17 34.0614 60.82 23.9914 68.23 26.0114C70.88 23.9114 74.31 22.8314 77.68 23.0214C77.4 23.5214 77.12 24.0214 76.85 24.5214C80.71 23.3014 85.09 23.8714 88.52 26.0114C87.2 26.7914 86.23 28.1414 85.9 29.6414C87.75 28.5814 90.3 28.9014 91.83 30.3914C90.2 33.2514 91.23 36.9214 92.91 39.7514C94.59 42.5814 96.9 45.0914 97.98 48.2114C99.67 53.0914 97.38 57.3114 95.06 61.4714C92.52 66.0114 87.69 69.5414 82.82 71.1614C83.45 68.6514 83.69 65.4714 81.21 64.3614C76.31 62.2314 77.6 51.4014 77.35 47.2914C77.33 46.9614 77.3 46.6014 77.09 46.3414C76.89 46.0814 76.56 45.9714 76.26 45.8714C70.56 43.9114 65.32 40.6514 61.05 36.4014C60.34 36.7414 59.66 37.1614 59 37.6114Z" fill="#6479A8" stroke="#6479A8" stroke-width="1.3" stroke-miterlimit="10" stroke-linecap="round" stroke-linejoin="round"/>
<path d="M76.6201 61.9014C76.9001 60.8414 77.8501 60.4814 78.8601 60.0514C82.9201 58.3314 86.2001 62.9714 84.3601 66.5414C83.4401 68.3214 81.1501 69.4714 79.3201 68.6414" fill="white"/>
<path d="M76.6201 61.9014C76.9001 60.8414 77.8501 60.4814 78.8601 60.0514C82.9201 58.3314 86.2001 62.9714 84.3601 66.5414C83.4401 68.3214 81.1501 69.4714 79.3201 68.6414" stroke="#6479A8" stroke-width="1.3" stroke-miterlimit="10" stroke-linecap="round" stroke-linejoin="round"/>
<path d="M54.9803 51.5314C54.3603 51.5514 53.8203 52.1214 53.8203 52.7414C53.8203 53.3614 54.3703 53.9214 54.9803 53.9414C55.6003 53.9614 56.1803 53.4414 56.2303 52.8214C56.2803 52.2114 55.7703 51.6014 55.1603 51.5314" fill="#6479A8"/>
<path d="M54.9803 51.5314C54.3603 51.5514 53.8203 52.1214 53.8203 52.7414C53.8203 53.3614 54.3703 53.9214 54.9803 53.9414C55.6003 53.9614 56.1803 53.4414 56.2303 52.8214C56.2803 52.2114 55.7703 51.6014 55.1603 51.5314" stroke="#6479A8" stroke-width="1.3" stroke-miterlimit="10" stroke-linecap="round" stroke-linejoin="round"/>
<path d="M68.2801 55.7614C67.6601 55.7814 67.1201 56.3514 67.1201 56.9714C67.1201 57.5914 67.6701 58.1514 68.2801 58.1714C68.9001 58.1914 69.4801 57.6714 69.5301 57.0514C69.5801 56.4414 69.0701 55.8314 68.4601 55.7614" fill="#6479A8"/>
<path d="M68.2801 55.7614C67.6601 55.7814 67.1201 56.3514 67.1201 56.9714C67.1201 57.5914 67.6701 58.1514 68.2801 58.1714C68.9001 58.1914 69.4801 57.6714 69.5301 57.0514C69.5801 56.4414 69.0701 55.8314 68.4601 55.7614" stroke="#6479A8" stroke-width="1.3" stroke-miterlimit="10" stroke-linecap="round" stroke-linejoin="round"/>
<path d="M56.0898 67.5614C57.3798 67.0714 58.8398 67.0414 60.1498 67.4914C61.4598 67.9414 62.5998 68.8514 63.3198 70.0314" stroke="#6479A8" stroke-width="1.3" stroke-miterlimit="10" stroke-linecap="round" stroke-linejoin="round"/>
<path d="M42.2905 87.8514C43.2705 87.7214 44.2405 87.6114 45.2105 87.5014C47.7205 87.2114 47.9505 86.6414 49.6005 88.1914C50.9405 89.4514 51.4605 91.4314 52.9405 92.6714C55.3105 94.6714 57.0002 95.5214 61.3705 95.5214C63.5002 95.5214 66.0002 95 68.5002 92.6714C69.8802 90.7714 72.0002 89.5 70.4405 85.3814C76.6605 88.1214 83.2205 90.0914 89.9305 91.2414C86.8005 97.3014 83.9505 103.561 82.3605 110.191C81.2605 114.791 80.7805 119.511 79.9405 124.161C78.2805 133.341 75.2405 142.211 72.2005 151.041C68.3005 162.381 64.3405 173.851 57.8105 183.911C53.7905 171.771 49.7805 159.621 45.7605 147.481C43.9905 142.121 42.2105 136.761 40.6505 131.331C37.8305 121.551 35.6905 111.601 33.2905 101.711C32.6905 99.2414 32.0605 96.7814 31.4305 94.3114C30.7505 91.6414 29.5002 90.07 32.0002 89C34.9902 87.73 39.0605 88.2714 42.2905 87.8514Z" fill="#ADCFF7" stroke="#6479A8" stroke-width="1.2" stroke-miterlimit="10" stroke-linecap="round" stroke-linejoin="round"/>
<path d="M17.3507 131.131C15.9107 149.591 13.2307 192.171 14.2407 208.081C14.4507 211.421 14.4107 214.601 14.0707 217.911C16.9007 218.191 20.6207 218.341 23.6307 218.381C27.2307 218.431 32.0107 218.621 35.6007 218.961C42.9407 219.651 48.7507 219.561 56.1007 220.181C63.3707 220.801 70.6407 221.421 77.9307 221.701C81.8207 221.851 85.6807 222.511 89.5907 222.531C91.8807 222.541 99.6907 222.521 101.131 220.801C101.721 220.091 101.881 219.121 102.011 218.201C103.121 210.081 103.601 201.881 104.661 193.751C105.581 186.701 107.571 179.951 108.851 173.021C111.161 160.581 112.801 148.011 113.751 135.391C113.831 134.261 113.921 133.121 113.991 131.981C114.611 122.151 114.631 112.001 111.751 102.531C108.931 93.2614 95.6907 90.5314 87.3807 90.0814C84.8907 89.9514 81.1607 106.201 80.2507 108.961C77.9107 116.031 75.5207 123.081 73.0707 130.121C68.1107 144.371 62.9207 158.541 57.5107 172.631C53.8007 155.771 49.9407 138.941 45.9307 122.151C43.9507 113.851 41.9307 105.561 39.8807 97.2814C39.1007 94.1314 38.2007 91.1314 37.3807 88.0014C35.6707 87.8014 33.2807 88.4714 31.5407 88.7314C29.4507 89.0414 27.3807 89.6814 25.4407 90.5314" fill="#ADCFF7"/>
<path d="M17.3507 131.131C15.9107 149.591 13.2307 192.171 14.2407 208.081C14.4507 211.421 14.4107 214.601 14.0707 217.911C16.9007 218.191 20.6207 218.341 23.6307 218.381C27.2307 218.431 32.0107 218.621 35.6007 218.961C42.9407 219.651 48.7507 219.561 56.1007 220.181C63.3707 220.801 70.6407 221.421 77.9307 221.701C81.8207 221.851 85.6807 222.511 89.5907 222.531C91.8807 222.541 99.6907 222.521 101.131 220.801C101.721 220.091 101.881 219.121 102.011 218.201C103.121 210.081 103.601 201.881 104.661 193.751C105.581 186.701 107.571 179.951 108.851 173.021C111.161 160.581 112.801 148.011 113.751 135.391C113.831 134.261 113.921 133.121 113.991 131.981C114.611 122.151 114.631 112.001 111.751 102.531C108.931 93.2614 95.6907 90.5314 87.3807 90.0814C84.8907 89.9514 81.1607 106.201 80.2507 108.961C77.9107 116.031 75.5207 123.081 73.0707 130.121C68.1107 144.371 62.9207 158.541 57.5107 172.631C53.8007 155.771 49.9407 138.941 45.9307 122.151C43.9507 113.851 41.9307 105.561 39.8807 97.2814C39.1007 94.1314 38.2007 91.1314 37.3807 88.0014C35.6707 87.8014 33.2807 88.4714 31.5407 88.7314C29.4507 89.0414 27.3807 89.6814 25.4407 90.5314" stroke="#6479A8" stroke-width="1.3" stroke-miterlimit="10" stroke-linecap="round" stroke-linejoin="round"/>
<path d="M106.5 59.4214C107.76 61.6814 108.71 64.1214 109.28 66.6514C109.78 68.8514 109.45 71.1014 110.08 73.2114C110.45 74.4214 114.29 86.8214 114.63 86.8514C111.25 87.9914 107.8 88.9314 104.3 89.6614C104.14 89.6914 103.96 89.7314 103.81 89.6514C103.63 89.5614 103.56 89.3414 103.51 89.1514C102.36 85.0814 101.17 81.0214 99.9402 76.9814C99.3702 75.1014 99.0202 72.6214 98.0602 70.9214C97.0802 69.1814 96.4002 69.6814 94.6902 68.5714C93.1702 67.5814 91.8602 66.1514 91.1902 64.4514C90.8002 63.4714 90.9402 62.3814 91.0902 61.3414C91.3402 59.6514 91.6502 57.8914 92.6602 56.5114C93.1902 55.7814 94.8302 56.1414 95.7302 56.1114C94.9702 53.9914 92.7102 52.5114 90.4602 52.6714C89.7102 52.7214 88.9502 52.9414 88.2002 52.7914C87.4602 52.6414 86.7402 51.9314 86.9602 51.2114C87.0502 50.9014 87.3002 50.6614 87.5402 50.4514C89.0202 49.2114 91.0402 48.6414 92.9502 48.9314C93.9702 49.0814 93.3202 49.0114 94.3502 49.1014C96.9202 49.3114 100.14 51.6914 101.94 53.4614C103.74 55.2114 105.27 57.2314 106.5 59.4214Z" fill="white" stroke="#6479A8" stroke-width="1.3" stroke-miterlimit="10" stroke-linecap="round" stroke-linejoin="round"/>
<path d="M105.65 128.801C102.29 112.711 98.7903 99.3214 94.8703 81.7414C96.4503 81.1514 97.3404 80.7014 99.0004 80.3914C105.01 79.2614 110.88 77.8614 117.02 77.3014C117.42 77.2614 120.14 85.5714 120.38 86.4014C121.43 90.0714 122.48 93.7314 123.53 97.4014C127.68 111.881 134.24 126.851 134.57 141.951C134.78 151.361 133.1 164.591 122.77 168.231C118.36 169.781 113.32 168.061 109.75 165.041C106.18 162.021 103.77 157.881 101.44 153.831C97.6904 147.311 96.3204 140.841 94.3604 133.611" fill="#ADCFF7"/>
<path d="M105.65 128.801C102.29 112.711 98.7903 99.3214 94.8703 81.7414C96.4503 81.1514 97.3404 80.7014 99.0004 80.3914C105.01 79.2614 110.88 77.8614 117.02 77.3014C117.42 77.2614 120.14 85.5714 120.38 86.4014C121.43 90.0714 122.48 93.7314 123.53 97.4014C127.68 111.881 134.24 126.851 134.57 141.951C134.78 151.361 133.1 164.591 122.77 168.231C118.36 169.781 113.32 168.061 109.75 165.041C106.18 162.021 103.77 157.881 101.44 153.831C97.6904 147.311 96.3204 140.841 94.3604 133.611" stroke="#6479A8" stroke-width="1.3" stroke-miterlimit="10" stroke-linecap="round" stroke-linejoin="round"/>
</g>
</svg>
