<svg width="110" height="110" viewBox="0 0 110 110" fill="none" xmlns="http://www.w3.org/2000/svg">
<path d="M14.1934 19.3001C14.1934 16.6259 16.3612 14.4581 19.0354 14.4581H59.7506V35.6487C59.7506 38.3229 61.9184 40.4908 64.5926 40.4908H85.7832V100.73C85.7832 103.405 83.6154 105.572 80.9412 105.572H19.0354C16.3612 105.572 14.1934 103.405 14.1934 100.73V19.3001Z" fill="#F3F7FF"/>
<path d="M59.751 35.6487V14.4581L85.7837 40.4907H64.5931C61.9188 40.4907 59.751 38.3229 59.751 35.6487Z" fill="#A3B1CC"/>
<path d="M18.4883 15.0047C18.4883 12.3305 20.6562 10.1627 23.3304 10.1627H64.0455V31.3533C64.0455 34.0275 66.2134 36.1954 68.8876 36.1954H90.0782V96.435C90.0782 99.1092 87.9103 101.277 85.2361 101.277H23.3304C20.6562 101.277 18.4883 99.1092 18.4883 96.435V15.0047Z" fill="#D7E2FF"/>
<path d="M64.0459 31.3533V10.1627L90.0786 36.1954H68.888C66.2138 36.1954 64.0459 34.0275 64.0459 31.3533Z" fill="#A3B1CC"/>
<path d="M24.2158 9.27755C24.2158 6.60335 26.3837 4.43548 29.0579 4.43548H69.773V25.6261C69.773 28.3003 71.9409 30.4682 74.6151 30.4682H95.8057V90.7078C95.8057 93.382 93.6378 95.5499 90.9636 95.5499H29.0579C26.3837 95.5499 24.2158 93.382 24.2158 90.7078V9.27755Z" fill="#93B1FF"/>
<path d="M69.7725 25.6261V4.43549L95.8051 30.4682H74.6145C71.9403 30.4682 69.7725 28.3003 69.7725 25.6261Z" fill="#6590FF"/>
</svg>
