<?xml version="1.0" encoding="utf-8"?>
<!-- Generator: Adobe Illustrator 25.1.0, SVG Export Plug-In . SVG Version: 6.00 Build 0)  -->
<svg version="1.1" id="Layer_1" xmlns="http://www.w3.org/2000/svg" xmlns:xlink="http://www.w3.org/1999/xlink" x="0px" y="0px"
	 viewBox="0 0 18 18" style="enable-background:new 0 0 18 18;" xml:space="preserve">
<style type="text/css">
	.st0{fill-rule:evenodd;clip-rule:evenodd;fill:#5C7CFA;}
	.st1{fill:#5C7CFA;}
</style>
<g>
	<path class="st0" d="M8.2,13.9v-1.7h1.7v1.7H8.2z M8.2,11.2v-0.5c0-0.8,0.3-1.5,0.8-2l0.9-0.9c0.2-0.2,0.4-0.5,0.4-0.9
		c0-0.7-0.6-1.2-1.2-1.2S7.8,6.3,7.8,6.9v0.1H6.1V6.9c0-1.6,1.3-2.9,2.9-2.9s2.9,1.3,2.9,2.9c0,0.6-0.2,1.2-0.7,1.6l-0.6,0.6
		c-0.5,0.5-0.8,0.8-0.8,1.8v0.1H8.2z"/>
	<path class="st1" d="M9,4.2c1.5,0,2.7,1.2,2.7,2.7c0,0.6-0.2,1.2-0.6,1.5l-0.6,0.6C10,9.6,9.7,10,9.7,11.1H8.3v-0.3
		c0-0.8,0.3-1.4,0.8-1.9L10,7.9c0.3-0.2,0.4-0.6,0.4-1c0-0.8-0.6-1.4-1.4-1.4S7.6,6.2,7.6,6.9H6.3C6.3,5.4,7.5,4.2,9,4.2 M9.7,12.4
		v1.4H8.3v-1.4H9.7 M9,3.9c-1.7,0-3,1.4-3,3v0.3h0.3h1.4h0.3V6.9c0-0.6,0.5-1.1,1.1-1.1c0.6,0,1.1,0.5,1.1,1.1
		c0,0.3-0.1,0.6-0.3,0.8L8.9,8.6C8.3,9.2,8,9.9,8,10.7v0.3v0.3h0.3h1.4H10v-0.3c0-0.9,0.3-1.3,0.7-1.7l0.6-0.6
		C11.8,8.2,12,7.6,12,6.9C12,5.3,10.7,3.9,9,3.9L9,3.9z M10,12.2H9.7H8.3H8v0.3v1.4v0.3h0.3h1.4H10v-0.3v-1.4V12.2L10,12.2z"/>
</g>
<path class="st1" d="M9,1.5c4.1,0,7.5,3.4,7.5,7.5s-3.4,7.5-7.5,7.5S1.5,13.1,1.5,9S4.9,1.5,9,1.5 M9,0C4,0,0,4,0,9s4,9,9,9s9-4,9-9
	S14,0,9,0L9,0z"/>
</svg>
