<svg width="150" height="80" viewBox="0 0 150 80" fill="none" xmlns="http://www.w3.org/2000/svg">
<path d="M41.3765 24.7047C42.7819 23.8026 44.4215 24.0281 45.5927 24.4792L41.1423 27.4111L40.2054 27.6367C39.893 27.1856 39.5988 25.8458 41.3765 24.7047Z" fill="#FFF5D5" stroke="#FFDF7D" stroke-width="1.42857"/>
<path d="M25.6831 63.9477C18.7499 63.9477 16.392 60.7902 16.0797 59.2115L33.4128 60.3392C32.7881 61.542 30.3678 63.9477 25.6831 63.9477Z" fill="#FFDF7D" stroke="#FFDF7D" stroke-width="1.42857"/>
<path d="M87.2857 50.8667C86.2372 43.0427 81.7981 39.928 76.9795 42.2964C73.9345 42.973 65.9707 58.5349 67.1418 62.1434C68.0787 65.0303 70.6553 66.203 71.8264 66.4286H78.6191C86.1145 66.4286 88.2226 57.8583 87.2857 50.8667Z" fill="#FFDF7D" stroke="#FFDF7D" stroke-width="1.42857"/>
<path d="M85.6461 57.4072C86.8034 49.8542 84.4998 44.5561 79.0876 44.3262C74.3519 44.3262 72.0781 51.4412 72.5292 56.7306C72.9802 62.0199 75.3399 63.9477 77.448 64.6243C78.9544 65.1078 84.5186 64.7663 85.6461 57.4072Z" fill="white" stroke="#FFDF7D" stroke-width="1.42857"/>
<path d="M133.898 51.0922C134.623 38.2367 130.628 36.5086 126.168 38.2368C121.483 41.8453 121.249 50.2653 121.718 54.0242C120.781 54.1745 117.736 54.7008 117.736 54.7008C118.438 58.7604 121.249 59.8881 122.186 59.8881H127.105C127.73 59.8881 129.26 59.7527 130.384 59.2115C131.79 58.5349 133.656 55.3711 133.898 51.0922Z" fill="#FFDF7D" stroke="#FFDF7D" stroke-width="1.42857"/>
<path d="M125.231 51.5433C124.997 47.4837 125.7 40.2666 129.682 40.2666C131.79 40.2666 133.195 44.5518 133.195 48.8369C132.727 55.8285 131.087 57.8583 129.213 58.0838C127.339 58.3094 125.466 55.6029 125.231 51.5433Z" fill="white" stroke="#FFDF7D" stroke-width="1.42857"/>
<path d="M40.7075 27.5454L41.1423 27.4111C45.8269 24.2536 55.9925 17.668 59.1781 16.5855C72.295 11.1726 97.1235 12.7514 108.835 15.6833C120.547 18.6153 126.871 25.1558 129.682 26.509C132.492 27.8622 136.474 28.7643 137.411 37.3346C138.161 44.1909 135.694 48.9121 134.366 50.4156C134.835 45.5291 134.554 37.3346 129.682 37.3346C124.81 37.3346 122.342 47.9348 121.718 54.0242L86.8173 58.986C87.9885 52.8965 87.9619 42.0652 80.4665 42.0652C72.9711 42.0652 71.1239 54.4753 71.3581 61.2413C69.9527 61.6924 67.2825 62.369 64.0969 62.369C60.9114 62.369 29.9773 60.1136 14.9084 58.986C14.0496 58.9108 12.3319 58.3996 12.3319 56.9561C11.1607 45.4539 13.2688 40.2666 15.8454 37.3346C18.3918 34.437 28.488 31.319 40.7075 27.5454Z" fill="#FFF5D5" stroke="#FFDF7D" stroke-width="1.42857"/>
<path d="M61.989 39.1389L51.6829 41.6198C50.9802 41.7889 51.9171 42.2964 53.3225 44.1007C54.4468 45.5441 55.3525 45.7546 55.6648 45.6794C56.1333 45.6794 57.9603 45.6343 61.5206 45.4539C65.0809 45.2734 67.8448 44.0255 68.7817 43.4241C69.8748 42.4467 71.8267 40.2215 70.8898 39.1389C69.9529 38.0563 64.5656 38.6878 61.989 39.1389Z" fill="white"/>
<path d="M17.9269 40.0585C17.6681 39.9887 17.0112 39.5716 16.0796 37.5602C14.9084 38.6879 13.7373 40.7177 13.503 42.2964C13.3692 43.1985 15.6111 43.3968 16.3138 43.6496C16.7796 43.8172 17.3152 43.1616 17.485 42.7475C17.6547 42.3334 18.0045 41.609 18.3151 41.1061C18.6256 40.6033 18.1857 40.1982 17.9269 40.0585Z" fill="white"/>
<path d="M64.0967 16.1344C61.5202 16.3599 59.4121 16.3599 57.304 17.4876L41.1421 27.6367C54.4932 27.8622 81.8046 28.3133 84.2406 28.3133C87.2856 28.3133 87.754 27.4111 88.2225 26.509C88.691 25.6068 92.9071 17.9387 93.6098 16.811C76.5109 15.2323 64.0967 16.1344 64.0967 16.1344Z" fill="#FFDF7D" stroke="#FFDF7D" stroke-width="1.42857"/>
<path d="M91.7361 30.5686C91.7361 30.5686 93.3758 19.5174 99.4658 17.4876C111.177 14.7812 123.123 24.0281 124.528 25.1558C125.934 26.2834 125.7 26.509 125.231 26.509C113.238 26.6894 97.9042 29.1402 91.7361 30.5686Z" fill="#FFDF7D" stroke="#FFDF7D" stroke-width="1.42857"/>
<path d="M93.9418 33.275C90.5693 33.275 90.8102 29.5739 93.9418 29.5739L94.4236 29.8053V28.6487C92.9782 27.4921 94.6645 24.2536 96.3507 24.2536C104.541 24.2536 105.745 27.7234 103.818 28.88C101.771 30.1089 98.4384 29.8053 97.0734 29.5739C97.1537 30.8076 96.6398 33.275 93.9418 33.275Z" fill="#FFF5D5" stroke="#FFDF7D" stroke-width="1.42857"/>
<path d="M19.1246 42.7474C19.8273 40.7176 20.7642 40.4921 23.1065 40.4921C28.4157 40.7176 43.2503 40.9432 43.2503 40.9432C46.8107 40.9432 48.4034 41.9205 48.6377 42.2964C49.4965 42.973 51.2142 44.7321 51.2142 46.356C51.2142 49.0624 48.6377 49.0624 46.998 49.0624C45.3584 49.0624 24.2777 48.8369 20.7642 48.1603C17.2507 47.4837 18.4219 44.7772 19.1246 42.7474Z" fill="#FFDF7D" stroke="#FFDF7D" stroke-width="1.42857"/>
</svg>
