<svg width="130" height="130" viewBox="0 0 130 130" fill="none" xmlns="http://www.w3.org/2000/svg">
<mask id="mask0" mask-type="alpha" maskUnits="userSpaceOnUse" x="0" y="0" width="130" height="130">
<rect width="130" height="130" rx="65" fill="black"/>
</mask>
<g mask="url(#mask0)">
<rect width="130" height="130" fill="#EBEEF4" fill-opacity="0.3"/>
<path d="M133.583 133.133C133.684 134.426 134.004 136.741 134.133 139.137C134.308 142.509 134.103 146.044 132.326 147.144C130.425 148.303 128.172 148.681 125.968 148.998C115.697 150.467 105.293 151.022 94.9245 150.661C91.3204 150.535 87.5494 150.252 84.4737 148.36C82.9355 147.419 81.9131 145.888 80.8197 144.463C73.6647 135.149 67.9908 124.727 63.9727 113.696C61.7715 120.356 59.3156 126.937 56.598 133.4C56.1895 134.377 55.7615 135.37 55.0586 136.154C53.7922 137.553 51.7966 138.113 49.9117 138.041C48.0263 137.978 46.679 137.418 45.0893 136.409C33.8272 129.255 29.464 111.945 20.825 101.809C20.3578 101.402 21.2585 97.3665 21.1174 96.7656C20.9916 96.2213 21.1816 95.6582 21.369 95.1412C23.2263 90.1003 22.6947 94.4773 26.2172 90.4219C26.5052 90.0867 26.8306 89.7445 27.2599 89.686C27.6801 89.6271 28.0744 89.8536 28.4317 90.0781C35.9846 94.7664 36.9532 107.287 45.1482 110.642C47.1312 104.71 48.5545 98.6901 50.1834 92.6359C50.8902 90.0285 52.1058 87.5895 53.0673 85.0617C57.2821 74.0181 68.4891 66.4729 80.2146 64.9953C84.7481 64.4247 108.943 62.8683 121.33 96.7619L131.468 117.861C132.398 122.915 133.204 128.008 133.583 133.133Z" fill="#FFCA26" stroke="#56534A" stroke-width="1.2" stroke-miterlimit="10" stroke-linecap="round" stroke-linejoin="round"/>
<path d="M81.7717 67.4841C80.7181 67.6082 80.5508 67.4596 79.8221 66.6117C79.1891 65.8712 78.6428 65.0709 78.2018 64.212C77.3933 62.665 77.166 60.8368 78.6215 59.6896C86.3543 53.6097 87.0267 40.8976 82.403 32.8048C79.9816 28.5714 77.5715 25.5795 72.4027 26.567C71.5392 24.8501 69.6992 23.8451 67.8503 23.312C61.3301 21.4152 52.6382 24.3929 50.3177 31.1942C49.3245 34.109 48.7962 37.1527 47.8394 40.079C47.0071 42.6143 45.9139 44.6992 45.8364 47.4727C45.7511 50.6995 46.3467 54.0029 48.085 56.7613C49.7049 59.3277 52.0778 61.3636 54.7162 62.813C57.435 64.3134 60.4411 64.0525 61.577 66.9797C62.5845 69.5661 63.8851 72.0491 65.5139 74.3012C66.1568 75.1904 67.7528 76.4127 68.1032 77.396C68.5559 78.6909 67.845 80.2517 68.4184 81.7017C68.9607 83.0481 70.0989 84.179 71.5036 84.5475C72.5798 84.8322 73.7289 84.658 74.81 84.3781C79.8781 83.0515 84.2221 79.2012 86.1343 74.3302C86.8727 72.4562 86.7948 69.4885 85.1666 68.0236C84.1105 67.0733 83.0587 67.3272 81.7717 67.4841Z" fill="white" stroke="#56534A" stroke-width="1.2" stroke-miterlimit="10" stroke-linecap="round" stroke-linejoin="round"/>
<path d="M54.8553 26.0963C53.8474 27.2232 52.9354 28.4487 51.8677 29.4291C50.7235 23.4589 53.6424 12.7851 60.6301 13.2746C62.5434 10.7642 65.3598 9.07344 68.3866 8.60272C68.2421 9.1326 68.0977 9.66248 67.9621 10.1904C71.1306 8.28337 75.1315 7.97897 78.6161 9.35207C77.6079 10.3494 77.0281 11.8215 77.0469 13.3125C78.4668 11.9463 80.7937 11.7578 82.4591 12.8797C81.6077 15.9161 83.2823 19.209 85.3588 21.5769C87.4353 23.9449 90.0038 25.8865 91.6086 28.6464C94.1194 32.963 92.9651 37.421 91.7718 41.8278C90.4623 46.6386 86.9133 50.9311 82.9324 53.414C82.97 50.904 82.5229 47.8318 80.0942 47.2551C75.3086 46.1757 74.2048 35.6216 73.1303 31.7593C73.0441 31.4492 72.9428 31.1124 72.7027 30.9057C72.4714 30.6969 72.1561 30.6561 71.8694 30.6189C66.4099 29.8559 61.0885 27.7671 56.4214 24.5487C55.8626 25.0095 55.347 25.5406 54.8553 26.0963Z" fill="#56534A" stroke="#56534A" stroke-width="1.3" stroke-miterlimit="10" stroke-linecap="round" stroke-linejoin="round"/>
<path d="M78.6075 50.5961C79.9491 49.87 81.0436 48.6201 81.3969 47.1326C81.7502 45.6451 81.2821 43.9481 80.0868 42.9824C78.901 42.0194 77.0164 41.9708 75.8693 42.9795C75.238 43.1027 74.9188 43.4916 74.5932 44.043" fill="white"/>
<path d="M78.6075 50.5961C79.9491 49.87 81.0436 48.6201 81.3969 47.1326C81.7502 45.6451 81.2821 43.9481 80.0868 42.9824C78.901 42.0194 77.0164 41.9708 75.8693 42.9795C75.238 43.1027 74.9188 43.4916 74.5932 44.043" stroke="#56534A" stroke-width="1.2" stroke-miterlimit="10" stroke-linecap="round" stroke-linejoin="round"/>
<path d="M69.0744 35.1791C67.878 33.9337 65.8729 33.5396 64.296 34.226" stroke="#56534A" stroke-width="1.3" stroke-miterlimit="10" stroke-linecap="round" stroke-linejoin="round"/>
<path d="M56.2975 33.6976C55.1069 32.9896 53.5429 32.973 52.328 33.6433" stroke="#56534A" stroke-width="1.3" stroke-miterlimit="10" stroke-linecap="round" stroke-linejoin="round"/>
<path d="M57.285 42.969C56.8078 43.534 56.2333 44.0192 55.6001 44.3992C54.9864 44.7618 54.243 45.1261 54.1193 45.8227C53.9718 46.6105 54.7117 47.2646 55.3705 47.7195C55.8241 48.0421 56.3053 48.3664 56.8575 48.4262" stroke="#56534A" stroke-width="1.2" stroke-miterlimit="10" stroke-linecap="round" stroke-linejoin="round"/>
<path d="M64.6927 41.501C66.1295 40.8254 66.5963 43.6292 65.0807 43.5876C64.0091 43.5532 63.6302 42.1059 64.5782 41.5592C64.6162 41.5429 64.6547 41.5174 64.6927 41.501Z" fill="#56534A" stroke="#56534A" stroke-width="1.5" stroke-miterlimit="10" stroke-linecap="round" stroke-linejoin="round"/>
<path d="M52.8552 41.231C54.3649 40.7355 54.4872 43.5748 52.9823 43.3487C51.9181 43.1852 51.7264 41.7024 52.7229 41.2789C52.77 41.2631 52.8172 41.2473 52.8552 41.231Z" fill="#56534A" stroke="#56534A" stroke-width="1.5" stroke-miterlimit="10" stroke-linecap="round" stroke-linejoin="round"/>
<path d="M54.9113 53.7212C57.3376 54.6768 60.274 54.1804 62.2432 52.4796" stroke="#56534A" stroke-width="1.2" stroke-miterlimit="10" stroke-linecap="round" stroke-linejoin="round"/>
<path d="M35.0578 75.4918C34.9582 75.4001 34.8472 75.313 34.7415 75.2317C28.636 72.1801 21.3583 67.9979 15.7355 65.3337C15.5984 67.792 16.4864 70.7665 16.8843 73.2397C17.3682 76.2284 17.9024 79.2092 18.4701 82.1812C19.5792 88.0109 20.8167 93.8157 22.0545 99.6153C22.1632 100.121 22.2817 100.649 22.6059 101.06C22.8787 101.404 23.2797 101.631 23.6646 101.852C28.9917 104.853 34.4405 107.662 39.9842 110.262C39.5755 110.072 39.1412 103.465 39.0314 102.787C38.5471 99.8033 38.0408 96.8187 37.6459 93.8191C37.3117 91.2959 37.3546 88.7461 36.9681 86.1715C36.4929 83.0329 36.0454 79.8905 35.6148 76.7438C35.5717 76.4404 35.5291 76.1263 35.3734 75.8594C35.2873 75.7254 35.1782 75.6062 35.0578 75.4918Z" fill="#56534A" stroke="#56534A" stroke-width="1.2" stroke-miterlimit="10" stroke-linecap="round" stroke-linejoin="round"/>
<path d="M47.7489 116.718C46.0358 114.961 44.2716 113.127 43.3957 110.827C43.0068 109.23 42.6732 107.636 42.331 106.033C42.0454 104.729 41.4365 102.934 40.8275 101.779C40.2599 100.709 39.0323 100.48 38.0126 100.18C38.3221 100.272 38.5112 103.08 38.3551 103.376C38.0011 104.05 36.8324 104.084 36.177 103.889C35.6856 103.74 34.9237 103.464 34.5955 103.056C34.8138 103.125 35.0547 102.963 35.1593 102.756C35.2547 102.548 35.2409 102.307 35.2081 102.073C34.997 100.765 33.8819 99.3943 32.5132 99.2038C31.5669 99.0748 30.4887 98.9845 29.7846 99.6289C29.3642 100.012 29.3124 100.426 29.2629 100.96C29.2597 101.015 29.2467 101.079 29.2164 101.124C28.9864 101.416 27.9669 100.635 27.4606 101.541C26.8101 102.697 27.2849 103.771 26.9438 104.863C26.796 105.336 26.181 105.402 25.9867 106.039C25.8134 106.631 26.0013 107.382 26.1717 107.957C26.3568 108.598 26.8137 109.022 27.0021 109.607C27.2753 110.484 26.9135 111.454 26.9175 112.343C26.9192 113.751 27.7709 115.032 28.8389 115.937C29.9069 116.841 31.2059 117.435 32.4561 118.072C36.0361 119.891 38.5121 122.544 41.0786 125.555C44.096 129.091 47.1221 132.637 50.1395 136.173C50.434 136.524 50.829 136.899 51.2795 136.795C51.4765 136.751 51.6327 136.612 51.7884 136.482C54.2762 134.302 56.6943 132.044 59.0511 129.727C61.0646 127.741 56.9951 126.218 55.8438 124.994C53.1923 122.173 50.4416 119.467 47.7489 116.718Z" fill="white" stroke="#56534A" stroke-width="1.2" stroke-miterlimit="10" stroke-linecap="round" stroke-linejoin="round"/>
<path d="M96.3196 86.7588C92.4844 96.6854 87.406 111.444 86.5673 121.915C86.361 124.514 86.7285 127.758 85.6464 130.13C84.7258 130.197 84.0605 129.853 83.3315 129.329C75.8323 123.876 64.9118 121.746 57.4126 116.292C54.0307 119.68 44.0833 130.908 40.7014 134.295C49.7271 144.245 74.7375 138.762 85.0942 147.317C91.3506 152.486 100.663 156.85 105.798 147.99C114.462 133.028 118.692 116.614 121.587 99.7528" fill="#FFCA26"/>
<path d="M96.3196 86.7588C92.4844 96.6854 87.406 111.444 86.5673 121.915C86.361 124.514 86.7285 127.758 85.6464 130.13C84.7258 130.197 84.0605 129.853 83.3315 129.329C75.8323 123.876 64.9118 121.746 57.4126 116.292C54.0307 119.68 44.0833 130.908 40.7014 134.295C49.7271 144.245 74.7375 138.762 85.0942 147.317C91.3506 152.486 100.663 156.85 105.798 147.99C114.462 133.028 118.692 116.614 121.587 99.7528" stroke="#56534A" stroke-width="1.2" stroke-miterlimit="10" stroke-linecap="round" stroke-linejoin="round"/>
<path d="M17.4066 94.1935C17.5623 94.7026 17.8873 95.1659 17.9306 95.6963C18.0024 96.5338 17.3582 97.4225 17.7313 98.1757C17.8634 98.4519 18.1198 98.6612 18.2422 98.9461C18.5343 99.6575 17.877 100.453 18.0182 101.211C18.0831 101.53 18.2799 101.81 18.4777 102.071C19.6206 103.6 20.7988 105.16 22.355 106.269C23.6977 107.226 25.9386 107.226 26.6864 105.51C26.7503 105.366 26.7963 105.211 26.8961 105.087C27.1477 104.741 27.615 104.666 28.0052 104.485C28.728 104.156 28.7655 102.871 28.1641 102.383C27.9783 102.233 27.7221 102.181 27.5656 102.005C27.069 101.467 27.889 100.58 27.6322 99.8981C27.5283 99.6142 27.2524 99.4223 27.1392 99.1379C26.9864 98.7402 27.1885 98.2889 27.1295 97.8688C27.0514 97.2994 26.5082 96.9252 26.0053 96.6553C25.2694 96.2515 24.4928 95.9101 23.6941 95.6323C22.986 95.3875 22.2475 95.1873 21.6636 94.7182C20.9731 94.1689 20.6402 93.3625 20.4382 92.5359C20.2884 91.9253 20.3793 90.3563 19.7916 89.9519C18.4468 89.0312 17.086 93.1749 17.4066 94.1935Z" fill="white" stroke="#56534A" stroke-width="1.2" stroke-miterlimit="10" stroke-linecap="round" stroke-linejoin="round"/>
</g>
</svg>
