<svg width="20" height="20" viewBox="0 0 20 20" fill="none" xmlns="http://www.w3.org/2000/svg">
<rect x="-133.5" y="-14.5" width="165" height="51" rx="2.5"/>
<path d="M10.7119 14.4476C10.5348 14.6247 10.3135 14.7132 10.0479 14.7132C9.78223 14.7132 9.56087 14.6247 9.38379 14.4476C9.20671 14.2705 9.11816 14.0491 9.11816 13.7835V11.6585C9.11816 11.3929 9.20671 11.1715 9.38379 10.9944C9.56087 10.8174 9.78223 10.7288 10.0479 10.7288C10.3135 10.7288 10.5348 10.8174 10.7119 10.9944C10.889 11.1715 10.9775 11.3929 10.9775 11.6585V13.7835C10.9775 14.0491 10.889 14.2705 10.7119 14.4476ZM17.4854 9.00226V16.4398C17.4854 16.8825 17.3304 17.2588 17.0205 17.5687C16.7106 17.8786 16.3343 18.0335 15.8916 18.0335H4.2041C3.76139 18.0335 3.38509 17.8786 3.0752 17.5687C2.7653 17.2588 2.61035 16.8825 2.61035 16.4398V9.00226C2.61035 8.55955 2.7653 8.18325 3.0752 7.87335C3.38509 7.56346 3.76139 7.40851 4.2041 7.40851H5.2666V5.81476C5.2666 4.48663 5.73145 3.35773 6.66113 2.42804C7.61296 1.49835 8.74186 1.03351 10.0479 1.03351C11.376 1.03351 12.5049 1.50942 13.4346 2.46124C14.3643 3.41307 14.8291 4.54197 14.8291 5.84796V7.40851H15.8916C16.3343 7.40851 16.7106 7.56346 17.0205 7.87335C17.3304 8.18325 17.4854 8.55955 17.4854 9.00226ZM6.86035 7.40851H13.2354V5.81476C13.2354 4.92934 12.9255 4.17674 12.3057 3.55695C11.6859 2.93715 10.9333 2.62726 10.0479 2.62726C9.16243 2.62726 8.40983 2.93715 7.79004 3.55695C7.17025 4.17674 6.86035 4.92934 6.86035 5.81476V7.40851ZM15.8916 9.00226H4.2041V16.4398H15.8916V9.00226Z" fill="#414142"/>
</svg>
