<svg width="336" height="216" viewBox="0 0 336 216" fill="none" xmlns="http://www.w3.org/2000/svg">
<mask id="mask0" mask-type="alpha" maskUnits="userSpaceOnUse" x="75" y="16" width="185" height="184">
<rect x="75.4644" y="16" width="184" height="184" rx="92" fill="#C4C4C4"/>
</mask>
<g mask="url(#mask0)">
<rect x="68.4644" y="11" width="194" height="194" fill="#EBEEF4" fill-opacity="0.3"/>
<g filter="url(#filter0_d)">
<path d="M113.893 89.6072C104.956 89.6072 97.7144 82.3651 97.7144 73.4286C97.7144 64.4921 104.956 57.25 113.893 57.25C122.829 57.25 130.072 64.4921 130.072 73.4286C130.072 82.3651 122.829 89.6072 113.893 89.6072Z" fill="#E5E9F1"/>
<path d="M113.893 89.6072C104.956 89.6072 97.7144 82.3651 97.7144 73.4286C97.7144 64.4921 104.956 57.25 113.893 57.25C122.829 57.25 130.072 64.4921 130.072 73.4286C130.072 82.3651 122.829 89.6072 113.893 89.6072Z" fill="white"/>
<path d="M113.893 89.6072C104.956 89.6072 97.7144 82.3651 97.7144 73.4286C97.7144 64.4921 104.956 57.25 113.893 57.25C122.829 57.25 130.072 64.4921 130.072 73.4286C130.072 82.3651 122.829 89.6072 113.893 89.6072Z" stroke="#56534A" stroke-width="1.5" stroke-miterlimit="10" stroke-linecap="round" stroke-linejoin="round"/>
<path opacity="0.3" d="M100.83 73.4288C100.83 80.642 106.68 86.4921 113.893 86.4921C121.106 86.4921 126.956 80.642 126.956 73.4288C126.956 66.2155 121.106 60.3655 113.893 60.3655C106.68 60.3655 100.83 66.2155 100.83 73.4288Z" fill="#D8DDE9"/>
<path d="M108.539 73.3295L109.93 78.9268C109.957 78.999 109.975 79.0441 110.002 79.0622C110.029 79.0802 110.092 79.0893 110.192 79.0893H111.564C111.69 79.0893 111.762 79.0802 111.78 79.0622C111.798 79.0441 111.817 78.999 111.844 78.9268L113.252 73.3295H114.534L115.942 78.9268C115.969 78.999 115.987 79.0441 116.005 79.0622C116.024 79.0802 116.096 79.0893 116.222 79.0893H117.594C117.703 79.0893 117.766 79.0802 117.784 79.0622C117.811 79.0441 117.829 78.999 117.856 78.9268L119.246 73.3295H121.278C121.332 73.3295 121.386 73.3114 121.431 73.2753C121.476 73.2392 121.503 73.1941 121.503 73.1399V72.0566C121.503 72.0024 121.476 71.9573 121.431 71.9212C121.386 71.885 121.332 71.867 121.278 71.867H119.58L120.555 68.0031C120.583 67.9309 120.583 67.8767 120.555 67.8406C120.528 67.8045 120.447 67.7864 120.294 67.7864H118.994C118.912 67.7864 118.858 67.7954 118.822 67.8135C118.786 67.8315 118.759 67.8767 118.732 67.9489L117.775 71.876H115.852L114.868 67.9489C114.841 67.8767 114.814 67.8315 114.787 67.8135C114.76 67.7954 114.705 67.7864 114.624 67.7864H113.171C113.089 67.7864 113.035 67.7954 113.008 67.8135C112.981 67.8315 112.954 67.8767 112.927 67.9489L111.934 71.876H110.011L109.054 67.9489C109.027 67.8767 109 67.8315 108.964 67.8135C108.928 67.7954 108.873 67.7864 108.792 67.7864H107.492C107.339 67.7864 107.257 67.8045 107.23 67.8406C107.212 67.8767 107.212 67.9309 107.23 68.0031L108.205 71.867H106.526C106.373 71.867 106.301 71.9302 106.301 72.0566V73.1399C106.301 73.1941 106.328 73.2392 106.373 73.2753C106.418 73.3114 106.472 73.3295 106.526 73.3295H108.539ZM116.836 75.767L116.231 73.3295H117.432L116.836 75.767ZM114.146 71.867H113.622L113.884 70.8017L114.146 71.867ZM110.932 75.767L110.345 73.3295H111.537L110.932 75.767Z" fill="#56534A"/>
</g>
<g filter="url(#filter1_d)">
<path d="M128.179 106.75C123.661 106.75 120 103.089 120 98.5714C120 94.0539 123.661 90.3929 128.179 90.3929C132.696 90.3929 136.357 94.0539 136.357 98.5714C136.357 103.089 132.696 106.75 128.179 106.75Z" fill="#E5E9F1"/>
<path d="M128.179 106.75C123.661 106.75 120 103.089 120 98.5714C120 94.0539 123.661 90.3929 128.179 90.3929C132.696 90.3929 136.357 94.0539 136.357 98.5714C136.357 103.089 132.696 106.75 128.179 106.75Z" fill="white"/>
<path d="M128.179 106.75C123.661 106.75 120 103.089 120 98.5714C120 94.0539 123.661 90.3929 128.179 90.3929C132.696 90.3929 136.357 94.0539 136.357 98.5714C136.357 103.089 132.696 106.75 128.179 106.75Z" stroke="#56534A" stroke-width="1.5" stroke-miterlimit="10" stroke-linecap="round" stroke-linejoin="round"/>
<path opacity="0.3" d="M121.889 98.5715C121.889 102.045 124.706 104.861 128.179 104.861C131.652 104.861 134.468 102.045 134.468 98.5715C134.468 95.0985 131.652 92.2818 128.179 92.2818C124.706 92.2818 121.889 95.0985 121.889 98.5715Z" fill="#D8DDE9"/>
<path d="M125.601 98.5237L126.27 101.219C126.283 101.253 126.292 101.275 126.305 101.284C126.318 101.293 126.349 101.297 126.396 101.297H127.057C127.118 101.297 127.153 101.293 127.161 101.284C127.17 101.275 127.179 101.253 127.192 101.219L127.87 98.5237H128.487L129.165 101.219C129.178 101.253 129.187 101.275 129.196 101.284C129.204 101.293 129.239 101.297 129.3 101.297H129.961C130.013 101.297 130.043 101.293 130.052 101.284C130.065 101.275 130.074 101.253 130.087 101.219L130.756 98.5237H131.734C131.76 98.5237 131.786 98.515 131.808 98.4977C131.83 98.4803 131.843 98.4585 131.843 98.4325V97.9108C131.843 97.8848 131.83 97.863 131.808 97.8456C131.786 97.8283 131.76 97.8196 131.734 97.8196H130.917L131.386 95.9592C131.4 95.9244 131.4 95.8983 131.386 95.8809C131.373 95.8635 131.334 95.8548 131.26 95.8548H130.635C130.595 95.8548 130.569 95.8592 130.552 95.8679C130.535 95.8766 130.521 95.8983 130.508 95.9331L130.048 97.8239H129.122L128.648 95.9331C128.635 95.8983 128.622 95.8766 128.609 95.8679C128.596 95.8592 128.57 95.8548 128.531 95.8548H127.831C127.792 95.8548 127.766 95.8592 127.753 95.8679C127.74 95.8766 127.727 95.8983 127.713 95.9331L127.235 97.8239H126.31L125.849 95.9331C125.836 95.8983 125.823 95.8766 125.805 95.8679C125.788 95.8592 125.762 95.8548 125.723 95.8548H125.097C125.023 95.8548 124.984 95.8635 124.971 95.8809C124.962 95.8983 124.962 95.9244 124.971 95.9592L125.44 97.8196H124.632C124.558 97.8196 124.523 97.85 124.523 97.9108V98.4325C124.523 98.4585 124.536 98.4803 124.558 98.4977C124.579 98.515 124.606 98.5237 124.632 98.5237H125.601ZM129.596 99.6974L129.304 98.5237H129.883L129.596 99.6974ZM128.3 97.8196H128.048L128.174 97.3067L128.3 97.8196ZM126.753 99.6974L126.47 98.5237H127.044L126.753 99.6974Z" fill="#56534A"/>
</g>
<path d="M277.276 206.754C277.415 208.566 277.857 211.811 278.035 215.17C278.275 219.895 277.988 224.85 275.519 226.394C272.879 228.019 269.749 228.552 266.688 228.997C252.422 231.064 237.973 231.849 223.573 231.351C218.567 231.178 213.33 230.783 209.06 228.135C206.925 226.817 205.506 224.671 203.988 222.674C194.058 209.625 186.186 195.021 180.614 179.563C177.552 188.9 174.136 198.125 170.357 207.186C169.789 208.555 169.194 209.949 168.217 211.047C166.457 213.009 163.685 213.796 161.067 213.696C158.449 213.609 156.578 212.825 154.371 211.412C138.735 201.394 132.688 177.135 120.698 162.933C120.049 162.363 121.303 156.706 121.108 155.864C120.934 155.101 121.198 154.312 121.459 153.587C124.042 146.52 123.3 152.656 128.195 146.969C128.595 146.499 129.048 146.019 129.644 145.937C130.228 145.854 130.775 146.171 131.271 146.485C141.757 153.051 143.093 170.599 154.472 175.296C157.231 166.98 159.212 158.541 161.479 150.054C162.462 146.399 164.152 142.98 165.489 139.436C171.351 123.953 186.921 113.369 203.207 111.29C209.504 110.486 243.107 108.287 260.286 155.784L274.35 185.35C275.637 192.433 276.753 199.572 277.276 206.754Z" fill="#FFCA26" stroke="#56534A" stroke-width="1.66654" stroke-miterlimit="10" stroke-linecap="round" stroke-linejoin="round"/>
<path d="M203.964 111.5C202.842 109.352 199.943 102.539 201.964 100.946C212.704 92.5019 212.604 78.9144 206.183 67.6752C202.82 61.796 199.473 57.641 192.295 59.0123C191.096 56.6279 188.54 55.2323 185.973 54.4918C176.918 51.8576 164.846 55.9931 161.624 65.4384C160.244 69.4866 159.511 73.7136 158.182 77.7775C157.026 81.2985 155.508 84.194 155.4 88.0458C155.282 92.5271 156.109 97.1147 158.523 100.946C160.773 104.51 164.068 107.337 167.732 109.35C171.508 111.434 176.887 110.395 178.464 114.461C180.223 118.976 181.965 121.999 183.56 126.477C184.189 128.275 182.764 129.486 183.56 131.5C184.313 133.37 185.894 134.44 187.845 134.952C189.34 135.347 192.963 135.341 194.464 134.952C201.503 133.11 207.324 129 209.602 123.219C210.627 120.617 210.519 116.495 208.258 114.461C205.472 111.954 206.011 115.487 203.964 111.5Z" fill="white" stroke="#56534A" stroke-width="1.66654" stroke-miterlimit="10" stroke-linecap="round" stroke-linejoin="round"/>
<path d="M167.925 58.3586C166.526 59.9236 164.447 61.6384 162.964 63C161.375 54.7087 166.241 39.8723 175.945 40.5521C178.602 37.0656 182.514 34.7176 186.717 34.0639C186.517 34.7998 186.316 35.5356 186.128 36.2688C190.528 33.6204 196.084 33.1976 200.924 35.1046C199.524 36.4897 198.718 38.534 198.745 40.6047C200.717 38.7073 203.948 38.4455 206.261 40.0037C205.078 44.2206 207.404 48.7936 210.288 52.0822C213.172 55.3707 216.739 58.0673 218.968 61.9002C222.454 67.8949 220.851 74.0862 219.194 80.2061C217.376 86.8873 212.447 92.8487 206.918 96.2969C206.97 92.811 206.35 88.5445 202.977 87.7435C196.33 86.2445 194.797 71.5872 193.305 66.2233C193.186 65.7926 193.045 65.3249 192.711 65.0377C192.39 64.7479 191.952 64.6911 191.554 64.6395C183.972 63.5799 176.582 60.6789 170.1 56.2093C169.324 56.8492 168.608 57.5868 167.925 58.3586Z" fill="#56534A" stroke="#56534A" stroke-width="1.80541" stroke-miterlimit="10" stroke-linecap="round" stroke-linejoin="round"/>
<path d="M200.912 92.3835C202.775 91.3751 204.295 89.6392 204.786 87.5735C205.277 85.5077 204.627 83.1508 202.967 81.8097C200.715 79.9811 196.786 80.8291 195.337 83.2826" fill="white"/>
<path d="M200.912 92.3835C202.775 91.3751 204.295 89.6392 204.786 87.5735C205.277 85.5077 204.627 83.1508 202.967 81.8097C200.715 79.9811 196.786 80.8291 195.337 83.2826" stroke="#56534A" stroke-width="1.66654" stroke-miterlimit="10" stroke-linecap="round" stroke-linejoin="round"/>
<path d="M187.673 70.9727C186.011 69.2431 183.227 68.6958 181.036 69.6491" stroke="#56534A" stroke-width="1.80541" stroke-miterlimit="10" stroke-linecap="round" stroke-linejoin="round"/>
<path d="M169.928 68.9151C168.275 67.9319 166.103 67.9088 164.416 68.8398" stroke="#56534A" stroke-width="1.80541" stroke-miterlimit="10" stroke-linecap="round" stroke-linejoin="round"/>
<path d="M171.3 81.7911C170.637 82.5757 169.839 83.2496 168.96 83.7773C168.107 84.2809 167.075 84.7869 166.903 85.7543C166.698 86.8484 167.726 87.7567 168.641 88.3885C169.271 88.8366 169.939 89.2868 170.706 89.3699" stroke="#56534A" stroke-width="1.66654" stroke-miterlimit="10" stroke-linecap="round" stroke-linejoin="round"/>
<path d="M181.587 79.7524C183.583 78.8141 184.231 82.708 182.126 82.6502C180.638 82.6024 180.112 80.5924 181.428 79.8332C181.481 79.8105 181.535 79.7751 181.587 79.7524Z" fill="#56534A" stroke="#56534A" stroke-width="2.08317" stroke-miterlimit="10" stroke-linecap="round" stroke-linejoin="round"/>
<path d="M165.148 79.3775C167.244 78.6892 167.414 82.6325 165.324 82.3185C163.846 82.0914 163.58 80.0321 164.964 79.4439C165.029 79.422 165.095 79.4001 165.148 79.3775Z" fill="#56534A" stroke="#56534A" stroke-width="2.08317" stroke-miterlimit="10" stroke-linecap="round" stroke-linejoin="round"/>
<path d="M168.003 96.7236C171.373 98.0507 175.451 97.3612 178.186 94.9992" stroke="#56534A" stroke-width="1.66654" stroke-miterlimit="10" stroke-linecap="round" stroke-linejoin="round"/>
<path d="M140.431 126.958C140.293 126.831 140.139 126.71 139.992 126.597C132.927 123.066 119.309 115.875 114.964 113.575C114.233 113.188 113.717 113.723 113.827 114.5C114.853 121.778 116.015 129.026 117.394 136.248C118.935 144.344 120.653 152.406 122.372 160.46C122.523 161.163 122.688 161.896 123.138 162.467C123.517 162.944 124.074 163.26 124.608 163.567C132.007 167.735 139.574 171.636 147.273 175.246C146.705 174.982 145.964 163.567 145.964 163.567L141.205 128.697C141.145 128.276 141.086 127.839 140.869 127.469C140.75 127.283 140.598 127.117 140.431 126.958Z" fill="#56534A" stroke="#56534A" stroke-width="1.66654" stroke-miterlimit="10" stroke-linecap="round" stroke-linejoin="round"/>
<path d="M158.056 184.213C155.677 181.773 153.227 179.226 152.01 176.03C151.47 173.813 151.007 171.6 150.532 169.373C150.135 167.562 149.29 165.07 148.444 163.465C147.656 161.979 145.951 161.661 144.535 161.245C144.964 161.373 145.227 165.272 145.01 165.683C144.519 166.619 142.895 166.667 141.985 166.395C141.303 166.189 140.245 165.806 139.789 165.239C140.092 165.334 140.427 165.109 140.572 164.822C140.704 164.534 140.685 164.198 140.64 163.874C140.346 162.056 138.798 160.153 136.897 159.889C135.583 159.71 134.085 159.584 133.108 160.479C132.524 161.011 132.452 161.586 132.383 162.328C132.379 162.405 132.361 162.494 132.319 162.555C131.999 162.961 130.583 161.876 129.88 163.134C128.977 164.741 129.636 166.232 129.162 167.748C128.957 168.405 128.103 168.497 127.833 169.381C127.593 170.203 127.854 171.247 128.09 172.045C128.347 172.935 128.982 173.525 129.243 174.337C129.623 175.555 129.12 176.902 129.126 178.137C129.128 180.092 130.311 181.871 131.794 183.127C133.278 184.383 135.082 185.208 136.818 186.093C141.79 188.619 145.228 192.304 148.792 196.484C152.983 201.395 157.186 206.32 161.376 211.232C161.785 211.718 162.334 212.239 162.959 212.095C163.233 212.034 163.45 211.84 163.666 211.66C167.121 208.633 170.479 205.497 173.752 202.278C176.549 199.521 170.897 197.406 169.298 195.706C165.616 191.788 161.796 188.03 158.056 184.213Z" fill="white" stroke="#56534A" stroke-width="1.66654" stroke-miterlimit="10" stroke-linecap="round" stroke-linejoin="round"/>
<path d="M225.51 142.606C220.184 156.391 213.131 176.888 211.966 191.429C211.68 195.039 212.19 199.544 210.687 202.839C209.409 202.932 208.485 202.454 207.472 201.727C197.058 194.153 181.892 191.195 171.477 183.621C166.78 188.326 152.965 203.919 148.269 208.623C160.803 222.442 195.537 214.826 209.92 226.707C218.609 233.885 231.542 239.947 238.673 227.642C250.706 206.863 256.581 184.068 260.601 160.651" fill="#FFCA26"/>
<path d="M225.51 142.606C220.184 156.391 213.131 176.888 211.966 191.429C211.68 195.039 212.19 199.544 210.687 202.839C209.409 202.932 208.485 202.454 207.472 201.727C197.058 194.153 181.892 191.195 171.477 183.621C166.78 188.326 152.965 203.919 148.269 208.623C160.803 222.442 195.537 214.826 209.92 226.707C218.609 233.885 231.542 239.947 238.673 227.642C250.706 206.863 256.581 184.068 260.601 160.651" stroke="#56534A" stroke-width="1.66654" stroke-miterlimit="10" stroke-linecap="round" stroke-linejoin="round"/>
<path d="M115.917 152.931C116.133 153.638 116.585 154.281 116.645 155.018C116.745 156.181 115.85 157.415 116.368 158.461C116.552 158.845 116.908 159.135 117.078 159.531C117.483 160.519 116.571 161.624 116.767 162.677C116.857 163.119 117.13 163.508 117.405 163.871C118.992 165.995 120.628 168.16 122.789 169.7C124.654 171.03 127.766 171.031 128.805 168.647C128.894 168.447 128.957 168.232 129.096 168.06C129.445 167.578 130.095 167.475 130.636 167.223C131.64 166.767 131.692 164.982 130.857 164.304C130.599 164.096 130.243 164.024 130.026 163.78C129.336 163.033 130.475 161.8 130.118 160.853C129.974 160.459 129.591 160.192 129.434 159.797C129.221 159.245 129.502 158.618 129.42 158.035C129.312 157.244 128.557 156.724 127.859 156.35C126.837 155.789 125.758 155.315 124.649 154.929C123.666 154.589 122.64 154.311 121.829 153.659C120.87 152.896 120.408 151.777 120.127 150.629C119.919 149.781 120.046 147.602 119.23 147.04C117.362 145.761 115.472 151.516 115.917 152.931Z" fill="white" stroke="#56534A" stroke-width="1.66654" stroke-miterlimit="10" stroke-linecap="round" stroke-linejoin="round"/>
</g>
<defs>
<filter id="filter0_d" x="92.9644" y="56.5" width="41.8571" height="41.8572" filterUnits="userSpaceOnUse" color-interpolation-filters="sRGB">
<feFlood flood-opacity="0" result="BackgroundImageFix"/>
<feColorMatrix in="SourceAlpha" type="matrix" values="0 0 0 0 0 0 0 0 0 0 0 0 0 0 0 0 0 0 127 0"/>
<feOffset dy="4"/>
<feGaussianBlur stdDeviation="2"/>
<feColorMatrix type="matrix" values="0 0 0 0 0.321569 0 0 0 0 0.372549 0 0 0 0 0.478431 0 0 0 0.1 0"/>
<feBlend mode="normal" in2="BackgroundImageFix" result="effect1_dropShadow"/>
<feBlend mode="normal" in="SourceGraphic" in2="effect1_dropShadow" result="shape"/>
</filter>
<filter id="filter1_d" x="115.25" y="89.6429" width="25.8571" height="25.8571" filterUnits="userSpaceOnUse" color-interpolation-filters="sRGB">
<feFlood flood-opacity="0" result="BackgroundImageFix"/>
<feColorMatrix in="SourceAlpha" type="matrix" values="0 0 0 0 0 0 0 0 0 0 0 0 0 0 0 0 0 0 127 0"/>
<feOffset dy="4"/>
<feGaussianBlur stdDeviation="2"/>
<feColorMatrix type="matrix" values="0 0 0 0 0.321569 0 0 0 0 0.372549 0 0 0 0 0.478431 0 0 0 0.1 0"/>
<feBlend mode="normal" in2="BackgroundImageFix" result="effect1_dropShadow"/>
<feBlend mode="normal" in="SourceGraphic" in2="effect1_dropShadow" result="shape"/>
</filter>
</defs>
</svg>
