<svg width="17" height="18" viewBox="0 0 17 18" fill="none" xmlns="http://www.w3.org/2000/svg">
<path d="M2.65625 3.81445C4.27214 2.19857 6.22005 1.39062 8.5 1.39062C10.7799 1.39062 12.7168 2.19857 14.3105 3.81445C15.9264 5.4082 16.7344 7.34505 16.7344 9.625C16.7344 11.9049 15.9264 13.8529 14.3105 15.4688C12.7168 17.0625 10.7799 17.8594 8.5 17.8594C6.22005 17.8594 4.27214 17.0625 2.65625 15.4688C1.0625 13.8529 0.265625 11.9049 0.265625 9.625C0.265625 7.34505 1.0625 5.4082 2.65625 3.81445ZM3.78516 14.3398C5.09115 15.6237 6.66276 16.2656 8.5 16.2656C10.3372 16.2656 11.8978 15.6237 13.1816 14.3398C14.4876 13.0339 15.1406 11.4622 15.1406 9.625C15.1406 7.78776 14.4876 6.22721 13.1816 4.94336C11.8978 3.63737 10.3372 2.98438 8.5 2.98438C6.66276 2.98438 5.09115 3.63737 3.78516 4.94336C2.5013 6.22721 1.85938 7.78776 1.85938 9.625C1.85938 11.4622 2.5013 13.0339 3.78516 14.3398ZM7.50391 5.47461C7.79167 5.18685 8.1237 5.04297 8.5 5.04297C8.8763 5.04297 9.19727 5.18685 9.46289 5.47461C9.75065 5.74023 9.89453 6.0612 9.89453 6.4375C9.89453 6.8138 9.75065 7.14583 9.46289 7.43359C9.19727 7.69922 8.8763 7.83203 8.5 7.83203C8.1237 7.83203 7.79167 7.69922 7.50391 7.43359C7.23828 7.14583 7.10547 6.8138 7.10547 6.4375C7.10547 6.0612 7.23828 5.74023 7.50391 5.47461ZM10.3594 13.4766C10.3594 13.7422 10.2266 13.875 9.96094 13.875H7.03906C6.77344 13.875 6.64062 13.7422 6.64062 13.4766V12.6797C6.64062 12.4141 6.77344 12.2812 7.03906 12.2812H7.4375V10.1562H7.03906C6.77344 10.1562 6.64062 10.0234 6.64062 9.75781V8.96094C6.64062 8.69531 6.77344 8.5625 7.03906 8.5625H9.16406C9.42969 8.5625 9.5625 8.69531 9.5625 8.96094V12.2812H9.96094C10.2266 12.2812 10.3594 12.4141 10.3594 12.6797V13.4766Z" fill="#1C7ED6"/>
</svg>
