<svg width="13" height="12" viewBox="0 0 13 12" fill="none" xmlns="http://www.w3.org/2000/svg">
<path d="M6.25141 11.9047L5.69898 11.3682C5.56824 11.2412 5.56824 11.0353 5.69898 10.9083L10.0274 6.70455H0.500853C0.315948 6.70455 0.166032 6.55895 0.166032 6.37937V5.62061C0.166032 5.44103 0.315948 5.29543 0.500853 5.29543H10.0274L5.69898 1.09163C5.56824 0.964641 5.56824 0.758746 5.69898 0.631735L6.25141 0.0952379C6.38216 -0.031746 6.59416 -0.031746 6.72493 0.0952379L12.568 5.77006C12.6987 5.89704 12.6987 6.10294 12.568 6.22995L6.72493 11.9048C6.59418 12.0317 6.38219 12.0317 6.25141 11.9047Z" fill="white"/>
</svg>
