<svg width="283" height="253" viewBox="0 0 283 253" fill="none" xmlns="http://www.w3.org/2000/svg">
<path d="M241.631 118.017C241.428 118.583 241.07 119.005 240.705 119.481C240.558 119.672 240.412 119.862 240.274 119.999C239.705 120.654 239.031 121.23 238.17 121.491C237.617 121.65 237.081 121.703 236.488 121.743C235.244 121.812 233.969 121.708 232.782 121.401C232.384 121.317 232.002 121.125 231.596 121.095C231.368 121.047 231.133 121.052 230.889 121.111C230.767 121.141 230.653 121.117 230.605 121.051C230.613 120.997 230.621 120.944 230.629 120.89C230.775 120.7 230.97 120.575 231.165 120.45C232.067 119.921 233.205 119.775 234.286 119.616C235.366 119.458 236.406 119.18 237.446 118.902C238.243 118.683 238.982 118.452 239.681 118.102C239.746 118.061 239.811 118.019 239.876 117.977C240.64 117.586 241.314 117.009 241.72 116.265C241.867 116.849 241.826 117.505 241.631 118.017Z" fill="#5F7F54"/>
<path d="M264.306 98.6874C263.79 99.3961 263.12 99.9636 262.45 100.531C262.184 100.748 261.917 100.964 261.595 101.169C260.489 101.917 259.287 102.536 257.923 102.686C257.092 102.784 256.172 102.7 255.325 102.522C253.445 102.236 251.589 101.792 249.862 100.885C249.321 100.608 248.732 100.267 248.176 100.095C247.845 99.9715 247.449 99.8885 247.102 99.8702C246.933 99.8346 246.763 99.799 246.723 99.6816C246.731 99.6288 246.747 99.5233 246.812 99.4824C247.086 99.2131 247.401 99.0613 247.764 98.9741C249.297 98.4788 251.024 98.6234 252.711 98.6505C254.389 98.7304 256.027 98.6929 257.73 98.6145C258.964 98.5468 260.151 98.4144 261.305 98.1119C261.426 98.0829 261.547 98.0538 261.668 98.0247C262.951 97.6404 264.145 97.074 264.984 96.1607C265.073 97.1053 264.758 98.0197 264.306 98.6874Z" fill="#547249"/>
<path d="M248.279 91.2605C248.656 91.6268 248.896 92.0795 249.136 92.5322C249.23 92.7244 249.324 92.9166 249.427 93.0531C249.753 93.7537 249.95 94.485 249.898 95.2218C249.83 95.6676 249.701 96.1008 249.512 96.5215C249.127 97.4186 248.621 98.2906 247.943 99.0693C247.72 99.3103 247.438 99.5387 247.275 99.7923C247.189 99.9469 247.095 100.157 247.009 100.312C247 100.368 246.923 100.466 246.863 100.454C246.803 100.441 246.803 100.441 246.752 100.373C246.657 100.181 246.563 99.9887 246.589 99.8216C246.478 98.9357 246.795 98.0818 246.992 97.2028C247.249 96.3364 247.378 95.5006 247.515 94.6092C247.61 93.9963 247.713 93.3277 247.687 92.6897C247.696 92.634 247.704 92.5783 247.653 92.51C247.576 91.8038 247.379 91.0725 246.976 90.4708C247.456 90.5711 247.902 90.8942 248.279 91.2605Z" fill="#5F7F54"/>
<path d="M261.114 84.5258C260.512 81.5136 259.91 78.5014 260.401 75.7718C260.733 74.0495 261.537 72.54 262.464 71.0556C263.968 68.708 265.707 66.4668 266.154 63.6127C266.861 65.9534 267.07 68.2493 266.921 70.4136C266.798 72.0058 266.491 73.5601 266.01 75.0207C264.961 78.5016 263.099 81.5263 261.114 84.5258Z" fill="#5F7F54"/>
<path d="M232.512 116.988C230.424 116.493 228.524 115.16 227.399 113.333C226.881 112.512 226.445 111.542 225.66 110.938C224.875 110.334 223.84 110.226 222.845 110.235C222.61 110.241 222.376 110.246 222.141 110.252C220.855 110.255 219.504 110.299 218.218 110.302C218.161 109.906 218.558 109.606 218.889 109.347C219.99 108.647 221.235 108.142 222.465 107.743C223.694 107.344 225.021 107.076 226.323 107.35C226.776 107.446 227.221 107.594 227.658 107.796C229.608 108.81 230.441 111.014 231.136 112.97C231.63 114.335 232.075 115.635 232.512 116.988Z" fill="#547249"/>
<path d="M234.143 109.405C236.898 109.152 239.775 108.87 241.892 107.756C243.298 107.049 244.344 105.986 245.275 104.9C246.845 103.11 248.267 101.122 250.555 100.044C248.308 100.069 246.248 100.414 244.425 101.144C243.052 101.634 241.834 102.269 240.715 103.036C238.099 104.715 236.097 107.027 234.143 109.405Z" fill="#547249"/>
<path d="M252.568 93.1182C252.374 91.921 252.754 90.7253 253.126 89.5857C253.843 87.0697 254.383 84.4596 254.552 81.7738C254.614 81.3813 254.605 81.0323 254.658 80.6959C254.729 79.4371 254.73 78.2217 254.792 77.019C254.802 75.3425 254.873 73.6786 254.874 72.0581C255.545 72.2531 256.031 72.8152 256.384 73.4082C257.506 75.1999 257.814 77.2886 257.937 79.3394C257.928 79.8006 257.981 80.2744 257.972 80.7356C257.927 82.6364 257.697 84.4993 257.095 86.2865C256.856 86.9902 256.556 87.6812 256.14 88.2909C255.539 89.2679 254.637 90.1257 254.159 91.1279C253.664 91.8371 253.39 92.765 252.568 93.1182Z" fill="#5F7F54"/>
<path d="M238.774 96.0648C236.968 94.5487 235.17 92.9778 234.069 91.1584C233.406 89.9985 233.058 88.7357 232.776 87.4303C232.37 85.3626 232.089 83.2646 230.946 81.3232C232.461 82.3814 233.704 83.6645 234.748 85.0753C235.493 86.0829 236.106 87.1756 236.603 88.2437C237.788 90.7034 238.343 93.369 238.774 96.0648Z" fill="#5F7F54"/>
<path d="M235.052 108.117C232.883 106.181 230.656 104.233 229.443 101.932C228.645 100.458 228.329 98.9723 228.147 97.4014C227.797 94.9441 227.706 92.3713 226.318 90.0339C228.205 91.4559 229.709 93.0236 230.889 94.7495C231.778 96.0164 232.426 97.2889 233.008 98.604C234.213 101.754 234.695 104.92 235.052 108.117Z" fill="#5F7F54"/>
<path d="M227.644 125.356C229.25 122.74 230.981 120.091 232.922 117.598C257.43 85.3418 268.069 78.8197 268.069 78.8197" stroke="#5F7F54" stroke-width="1.36674" stroke-miterlimit="10" stroke-linecap="round"/>
<path d="M279.214 76.1636C278.88 76.4261 278.546 76.6886 278.155 76.9391C276.535 77.9287 274.475 78.325 272.48 78.2907C271.185 78.2938 269.906 78.1893 268.644 78.366C268.408 78.3715 268.221 78.4429 267.977 78.5022C267.366 78.6504 266.828 77.9252 267.195 77.4474C269.092 75.0164 271.999 73.2997 275.191 72.8101C275.615 72.7333 276.038 72.6564 276.51 72.6455C278.603 72.4228 280.793 72.3319 282.275 71.0906C281.526 72.9318 280.712 74.8147 279.214 76.1636Z" fill="#5F7F54"/>
<path d="M246.986 72.1498C246.64 72.4199 246.286 72.7454 245.992 73.0833C244.736 74.5333 244.02 76.4401 243.717 78.434C243.531 79.6526 243.514 80.9638 243.16 82.0896C243.127 82.3112 243.034 82.5203 242.941 82.7294C242.672 83.3013 243.43 83.9187 244.02 83.643C246.868 82.129 249.143 79.5794 250.095 76.5219C250.221 76.0912 250.339 75.7159 250.465 75.2853C251.013 73.2858 251.392 71.1935 252.926 69.9165C250.853 70.3365 248.646 70.8424 246.986 72.1498Z" fill="#5F7F54"/>
<path d="M279.381 80.3318C278.968 81.124 278.401 81.7739 277.777 82.4117C277.567 82.6421 277.291 82.9138 277.024 83.1322C276.069 84.0298 274.951 84.8382 273.615 85.1609C272.765 85.3662 271.89 85.3465 271.016 85.3269C269.154 85.2637 267.202 85.0168 265.429 84.3678C264.822 84.1297 264.271 83.9036 263.648 83.7721C263.307 83.7003 262.903 83.6698 262.546 83.7046C262.425 83.7339 262.198 83.6861 262.158 83.5676C262.109 83.5024 262.182 83.4079 262.19 83.3546C262.409 83.071 262.733 82.8645 263.048 82.7113C264.498 82.0279 266.263 81.9607 267.923 81.8163C269.583 81.6719 271.194 81.4623 272.822 81.1462C274.028 80.9062 275.178 80.6542 276.296 80.2304C276.417 80.2011 276.539 80.1718 276.611 80.0772C277.802 79.559 278.911 78.8038 279.648 77.8051C279.931 78.6343 279.737 79.5276 279.381 80.3318Z" fill="#5F7F54"/>
<path d="M246.11 92.9269C246.077 93.5419 245.928 94.1324 245.787 94.6681C245.696 94.8749 245.663 95.0941 245.564 95.3558C245.258 96.1956 244.836 97.0109 244.158 97.5453C243.744 97.9098 243.173 98.1278 242.661 98.3581C241.519 98.7941 240.328 99.163 239.062 99.2333C238.641 99.2567 238.227 99.2253 237.855 99.3159C237.607 99.3762 237.416 99.4489 237.16 99.564C237.094 99.6065 236.97 99.6367 236.92 99.5696C236.87 99.5025 236.879 99.4477 236.887 99.3929C236.92 99.1737 237.077 98.9243 237.226 98.7298C237.888 97.909 238.864 97.3813 239.84 96.8536C240.758 96.3135 241.684 95.7187 242.553 95.1116C243.165 94.6196 243.835 94.1399 244.34 93.5685C244.406 93.526 244.414 93.4712 244.489 93.3739C245.068 92.7053 245.481 91.9448 245.613 91.0681C245.994 91.7145 246.143 92.3118 246.11 92.9269Z" fill="#5F7F54"/>
<path d="M240.918 90.4419C241.11 89.6161 240.927 88.7707 240.806 87.9379C240.468 86.0795 240.312 84.2589 240.347 82.42C240.321 82.1839 240.364 81.9044 240.338 81.6683C240.408 80.8173 240.417 79.9538 240.487 79.1028C240.6 77.9724 240.652 76.8295 240.765 75.699C240.322 75.7228 239.958 76.0511 239.662 76.3362C238.811 77.3715 238.403 78.787 238.255 80.141C238.203 80.4763 238.159 80.7558 238.168 81.1037C238.029 82.4018 238.072 83.7376 238.375 85.0119C238.48 85.5527 238.653 86.0501 238.887 86.5602C239.269 87.3315 239.79 88.0162 240.042 88.8182C240.259 89.44 240.406 90.1051 240.918 90.4419Z" fill="#5F7F54"/>
<path d="M266.523 91.4428C265.907 92.0286 265.291 92.6143 264.578 93.0694C264.383 93.1935 264.197 93.2642 264.002 93.3883C262.236 94.2266 259.982 94.4114 258.054 93.6184C257 93.2306 255.995 92.5227 254.893 92.455C254.374 92.4005 253.831 92.506 253.321 92.3982C254.447 91.5348 255.857 91.1169 257.243 90.859C258.686 90.6131 260.112 90.4739 261.506 90.1627C262.6 89.8983 263.589 89.5565 264.545 89.0426C265.178 88.7357 265.761 88.3633 266.353 87.9377C266.88 87.5534 267.35 87.1571 268.014 87.0221C268.193 87.0047 268.371 86.9873 268.533 87.0767C268.971 87.2792 268.881 87.8662 268.76 88.281C268.274 89.5549 267.479 90.5435 266.523 91.4428Z" fill="#5F7F54"/>
<path d="M254.946 104.604C254.154 105.552 253.312 106.434 252.43 107.195C252.226 107.375 251.965 107.543 251.704 107.71C249.523 109.256 247.008 109.893 244.982 109.24C243.855 108.889 242.9 108.184 241.65 108.253C241.054 108.294 240.425 108.551 239.846 108.483C241.234 107.104 242.957 106.243 244.582 105.639C246.216 104.982 247.873 104.553 249.523 103.787C250.789 103.219 252.014 102.531 253.206 101.668C253.998 101.111 254.741 100.487 255.436 99.7979C256.056 99.2043 256.742 98.5688 257.436 98.2698C257.624 98.1981 257.869 98.1386 258.033 98.2291C258.474 98.4344 258.294 99.2332 258.033 99.7916C257.281 101.641 256.163 103.189 254.946 104.604Z" fill="#5F7F54"/>
<path d="M250.976 115.031C249.941 115.689 248.85 116.335 247.791 116.769C247.54 116.88 247.233 116.98 246.926 117.079C244.396 117.969 241.72 117.899 239.91 116.752C238.948 116.166 238.156 115.233 236.96 115.036C236.394 114.917 235.682 114.986 235.125 114.814C236.895 113.928 238.762 113.555 240.54 113.382C242.319 113.209 244.073 113.195 245.859 112.969C247.233 112.766 248.624 112.457 250.046 111.936C250.968 111.637 251.849 111.221 252.73 110.804C253.546 110.429 254.314 109.988 255.147 109.89C255.381 109.885 255.616 109.879 255.769 110.021C256.133 110.317 255.737 110.999 255.316 111.458C254.104 112.899 252.528 114.045 250.976 115.031Z" fill="#5F7F54"/>
<path d="M251.738 84.3821C251.433 85.221 251.078 85.9928 250.615 86.6854C250.466 86.8797 250.384 87.0317 250.235 87.226C248.938 88.7015 246.997 89.701 244.915 89.6538C243.784 89.6391 242.635 89.3384 241.57 89.6768C241.066 89.8521 240.612 90.0944 240.116 90.215C240.777 88.9997 241.875 88.047 243.065 87.283C244.254 86.5191 245.551 85.8345 246.691 85.0036C247.567 84.3424 248.335 83.6018 249.054 82.7943C249.491 82.266 249.88 81.6706 250.268 81.0752C250.59 80.5223 250.854 79.9571 251.391 79.5629C251.523 79.478 251.713 79.4054 251.895 79.3876C252.366 79.4312 252.572 80.04 252.564 80.4902C252.539 81.8408 252.168 83.1176 251.738 84.3821Z" fill="#5F7F54"/>
<path d="M230.99 121.061C230.99 121.061 237.92 93.1145 243.045 84.0276" stroke="#5F7F54" stroke-width="0.911159" stroke-miterlimit="10" stroke-linecap="round"/>
<path d="M219.872 106.752C218.721 96.4751 223.193 83.226 226.535 73.5897C228.714 67.2603 230.361 60.6884 232.833 54.5137C238.34 40.72 248.093 28.9264 259.825 19.7162" stroke="#638557" stroke-width="0.957203" stroke-miterlimit="10" stroke-linecap="round"/>
<path d="M240.277 40.8733C241.282 33.9252 246.4 28.4185 249.076 22.026" stroke="#638557" stroke-width="0.957203" stroke-miterlimit="10" stroke-linecap="round"/>
<path d="M221.851 88.9507C223.875 66.6663 231.597 55.4615 232.26 54.8762C241.328 46.2967 251.766 37.3949 261.273 29.3482" stroke="#638557" stroke-width="0.957203" stroke-miterlimit="10" stroke-linecap="round"/>
<path d="M241.469 46.5282C244.815 43.4121 250.244 43.8068 254.126 41.4067C255.588 40.5075 256.792 39.1621 257.925 37.9275" stroke="#638557" stroke-width="0.957203" stroke-miterlimit="10" stroke-linecap="round"/>
<path d="M223.25 84.197C222.916 83.1974 223.848 82.2852 224.632 81.6561C229.185 78.2242 234.284 75.4564 238.286 71.4198C240.889 68.7811 242.87 65.6496 244.845 62.5775C247.239 58.8937 249.639 55.1506 251.973 51.4599" stroke="#638557" stroke-width="0.957203" stroke-miterlimit="10" stroke-linecap="round"/>
<path d="M239.822 68.9288C242.658 66.8189 246.106 65.9114 249.403 64.6886C252.7 63.4657 255.99 61.647 257.593 58.56" stroke="#638557" stroke-width="0.957203" stroke-miterlimit="10" stroke-linecap="round"/>
<path d="M230.903 77.1644C233.141 72.2289 235.325 67.2266 237.563 62.2911" stroke="#638557" stroke-width="0.957203" stroke-miterlimit="10" stroke-linecap="round"/>
<path d="M220.155 102.371C221.277 100.037 222.41 97.5852 224.384 95.8921C225.371 95.0456 226.522 94.3985 227.564 93.6185C230.303 91.5337 232.101 88.4378 233.828 85.4538" stroke="#638557" stroke-width="0.957203" stroke-miterlimit="10" stroke-linecap="round"/>
<path d="M222.449 98.0172C223.918 96.3564 226.241 95.858 228.434 95.4627C230.622 95.1259 232.988 94.8097 234.668 93.4688" stroke="#638557" stroke-width="0.957203" stroke-miterlimit="10" stroke-linecap="round"/>
<path d="M220.435 98.5537C220.216 95.4998 220.059 92.453 219.452 89.4766C218.965 87.2408 218.291 84.9838 217.935 82.7021C217.12 77.2185 218.265 71.774 219.529 66.4036" stroke="#638557" stroke-width="0.957203" stroke-miterlimit="10" stroke-linecap="round"/>
<path d="M218.417 85.179C217.935 81.7475 219.223 78.3407 221.193 75.4954C223.164 72.65 225.696 70.3521 228.002 67.8471C230.309 65.3422 232.461 62.5179 233.315 59.1812" stroke="#638557" stroke-width="0.957203" stroke-miterlimit="10" stroke-linecap="round"/>
<path d="M226.393 68.1491C226.368 65.727 226.343 63.3049 226.379 60.8899C226.376 57.563 226.5 54.1905 227.352 51.0221C229.274 44.3476 234.596 39.212 237.776 33.0446" stroke="#638557" stroke-width="0.957203" stroke-miterlimit="10" stroke-linecap="round"/>
<path d="M229.783 45.848C230.949 43.1271 231.364 40.1411 231 37.1901" stroke="#638557" stroke-width="0.957203" stroke-miterlimit="10" stroke-linecap="round"/>
<path d="M257.515 17.301C257.928 16.7499 258.569 16.3454 259.259 16.0664C259.884 15.8398 260.683 15.6933 261.319 16.0073C262.129 16.4014 262.533 17.2873 262.756 18.1523C263.008 19.38 262.95 20.6914 262.424 21.8283C262.283 22.0515 262.136 22.334 261.941 22.491C261.55 22.8048 260.941 22.8536 260.408 22.7315C259.217 22.5326 258.075 21.8002 257.449 20.7085C256.822 19.6168 256.821 18.2984 257.515 17.301Z" fill="#FFC247"/>
<path d="M258.846 26.9052C259.259 26.3542 259.9 25.9497 260.59 25.6707C261.214 25.444 262.013 25.2976 262.65 25.6115C263.46 26.0057 263.863 26.8916 264.087 27.7566C264.339 28.9842 264.28 30.2956 263.754 31.4326C263.613 31.6558 263.467 31.9383 263.271 32.0952C262.88 32.4091 262.272 32.4579 261.739 32.3358C260.548 32.1369 259.406 31.4044 258.78 30.3127C258.148 29.2803 258.157 27.8434 258.846 26.9052Z" fill="#FFC247"/>
<path d="M254.472 37.0887C254.885 36.5377 255.526 36.1331 256.216 35.8542C256.841 35.6275 257.64 35.4811 258.276 35.795C259.086 36.1892 259.49 37.0751 259.713 37.94C259.965 39.1677 259.907 40.4791 259.381 41.616C259.24 41.8392 259.093 42.1217 258.898 42.2787C258.507 42.5925 257.898 42.6413 257.365 42.5192C256.174 42.3204 255.032 41.5879 254.406 40.4962C253.779 39.4045 253.778 38.0861 254.472 37.0887Z" fill="#FFC247"/>
<path d="M248.366 49.639C248.778 49.088 249.419 48.6834 250.109 48.4045C250.734 48.1778 251.533 48.0314 252.169 48.3453C252.98 48.7394 253.383 49.6254 253.607 50.4903C253.858 51.718 253.8 53.0294 253.274 54.1663C253.133 54.3895 252.987 54.672 252.791 54.829C252.4 55.1428 251.791 55.1916 251.259 55.0695C250.068 54.8707 248.926 54.1382 248.299 53.0465C247.668 52.0141 247.671 50.6364 248.366 49.639Z" fill="#FFC247"/>
<path d="M234.353 60.407C234.765 59.856 235.406 59.4516 236.096 59.1726C236.721 58.946 237.52 58.7995 238.156 59.1134C238.966 59.5076 239.37 60.3934 239.593 61.2583C239.845 62.4859 239.787 63.7971 239.261 64.934C239.12 65.1571 238.973 65.4396 238.778 65.5965C238.387 65.9104 237.778 65.9592 237.245 65.8371C236.055 65.6382 234.913 64.9058 234.286 63.8142C233.595 62.7749 233.599 61.3974 234.353 60.407Z" fill="#FFC247"/>
<path d="M230.011 34.4585C230.353 34.0192 230.864 33.7194 231.369 33.4788C231.869 33.2976 232.484 33.1896 233.006 33.4302C233.643 33.7441 234.002 34.4451 234.123 35.1181C234.336 36.1014 234.299 37.1754 233.86 38.0226C233.779 38.2527 233.643 38.4166 233.447 38.5735C233.121 38.835 232.637 38.8384 232.219 38.7895C231.267 38.6185 230.353 38.0326 229.884 37.1992C229.421 36.3064 229.457 35.2325 230.011 34.4585Z" fill="#FFC247"/>
<path d="M235.258 30.255C235.6 29.8158 236.111 29.516 236.616 29.2755C237.116 29.0942 237.73 28.9862 238.253 29.2269C238.889 29.5408 239.249 30.2416 239.369 30.9146C239.583 31.8979 239.546 32.9718 239.107 33.819C239.025 34.0491 238.89 34.2129 238.694 34.3698C238.368 34.6313 237.884 34.6347 237.465 34.5858C236.514 34.4148 235.599 33.8289 235.131 32.9956C234.662 32.1622 234.644 31.022 235.258 30.255Z" fill="#FFC247"/>
<path d="M246.656 18.9213C246.998 18.482 247.509 18.1822 248.014 17.9417C248.514 17.7605 249.128 17.6525 249.651 17.8931C250.287 18.207 250.647 18.9079 250.767 19.5808C250.981 20.5641 250.944 21.638 250.505 22.4852C250.423 22.7153 250.288 22.8792 250.092 23.0361C249.766 23.2975 249.282 23.3009 248.863 23.2521C247.912 23.0811 246.997 22.4952 246.529 21.6618C246.06 20.8284 246.042 19.6883 246.656 18.9213Z" fill="#FFC247"/>
<path d="M249.958 24.9626C250.3 24.5232 250.811 24.2234 251.316 23.9829C251.816 23.8016 252.431 23.6936 252.953 23.9343C253.59 24.2482 253.95 24.9492 254.07 25.6222C254.283 26.6056 254.247 27.6796 253.807 28.5269C253.726 28.7571 253.59 28.9209 253.394 29.0778C253.068 29.3393 252.584 29.3427 252.166 29.2939C251.214 29.1229 250.299 28.5369 249.831 27.7034C249.427 26.8176 249.404 25.7366 249.958 24.9626Z" fill="#FFC247"/>
<path d="M243.58 26.2513C243.922 25.812 244.433 25.5122 244.938 25.2717C245.438 25.0904 246.053 24.9824 246.575 25.2231C247.212 25.537 247.571 26.2379 247.692 26.9109C247.905 27.8942 247.868 28.9682 247.429 29.8155C247.348 30.0456 247.212 30.2094 247.016 30.3663C246.69 30.6278 246.206 30.6312 245.788 30.5824C244.836 30.4114 243.921 29.8254 243.453 28.992C242.984 28.1586 243.026 27.0253 243.58 26.2513Z" fill="#FFC247"/>
<path d="M255.312 56.8525C255.654 56.4132 256.165 56.1134 256.671 55.8729C257.171 55.6916 257.785 55.5836 258.307 55.8243C258.944 56.1382 259.304 56.8391 259.424 57.5121C259.638 58.4954 259.601 59.5694 259.161 60.4167C259.08 60.6468 258.944 60.8107 258.749 60.9675C258.423 61.229 257.939 61.2324 257.52 61.1836C256.568 61.0126 255.654 60.4266 255.185 59.5932C254.717 58.7598 254.759 57.6265 255.312 56.8525Z" fill="#FFC247"/>
<path d="M216.421 63.123C216.763 62.6837 217.274 62.3839 217.779 62.1434C218.279 61.9622 218.893 61.8541 219.416 62.0948C220.052 62.4087 220.412 63.1096 220.532 63.7825C220.746 64.7658 220.709 65.8397 220.269 66.6869C220.188 66.917 220.052 67.0809 219.857 67.2377C219.531 67.4992 219.047 67.5026 218.628 67.4537C217.676 67.2828 216.762 66.6969 216.294 65.8635C215.825 65.0301 215.807 63.89 216.421 63.123Z" fill="#FFC247"/>
<path d="M61.7656 158.495C54.8552 157.14 46.7404 151.621 40.8511 147.608C36.9975 144.929 32.9241 142.654 29.153 139.824C20.851 133.607 14.4667 125.167 10.1012 116.01" stroke="#638557" stroke-width="1.04119" stroke-miterlimit="10" stroke-linecap="round"/>
<path d="M21.4954 132.961C17.0965 130.902 14.1785 126.642 10.3284 123.704" stroke="#638557" stroke-width="1.04119" stroke-miterlimit="10" stroke-linecap="round"/>
<path d="M50.5204 153.96C36.0422 148.097 29.7005 140.875 29.4295 140.323C25.0874 132.826 20.6407 124.337 16.7096 116.738" stroke="#638557" stroke-width="1.04119" stroke-miterlimit="10" stroke-linecap="round"/>
<path d="M25.6703 133.144C24.0419 130.248 25.1171 126.766 24.0741 123.724C23.6901 122.553 22.9434 121.518 22.2804 120.462" stroke="#638557" stroke-width="1.04119" stroke-miterlimit="10" stroke-linecap="round"/>
<path d="M47.4222 152.086C46.7075 152.086 46.2438 151.355 45.9175 150.635C44.286 147.034 43.2332 143.155 41.0508 139.781C39.6597 137.589 37.8551 135.635 36.1053 133.711C33.9724 131.437 31.8673 129.112 29.7344 126.838" stroke="#638557" stroke-width="1.04119" stroke-miterlimit="10" stroke-linecap="round"/>
<path d="M40.1547 138.218C39.1376 135.943 39.0388 133.438 38.6895 130.997C38.3402 128.555 37.6023 126.029 35.7211 124.287" stroke="#638557" stroke-width="1.04119" stroke-miterlimit="10" stroke-linecap="round"/>
<path d="M43.6647 145.65C40.7115 143.28 37.7583 140.911 34.8325 138.491" stroke="#638557" stroke-width="1.04119" stroke-miterlimit="10" stroke-linecap="round"/>
<path d="M58.489 157.306C57.0678 156.105 55.6466 154.904 54.8037 153.293C54.3685 152.513 54.1258 151.641 53.773 150.84C52.7409 148.654 50.9932 146.868 49.2178 145.134" stroke="#638557" stroke-width="1.04119" stroke-miterlimit="10" stroke-linecap="round"/>
<path d="M55.9885 155.037C55.0997 153.713 55.0519 152.043 55.1434 150.52C55.2349 148.997 55.3828 147.369 54.6903 145.951" stroke="#638557" stroke-width="1.04119" stroke-miterlimit="10" stroke-linecap="round"/>
<path d="M55.6505 156.907C53.6349 156.441 51.5925 155.893 49.5213 155.66C47.9952 155.467 46.4409 155.457 44.888 155.183C41.1826 154.565 37.7013 152.75 34.3839 150.895" stroke="#638557" stroke-width="1.04119" stroke-miterlimit="10" stroke-linecap="round"/>
<path d="M46.8631 155.502C44.5157 155.115 42.4473 153.558 40.8444 151.798C39.2691 149.986 38.1047 147.941 36.7486 145.988C35.3925 144.034 33.8723 142.121 31.775 140.879" stroke="#638557" stroke-width="1.04119" stroke-miterlimit="10" stroke-linecap="round"/>
<path d="M36.8959 147.234C35.3223 146.752 33.7487 146.269 32.1208 145.756C29.9504 145.072 27.7258 144.358 25.7754 143.141C21.6306 140.638 19.0164 136.364 15.473 133.147" stroke="#638557" stroke-width="1.04119" stroke-miterlimit="10" stroke-linecap="round"/>
<path d="M22.6621 140.908C21.0675 139.696 19.1456 138.825 17.167 138.444" stroke="#638557" stroke-width="1.04119" stroke-miterlimit="10" stroke-linecap="round"/>
<path d="M9.00878 117.077C8.70568 116.702 8.48651 116.172 8.4612 115.682C8.40791 115.245 8.41058 114.704 8.745 114.35C9.13538 113.893 9.80089 113.861 10.3831 113.851C11.2698 113.945 12.1278 114.226 12.79 114.871C12.9279 115.016 13.0658 115.162 13.1757 115.36C13.3403 115.724 13.2277 116.067 13.1151 116.411C12.7787 117.17 12.1105 117.743 11.3057 117.899C10.501 118.055 9.58768 117.743 9.00878 117.077Z" fill="#FFC247"/>
<path d="M15.5779 117.883C15.2748 117.508 15.0556 116.977 15.0303 116.488C14.977 116.051 14.9797 115.51 15.3141 115.156C15.7045 114.698 16.37 114.667 16.9522 114.657C17.8389 114.75 18.6969 115.031 19.3591 115.677C19.497 115.822 19.6349 115.968 19.7448 116.166C19.9094 116.53 19.7968 116.873 19.6842 117.217C19.3478 117.976 18.6796 118.549 17.8748 118.705C17.0701 118.861 16.1015 118.518 15.5779 117.883Z" fill="#FFC247"/>
<path d="M21.5261 122.625C21.223 122.25 21.0038 121.72 20.9785 121.23C20.9252 120.793 20.9279 120.252 21.2623 119.898C21.6527 119.441 22.3182 119.409 22.9005 119.399C23.7871 119.493 24.6452 119.773 25.3073 120.419C25.4452 120.564 25.5831 120.71 25.6931 120.908C25.8576 121.272 25.745 121.615 25.6324 121.959C25.296 122.718 24.6278 123.291 23.8231 123.447C22.963 123.572 22.0497 123.26 21.5261 122.625Z" fill="#FFC247"/>
<path d="M28.6511 128.925C28.348 128.551 28.1288 128.02 28.1035 127.531C28.0502 127.094 28.0529 126.553 28.3873 126.199C28.7777 125.741 29.4432 125.71 30.0255 125.699C30.9121 125.793 31.7702 126.074 32.4323 126.719C32.5702 126.865 32.7081 127.01 32.8181 127.208C32.9826 127.572 32.87 127.916 32.7574 128.259C32.421 129.019 31.7528 129.591 30.9481 129.747C30.1433 129.903 29.1747 129.56 28.6511 128.925Z" fill="#FFC247"/>
<path d="M33.1601 140.24C32.857 139.865 32.6378 139.335 32.6124 138.845C32.5592 138.408 32.5618 137.867 32.8963 137.513C33.2867 137.055 33.9523 137.024 34.5346 137.014C35.4214 137.107 36.2795 137.388 36.9418 138.034C37.0797 138.179 37.2176 138.325 37.3275 138.523C37.4921 138.887 37.3795 139.23 37.2669 139.574C36.9304 140.334 36.2622 140.906 35.4573 141.062C34.6525 141.218 33.7111 140.958 33.1601 140.24Z" fill="#FFC247"/>
<path d="M15.2583 138.623C15.0107 138.28 14.8462 137.916 14.8482 137.51C14.767 137.125 14.8242 136.751 15.0473 136.47C15.3263 136.085 15.853 136.044 16.3237 136.106C17.0162 136.158 17.7354 136.428 18.2594 136.928C18.342 137.042 18.5078 137.136 18.5624 137.302C18.6995 137.583 18.615 137.874 18.5304 138.165C18.278 138.769 17.7493 139.216 17.1114 139.33C16.4462 139.361 15.6991 139.143 15.2583 138.623Z" fill="#FFC247"/>
<path d="M13.4722 134.346C13.2245 134.003 13.06 133.639 13.062 133.233C12.9808 132.848 13.038 132.474 13.2611 132.193C13.5401 131.808 14.0669 131.766 14.5377 131.829C15.2302 131.881 15.9494 132.151 16.4735 132.65C16.556 132.765 16.7218 132.858 16.7764 133.025C16.9136 133.306 16.829 133.597 16.7445 133.888C16.4921 134.491 15.9633 134.939 15.3254 135.053C14.6322 135.136 13.913 134.866 13.4722 134.346Z" fill="#FFC247"/>
<path d="M8.04507 124.701C7.79735 124.358 7.63287 123.994 7.63488 123.588C7.55364 123.203 7.61091 122.829 7.83399 122.548C8.11301 122.163 8.63975 122.122 9.11054 122.184C9.80309 122.236 10.5223 122.507 11.0463 123.006C11.1289 123.12 11.2947 123.214 11.3493 123.38C11.4865 123.661 11.4019 123.952 11.3173 124.244C11.065 124.847 10.5362 125.294 9.89829 125.409C9.26034 125.523 8.48589 125.221 8.04507 124.701Z" fill="#FFC247"/>
<path d="M12.6834 123.534C12.4357 123.191 12.2712 122.827 12.2732 122.421C12.192 122.036 12.2493 121.662 12.4723 121.381C12.7513 120.996 13.278 120.955 13.7488 121.017C14.4413 121.069 15.1604 121.339 15.6844 121.839C15.767 121.953 15.9328 122.047 15.9874 122.213C16.1246 122.494 16.04 122.785 15.9554 123.076C15.7031 123.68 15.1744 124.127 14.5365 124.241C13.8713 124.272 13.1242 124.054 12.6834 123.534Z" fill="#FFC247"/>
<path d="M12.3698 128.06C12.1221 127.716 11.9576 127.352 11.9596 126.947C11.8784 126.562 11.9357 126.187 12.1587 125.907C12.4377 125.522 12.9644 125.48 13.4352 125.543C14.1277 125.595 14.8468 125.865 15.3708 126.364C15.4534 126.479 15.6192 126.572 15.6738 126.739C15.811 127.019 15.7264 127.311 15.6418 127.602C15.3895 128.205 14.8608 128.652 14.2229 128.767C13.5577 128.798 12.8106 128.58 12.3698 128.06Z" fill="#FFC247"/>
<path d="M34.6333 125.572C34.3857 125.229 34.2212 124.865 34.2232 124.459C34.142 124.074 34.1992 123.7 34.4223 123.419C34.7013 123.034 35.228 122.993 35.6987 123.055C36.3912 123.107 37.1104 123.378 37.6344 123.877C37.717 123.991 37.8828 124.085 37.9374 124.251C38.0745 124.532 37.99 124.823 37.9054 125.114C37.653 125.718 37.1243 126.165 36.4864 126.279C35.8212 126.311 35.0741 126.092 34.6333 125.572Z" fill="#FFC247"/>
<path d="M31.6464 152.82C31.3987 152.476 31.2342 152.112 31.2362 151.707C31.155 151.322 31.2123 150.948 31.4354 150.667C31.7144 150.282 32.241 150.24 32.7118 150.303C33.4043 150.355 34.1234 150.625 34.6475 151.124C34.73 151.239 34.8958 151.332 34.9504 151.499C35.0876 151.78 35.003 152.071 34.9185 152.362C34.6661 152.965 34.1374 153.412 33.4995 153.527C32.8343 153.558 32.0872 153.34 31.6464 152.82Z" fill="#FFC247"/>
<path d="M41.4694 129.936C41.4696 130.601 41.5796 131.195 41.717 131.871C41.7995 132.117 41.8819 132.363 41.9369 132.66C42.2117 133.613 42.6513 134.526 43.3104 135.297C43.7772 135.76 44.2989 136.121 44.8206 136.482C46.0013 137.215 47.2369 137.846 48.4998 138.161C48.9391 138.276 49.4058 138.34 49.8177 138.506C50.0648 138.579 50.2844 138.703 50.5316 138.909C50.6414 138.971 50.7512 139.033 50.7787 138.982C50.8061 138.931 50.8336 138.88 50.8061 138.798C50.806 138.532 50.6412 138.306 50.4764 138.08C49.8172 137.043 48.7738 136.321 47.8402 135.528C46.8791 134.786 45.9729 133.941 45.0667 133.097C44.4076 132.459 43.8035 131.852 43.2542 131.143C43.2267 131.061 43.1169 130.999 43.0894 130.917C42.5126 130.126 42.1555 129.193 42.0179 128.251C41.6612 128.648 41.4692 129.271 41.4694 129.936Z" fill="#5F7F54"/>
<path d="M28.4994 100.39C28.691 101.356 29.0467 102.283 29.4845 103.189C29.6486 103.546 29.8128 103.902 30.0316 104.29C30.7429 105.615 31.6729 106.931 32.9309 107.771C33.6967 108.334 34.6265 108.726 35.5289 109.036C37.4158 109.768 39.4668 110.328 41.4355 110.381C42.0644 110.404 42.7754 110.409 43.4317 110.514C43.8145 110.598 44.17 110.732 44.5802 110.897C44.7443 110.989 44.9357 111.031 44.9904 110.929C45.0177 110.879 45.0177 110.747 44.9903 110.665C44.8535 110.258 44.58 109.972 44.2518 109.655C42.9663 108.337 41.2707 107.515 39.6025 106.641C37.989 105.799 36.3482 104.875 34.8167 103.881C33.6954 103.183 32.5741 102.354 31.5622 101.454C31.4801 101.342 31.3707 101.28 31.2886 101.168C30.222 100.105 29.3193 98.8706 28.9088 97.517C28.4169 98.4285 28.3624 99.4543 28.4994 100.39Z" fill="#547249"/>
<path d="M47.408 101.328C46.9236 101.538 46.4962 101.78 46.0973 102.106C45.9548 102.233 45.8124 102.36 45.6129 102.454C45.0431 102.96 44.5018 103.552 44.2456 104.304C44.0747 104.76 44.0749 105.312 44.0465 105.779C44.0469 106.884 44.1042 108.02 44.4465 109.042C44.5606 109.383 44.7317 109.755 44.7603 110.116C44.7889 110.34 44.8175 110.563 44.789 110.754C44.7606 110.807 44.7606 110.945 44.8746 111.009C44.9316 111.041 44.9601 110.988 45.0171 111.021C45.2166 110.926 45.3305 110.715 45.4159 110.556C45.8432 109.762 46.0138 108.754 46.156 107.799C46.2982 106.844 46.4974 105.921 46.6966 104.999C46.8389 104.32 47.0382 103.673 47.38 103.038C47.4085 102.985 47.437 102.932 47.4654 102.879C47.8072 102.244 48.2915 101.62 48.9754 101.316C48.4053 101.132 47.8639 101.172 47.408 101.328Z" fill="#5F7F54"/>
<path d="M38.7761 89.0301C40.6005 86.4697 42.4819 83.8034 43.0514 80.9488C43.4501 79.1025 43.3355 77.2425 43.1068 75.3181C42.7351 72.2773 42.0212 69.1814 42.8189 66.1793C41.1368 68.0606 39.9967 70.1787 39.2559 72.3843C38.686 73.9958 38.3158 75.6511 38.1452 77.35C37.6615 81.1507 38.1475 85.0847 38.7761 89.0301Z" fill="#5F7F54"/>
<path d="M51.1516 133.294C53.3916 133.959 55.7972 133.642 57.7048 132.506C58.5618 131.984 59.3911 131.244 60.4141 131.085C61.4372 130.926 62.4328 131.355 63.4284 131.919C63.6497 132.045 63.8709 132.17 64.0922 132.295C65.3644 133.016 66.609 133.788 67.8813 134.509C68.1023 134.097 67.8533 133.62 67.6319 133.226C66.8019 131.949 65.8614 130.745 64.8102 129.612C63.7867 128.562 62.5973 127.552 61.2699 127.069C60.7721 126.922 60.2743 126.774 59.7766 126.761C57.4538 126.654 55.7124 128.422 54.2198 129.994C53.1141 131.114 52.1467 132.246 51.1516 133.294Z" fill="#547249"/>
<path d="M52.9066 126.067C50.3469 124.286 47.7872 122.505 46.1905 120.268C45.1719 118.824 44.5935 117.23 44.1527 115.646C43.3814 113.075 42.8852 110.392 41.1233 108.062C43.27 109.276 45.0591 110.754 46.5456 112.395C47.6192 113.603 48.5552 114.933 49.2986 116.22C51.0332 119.403 52.0524 122.715 52.9066 126.067Z" fill="#547249"/>
<path d="M42.9575 101.312C43.6157 100.23 43.7584 98.8567 43.9299 97.5692C44.3299 94.7494 44.9304 91.9734 45.8745 89.2527C45.9889 88.902 46.1319 88.4982 46.2464 88.1474C46.6755 86.9359 47.1905 85.7036 47.6769 84.5244C48.335 82.8882 48.9931 81.2521 49.6511 79.616C48.9925 79.4523 48.3055 79.7571 47.7329 80.1265C45.9295 81.2553 44.7561 83.1546 43.8691 85.0769C43.6401 85.5016 43.4685 85.9585 43.2968 86.4154C42.5243 88.2638 41.9808 90.2414 41.781 92.2743C41.724 93.0727 41.7242 93.9033 41.8103 94.7132C41.9538 95.9707 42.4409 97.2835 42.4413 98.5295C42.4416 99.4986 42.2987 100.595 42.9575 101.312Z" fill="#5F7F54"/>
<path d="M55.0171 110.452C57.4282 109.958 59.8677 109.411 61.6545 108.151C62.8173 107.364 63.6963 106.278 64.4903 105.214C65.7663 103.389 66.872 101.469 68.8574 100.252C66.9 100.453 65.1698 101.056 63.5814 101.809C62.4469 102.406 61.3975 103.12 60.4616 103.898C58.2779 105.759 56.5766 108.1 55.0171 110.452Z" fill="#5F7F54"/>
<path d="M53.0363 123.843C55.9939 123.172 58.98 122.447 61.1126 120.826C62.4774 119.805 63.4725 118.506 64.2968 117.111C65.7182 114.882 66.8836 112.439 69.2152 110.861C66.7979 111.218 64.6366 111.927 62.8166 112.966C61.4517 113.711 60.229 114.605 59.1486 115.649C56.5612 117.978 54.7703 120.895 53.0363 123.843Z" fill="#5F7F54"/>
<path d="M52.4433 144.688C52.0704 141.346 51.4474 137.93 50.6573 134.556C40.8021 90.9993 33.3217 79.217 33.3217 79.217" stroke="#5F7F54" stroke-width="1.56178" stroke-miterlimit="10" stroke-linecap="round"/>
<path d="M24.7059 71.8891C24.8983 72.3301 25.1455 72.8022 25.3653 73.1923C26.519 75.0407 28.3041 76.5142 30.2264 77.5998C31.4346 78.2821 32.7527 78.8935 33.8238 79.6978C34.016 79.8728 34.2357 79.9969 34.4279 80.1719C34.9498 80.6661 35.8282 80.2313 35.6358 79.5242C34.811 76.1328 32.8058 72.9391 29.9222 70.7123C29.5102 70.4132 29.1532 70.1451 28.7413 69.846C26.819 68.4944 24.7868 67.2138 23.8801 65.1725C23.8534 67.4846 23.8267 69.7967 24.7059 71.8891Z" fill="#5F7F54"/>
<path d="M57.6942 83.7451C57.8902 84.1966 58.0862 84.648 58.2543 85.1516C58.8706 87.2704 58.7035 89.4893 58.1446 91.4861C57.8093 92.793 57.3062 94.0047 57.1667 95.3547C57.1109 95.5952 57.111 95.8674 57.139 96.0875C57.1393 96.7681 56.216 96.9931 55.7402 96.3829C53.6407 93.3549 52.6042 89.7048 52.9107 86.272C52.9385 85.8114 53.0503 85.3304 53.0781 84.8698C53.3851 82.6622 53.9159 80.4454 52.9918 78.3562C54.839 79.9482 56.6582 81.5924 57.6942 83.7451Z" fill="#5F7F54"/>
<path d="M22.4721 75.5702C22.5272 76.5296 22.8016 77.48 23.1307 78.4613C23.2679 78.8702 23.3776 79.1973 23.5422 79.5553C24.0633 80.9765 24.8311 82.3379 25.9825 83.3852C26.6954 84.0525 27.5177 84.5164 28.4223 84.9603C30.259 85.93 32.2052 86.6963 34.1787 87.0139C34.8365 87.1197 35.5218 87.1747 36.1248 87.3823C36.4811 87.517 36.8923 87.6826 37.1939 87.919C37.3584 88.0118 37.5228 88.1045 37.6598 87.9829C37.6872 87.9321 37.6872 87.7994 37.7146 87.7486C37.6323 87.3706 37.4129 86.9817 37.1661 86.6435C36.0146 85.1983 34.4246 84.1688 32.8894 83.1703C31.3817 82.1209 29.9013 81.0206 28.4484 79.8695C27.4066 79.0167 26.3923 78.113 25.5149 77.0876C25.4326 76.9749 25.3504 76.8622 25.2681 76.7495C24.3085 75.6115 23.5955 74.2811 23.3485 72.8819C22.6635 73.6227 22.4445 74.56 22.4721 75.5702Z" fill="#5F7F54"/>
<path d="M48.9319 103.73C48.6824 104.331 48.5716 104.943 48.5163 105.586C48.4609 105.824 48.461 106.094 48.4611 106.364C48.4337 107.36 48.4895 108.337 48.9338 109.263C49.2115 109.825 49.5724 110.367 50.0442 110.837C50.9325 111.88 51.904 112.903 53.0974 113.647C53.486 113.868 53.8745 114.088 54.2076 114.412C54.4019 114.589 54.5962 114.767 54.7627 114.996C54.7905 115.079 54.9293 115.225 55.0403 115.153C55.1235 115.133 55.0957 115.05 55.1235 114.998C55.1789 114.76 55.1233 114.458 55.0399 114.209C54.7343 113.024 54.0403 112.023 53.3462 111.022C52.6799 109.97 52.0691 108.949 51.4861 107.877C51.0418 107.085 50.6808 106.273 50.4031 105.441C50.3753 105.358 50.3475 105.275 50.3197 105.192C50.0974 104.256 49.9584 103.3 50.2355 102.378C49.5974 102.623 49.1537 103.181 48.9319 103.73Z" fill="#5F7F54"/>
<path d="M55.6355 104.273C55.7505 103.365 56.2977 102.631 56.8449 101.897C57.9392 100.29 58.8607 98.5858 59.5804 96.6988C59.6956 96.4858 59.7819 96.1871 59.8971 95.9741C60.2138 95.1105 60.5305 94.2469 60.8184 93.4365C61.2214 92.2742 61.6244 91.112 61.9987 90.0029C62.4309 90.3154 62.6327 90.776 62.748 91.2575C63.1517 92.7344 62.9216 94.2717 62.5187 95.7118C62.4323 96.0105 62.3172 96.3624 62.202 96.7143C61.7702 98.0688 61.1656 99.326 60.3592 100.4C60.0424 100.847 59.668 101.262 59.2359 101.644C58.5735 102.174 57.7957 102.64 57.1909 103.203C56.7012 103.552 56.2693 104.212 55.6355 104.273Z" fill="#5F7F54"/>
<path d="M29.7762 92.5853C30.0781 93.4859 30.4624 94.3665 30.9838 95.2582C31.0935 95.4529 31.2582 95.6785 31.3679 95.8732C32.685 97.6785 34.7698 98.9878 36.964 99.2969C38.1709 99.4469 39.3776 99.3314 40.5023 99.8997C41.0235 100.127 41.5173 100.539 42.0659 100.716C41.3249 99.3019 40.1726 98.1206 38.9381 97.092C37.7036 96.0635 36.332 95.1566 35.1249 94.0771C34.2195 93.2343 33.3416 92.3406 32.6556 91.3561C32.1617 90.6791 31.7227 90.0331 31.3934 89.3162C31.0915 88.6812 30.7347 88.0152 30.1861 87.5728C30.0489 87.429 29.8294 87.3052 29.6649 87.3451C29.1712 87.332 28.9794 87.9539 28.9521 88.4031C28.9251 89.7818 29.3095 91.1935 29.7762 92.5853Z" fill="#5F7F54"/>
<path d="M34.9479 110.649C35.3064 111.988 35.7476 113.307 36.2989 114.554C36.4367 114.832 36.6021 115.193 36.7399 115.472C38.1731 118.154 40.3498 120.12 42.526 120.616C43.7381 120.901 44.9776 120.733 46.0796 121.49C46.6031 121.853 47.0991 122.401 47.6776 122.661C46.9332 120.57 45.6381 118.835 44.3705 117.316C43.0478 115.766 41.6702 114.452 40.375 112.85C39.383 111.621 38.5287 110.269 37.7294 108.815C37.2333 107.866 36.7647 106.866 36.3236 105.814C35.9652 104.877 35.6344 103.887 35.0557 103.226C34.8628 103.05 34.67 102.874 34.4771 102.832C33.9813 102.819 33.8163 103.661 33.789 104.381C33.9274 106.53 34.3688 108.651 34.9479 110.649Z" fill="#5F7F54"/>
<path d="M33.8362 122.623C34.5479 123.817 35.3142 125.041 36.19 126.063C36.4089 126.319 36.6279 126.574 36.8468 126.83C38.9266 129.059 41.4713 130.426 43.6874 130.287C44.8638 130.222 45.9853 129.731 47.2987 130.206C47.9006 130.413 48.53 130.834 49.1592 130.99C47.8729 129.142 46.231 127.82 44.5619 126.682C42.8927 125.543 41.2509 124.618 39.6364 123.378C38.4051 122.486 37.1736 121.33 36.0516 120.103C35.3401 119.306 34.6011 118.427 33.9443 117.528C33.3696 116.742 32.7674 115.874 32.0013 115.31C31.7823 115.187 31.5634 115.064 31.3993 115.103C30.9069 115.222 31.0165 116.077 31.2082 116.78C31.7286 118.858 32.7414 120.816 33.8362 122.623Z" fill="#5F7F54"/>
<path d="M47.6192 92.8529C47.564 93.7652 47.5921 94.792 47.7588 95.6952C47.7866 95.9132 47.8698 96.1626 47.9531 96.4119C48.5361 98.562 50.0062 100.541 52.0304 101.621C53.0842 102.218 54.3319 102.589 55.2471 103.444C55.6631 103.882 55.9683 104.392 56.412 104.779C56.3006 103.233 55.6069 101.694 54.8301 100.31C53.9979 98.8948 53.0548 97.5515 52.3612 96.1474C51.7786 95.0758 51.3346 93.8806 51.057 92.7797C50.8904 92.0113 50.7237 91.2429 50.6403 90.4543C50.5846 89.7488 50.5289 89.0433 50.1405 88.4188C50.0296 88.2211 49.8909 88.0751 49.7245 87.9807C49.2531 87.7809 48.8651 88.235 48.6435 88.6485C47.9508 89.9407 47.7018 91.3497 47.6192 92.8529Z" fill="#5F7F54"/>
<path d="M50.9221 138.354C50.9221 138.354 56.5414 108.133 55.6343 96.8397" stroke="#5F7F54" stroke-width="1.04119" stroke-miterlimit="10" stroke-linecap="round"/>
<g filter="url(#filter0_d)">
<path d="M58.4478 133.103L118.782 180.323C120.574 181.727 122.627 182.473 124.724 182.473L163.214 182.517C165.311 182.517 167.365 181.771 169.156 180.367L229.578 133.235C232.199 131.172 234.428 128.319 235.957 124.896L239.67 116.207L47.8313 116.076L52.0691 124.765C53.5983 128.188 55.8264 131.04 58.4478 133.103Z" fill="#4668C2"/>
<path d="M58.5968 99.1764L119.032 52.244C120.824 50.8457 122.878 50.1028 124.975 50.1028L163.474 50.1465C165.571 50.1465 167.625 50.8894 169.417 52.2877L229.764 99.3075C232.386 101.361 234.571 104.202 236.144 107.61L239.815 116.263L47.9343 116.131L52.2168 107.479C53.7899 104.071 55.9749 101.23 58.5968 99.1764Z" fill="#4668C2"/>
<path d="M229.467 13.886H59.225V206.613H229.467V13.886Z" fill="white"/>
<path d="M225.184 19.2397H63.5081V217.32H225.184V19.2397Z" stroke="#D8DDE9" stroke-width="1.0707" stroke-miterlimit="10"/>
<path d="M223.043 21.3811H65.6494V215.179H223.043V21.3811Z" stroke="#D8DDE9" stroke-width="1.0707" stroke-miterlimit="10"/>
<path d="M221.637 119.322C219.233 119.715 216.961 120.764 214.951 122.381L165.353 161.971L164.391 162.758L143.897 179.101L123.402 162.714L122.397 161.928L72.8864 122.249C70.8762 120.633 68.6039 119.584 66.2005 119.19L47.9781 116.132L47.8907 227.913L143.678 228H143.897L239.684 228.088L239.771 116.306L221.637 119.322Z" fill="#5C7CFA"/>
<path opacity="0.3" d="M229.109 214.322L168.718 176.305C166.926 175.168 164.872 174.6 162.775 174.6L124.276 174.557C122.179 174.557 120.125 175.168 118.333 176.261L57.9416 214.235C55.3196 215.896 53.091 218.212 51.5616 220.965L47.8472 227.956L239.728 228.087L235.489 221.096C233.916 218.299 231.731 215.983 229.109 214.322Z" fill="#606060"/>
<path d="M229.109 214.847L168.718 178.271C166.926 177.179 164.872 176.611 162.775 176.611L124.276 176.567C122.179 176.567 120.125 177.135 118.333 178.227L57.9416 214.716C55.3196 216.289 53.091 218.518 51.5616 221.183L47.8472 227.913L239.728 228.044L235.489 221.314C233.916 218.692 231.731 216.464 229.109 214.847Z" fill="#5C7CFA"/>
</g>
<path d="M143.812 92.4398C143.812 92.4398 143.88 94.1742 143.948 97.235C144.016 100.296 144.118 104.649 144.118 109.886C144.118 111.213 144.118 112.573 144.05 114.001C144.05 114.342 144.016 114.716 144.016 115.09C143.982 115.464 143.982 115.804 143.948 116.212C143.914 116.586 143.88 116.96 143.88 117.334C143.88 117.504 143.846 117.674 143.846 117.878C143.846 118.049 143.812 118.253 143.812 118.423C143.744 119.885 143.676 121.449 143.506 123.082C143.37 124.68 143.132 126.347 142.758 128.047C142.384 129.714 141.84 131.414 141.057 133.08C140.649 133.897 140.207 134.713 139.697 135.461C139.187 136.243 138.575 136.958 137.929 137.638C136.602 138.998 135.038 140.12 133.371 140.937C131.671 141.753 129.868 142.331 128.066 142.671C127.828 142.705 127.624 142.739 127.386 142.807L127.216 142.841L127.046 142.875L126.706 142.909C126.23 142.977 125.787 143.011 125.311 143.045C124.359 143.113 123.407 143.079 122.455 142.943C121.502 142.807 120.516 142.603 119.598 142.195C118.68 141.787 117.761 141.175 117.047 140.324C116.707 139.882 116.401 139.406 116.197 138.862C115.993 138.352 115.891 137.774 115.857 137.23C115.789 136.141 116.027 135.121 116.367 134.237C116.707 133.319 117.183 132.536 117.693 131.788C118.203 131.04 118.782 130.36 119.36 129.748C120.55 128.489 121.808 127.401 123.101 126.449C124.393 125.462 125.719 124.612 127.012 123.83C128.304 123.048 129.596 122.3 130.855 121.653C132.113 120.973 133.337 120.361 134.528 119.817C136.908 118.695 139.153 117.742 141.125 116.96C143.098 116.178 144.866 115.532 146.295 115.022C147.757 114.512 148.879 114.137 149.662 113.865C150.036 113.729 150.342 113.627 150.546 113.559C150.75 113.491 150.852 113.457 150.852 113.457C151.464 113.253 152.11 113.559 152.314 114.137C152.518 114.75 152.212 115.396 151.634 115.6C151.6 115.6 151.6 115.6 151.566 115.634C151.566 115.634 151.464 115.668 151.26 115.736C151.056 115.804 150.75 115.872 150.376 116.008C149.594 116.246 148.471 116.586 147.043 117.096C145.615 117.606 143.88 118.219 141.942 119.001C139.969 119.783 137.793 120.667 135.446 121.755C133.099 122.844 130.617 124.136 128.168 125.701C126.944 126.483 125.685 127.333 124.495 128.285C123.305 129.237 122.148 130.258 121.128 131.414C120.108 132.57 119.19 133.829 118.714 135.189C118.475 135.869 118.339 136.515 118.407 137.128C118.475 137.74 118.68 138.284 119.054 138.726C119.428 139.168 120.006 139.542 120.652 139.814C121.298 140.086 122.046 140.256 122.795 140.324C123.543 140.392 124.359 140.392 125.141 140.324C125.549 140.29 125.957 140.256 126.332 140.188L126.638 140.154L126.944 140.086C127.148 140.052 127.352 140.018 127.556 139.984C129.154 139.644 130.719 139.134 132.113 138.42C133.507 137.706 134.8 136.753 135.82 135.631C136.874 134.509 137.725 133.217 138.371 131.822C139.017 130.428 139.459 128.931 139.799 127.435C140.105 125.939 140.309 124.408 140.411 122.878C140.513 121.347 140.581 119.851 140.615 118.321C140.615 118.117 140.615 117.946 140.649 117.742C140.649 117.538 140.683 117.368 140.683 117.164C140.717 116.824 140.717 116.45 140.751 116.11C140.785 115.77 140.785 115.396 140.785 115.056C140.785 114.716 140.819 114.376 140.819 114.001C140.819 112.607 140.819 111.281 140.785 109.988C140.717 104.819 140.513 100.466 140.377 97.4391C140.241 94.4123 140.173 92.6778 140.173 92.6778C140.139 91.6575 140.921 90.8073 141.942 90.7393C142.894 90.6373 143.744 91.4195 143.812 92.4398Z" fill="url(#paint0_linear)"/>
<path d="M143.234 108.696C143.268 108.866 143.268 109.036 143.268 109.172C143.268 109.308 143.268 109.478 143.268 109.614C143.268 109.92 143.234 110.192 143.2 110.499C143.132 111.077 142.996 111.655 142.792 112.233C142.418 113.389 141.738 114.478 140.819 115.328C140.377 115.77 139.867 116.11 139.323 116.416C138.779 116.722 138.235 116.96 137.657 117.13C137.078 117.3 136.5 117.436 135.922 117.538L135.718 117.572L135.616 117.606H135.582H135.514H135.48C135.344 117.606 135.242 117.64 135.038 117.64H134.766H134.528C134.358 117.64 134.188 117.64 134.052 117.606C133.371 117.538 132.691 117.368 132.011 117.028C131.365 116.654 130.787 116.144 130.413 115.532C130.005 114.954 129.767 114.308 129.596 113.695C129.426 113.083 129.324 112.471 129.29 111.893C129.188 110.703 129.256 109.58 129.358 108.492C129.426 107.948 129.494 107.404 129.596 106.86C129.631 106.588 129.699 106.315 129.767 106.043C129.835 105.771 129.903 105.499 129.971 105.193V105.159L130.005 105.091C130.039 104.955 130.107 104.751 130.175 104.581C130.243 104.411 130.277 104.241 130.311 104.037C130.413 103.663 130.481 103.323 130.549 102.949C130.685 102.234 130.753 101.52 130.753 100.84C130.753 100.16 130.651 99.5136 130.481 99.0715C130.379 98.8335 130.277 98.6634 130.141 98.5274C130.005 98.3913 129.869 98.2893 129.665 98.1873C129.29 98.0172 128.712 97.9152 128.066 97.9832C127.42 98.0172 126.74 98.1533 126.026 98.3573C124.631 98.7314 123.203 99.3436 121.808 100.024C119.054 101.384 116.435 103.085 114.19 105.125C113.068 106.145 112.048 107.268 111.198 108.458C110.347 109.648 109.633 110.941 109.293 112.233C108.919 113.525 108.919 114.818 109.395 115.974C109.463 116.11 109.531 116.246 109.599 116.382C109.633 116.45 109.667 116.518 109.701 116.586L109.769 116.688C109.701 116.62 109.769 116.688 109.735 116.654L109.769 116.688L109.803 116.756L109.973 116.994L110.041 117.13L110.109 117.232C110.211 117.334 110.279 117.47 110.381 117.572C110.79 118.083 111.3 118.491 111.844 118.865C112.966 119.579 114.326 119.953 115.755 120.055C116.469 120.089 117.183 120.089 117.897 119.987C118.612 119.885 119.326 119.749 120.006 119.511C120.346 119.409 120.686 119.273 120.992 119.137C121.162 119.069 121.298 119.001 121.434 118.899L121.638 118.797L121.774 118.729L121.876 118.661C122.455 118.287 122.999 117.776 123.475 117.266C123.951 116.756 124.393 116.178 124.733 115.566C125.073 114.988 125.311 114.342 125.345 113.797C125.379 113.525 125.345 113.321 125.277 113.117C125.209 112.947 125.107 112.811 124.937 112.641C124.767 112.505 124.563 112.369 124.291 112.267C124.155 112.233 123.985 112.165 123.849 112.131L123.713 112.097C123.645 112.097 123.645 112.097 123.611 112.097C123.543 112.097 123.509 112.063 123.441 112.063C123.169 112.029 122.931 112.063 122.693 112.131C122.489 112.199 122.285 112.301 122.115 112.437C121.944 112.573 121.774 112.777 121.638 113.015C121.57 113.117 121.502 113.253 121.468 113.389C121.434 113.457 121.434 113.525 121.4 113.593L121.366 113.695V113.729C121.366 113.729 121.366 113.763 121.366 113.729C121.128 114.512 120.312 114.954 119.564 114.716C118.782 114.478 118.34 113.661 118.578 112.913C118.612 112.845 118.612 112.811 118.612 112.777L118.646 112.675C118.68 112.607 118.714 112.539 118.748 112.471C118.816 112.335 118.85 112.233 118.918 112.131C119.054 111.893 119.19 111.689 119.36 111.451C119.666 111.009 120.074 110.601 120.55 110.294C121.026 109.954 121.57 109.716 122.149 109.58C122.727 109.444 123.271 109.444 123.815 109.512C124.053 109.546 124.427 109.614 124.563 109.682C124.835 109.75 125.039 109.818 125.277 109.92C125.753 110.124 126.23 110.363 126.706 110.771C127.148 111.145 127.522 111.689 127.726 112.267C127.93 112.845 127.998 113.457 127.93 113.967C127.828 115.056 127.454 115.94 127.012 116.756C126.57 117.572 126.026 118.287 125.447 118.967C124.835 119.647 124.189 120.225 123.441 120.769L123.169 120.973C123.067 121.041 122.965 121.109 122.863 121.177C122.659 121.313 122.455 121.415 122.251 121.517C121.842 121.721 121.4 121.892 120.992 122.028C119.292 122.606 117.557 122.878 115.755 122.81C114.871 122.776 113.952 122.64 113.068 122.436C112.184 122.198 111.3 121.858 110.483 121.347C109.667 120.871 108.919 120.259 108.273 119.545C108.103 119.375 107.967 119.171 107.797 118.967L107.695 118.831L107.593 118.695L107.423 118.457L107.321 118.287L107.219 118.117C107.151 118.015 107.083 117.912 107.049 117.81C106.913 117.606 106.81 117.368 106.708 117.13C106.3 116.212 106.096 115.226 106.062 114.24C106.028 113.253 106.13 112.301 106.368 111.383C106.844 109.58 107.695 107.982 108.715 106.553C109.735 105.125 110.892 103.867 112.15 102.71C113.408 101.554 114.769 100.534 116.163 99.6157C117.557 98.6974 119.054 97.8812 120.55 97.133C122.081 96.4188 123.611 95.7727 125.311 95.2965C126.162 95.0585 127.046 94.8884 128.032 94.8544C128.508 94.8204 129.018 94.8544 129.528 94.9224C130.039 94.9904 130.583 95.1605 131.127 95.3985C131.671 95.6366 132.181 96.0107 132.589 96.4868C132.997 96.929 133.303 97.4731 133.508 97.9832C133.916 99.0035 134.018 100.024 133.984 100.942C133.984 101.894 133.848 102.778 133.678 103.629C133.576 104.071 133.474 104.479 133.371 104.887C133.303 105.091 133.235 105.295 133.201 105.499C133.133 105.703 133.065 105.907 132.963 106.145L132.997 106.043C132.929 106.247 132.861 106.485 132.827 106.724C132.759 106.962 132.725 107.2 132.657 107.438C132.555 107.914 132.487 108.39 132.419 108.866C132.283 109.818 132.215 110.771 132.283 111.689C132.317 112.131 132.385 112.573 132.487 112.981C132.589 113.389 132.725 113.729 132.895 114.001C133.065 114.274 133.269 114.478 133.542 114.648C133.814 114.784 134.12 114.886 134.494 114.954C134.596 114.954 134.664 114.988 134.766 114.988H134.902H135.038C135.106 114.988 135.276 114.988 135.378 114.954H135.412C135.412 114.954 135.446 114.954 135.378 114.954H135.412H135.514L135.684 114.92C136.16 114.886 136.602 114.784 137.01 114.648C137.419 114.512 137.861 114.376 138.235 114.172C138.609 113.967 138.949 113.729 139.289 113.457C139.935 112.913 140.411 112.199 140.717 111.383C140.887 110.975 140.99 110.533 141.092 110.09C141.126 109.852 141.16 109.648 141.194 109.41C141.194 109.308 141.194 109.172 141.228 109.07C141.228 108.968 141.228 108.832 141.228 108.764V108.696C141.194 108.084 141.67 107.574 142.282 107.574C142.69 107.676 143.166 108.118 143.234 108.696Z" fill="url(#paint1_linear)"/>
<path fill-rule="evenodd" clip-rule="evenodd" d="M159.66 74.9251C159.66 69.8238 159.66 64.7224 159.66 59.5871C159.66 58.8729 159.456 58.1247 159.558 57.4105C159.728 56.3222 161.463 55.2339 162.517 55.54C162.755 55.608 162.993 56.0842 162.993 56.3562C162.925 61.5256 162.789 66.695 162.687 71.8303C162.653 73.8709 162.619 75.8774 162.687 77.9179C162.721 79.0062 162.313 79.6184 161.293 79.9245C160 80.2986 159.456 80.1965 158.844 79.1082C156.872 75.7073 154.899 72.3064 152.961 68.9055C152.348 67.8173 151.77 66.729 151.158 65.6407C151.056 65.6407 150.954 65.6407 150.852 65.6407C150.716 66.763 150.444 67.8853 150.478 69.0076C150.546 73.5308 150.716 78.088 150.818 82.6112C150.852 83.6995 149.22 85.0258 148.199 84.6857C147.893 84.5837 147.519 83.9715 147.519 83.5974C147.553 81.4208 147.757 79.2783 147.791 77.1017C147.859 73.4968 147.859 69.9258 147.859 66.3209C147.859 66.0148 147.791 65.7087 147.723 65.4026C147.587 64.8245 147.349 64.6884 146.669 64.8925C144.322 65.6747 141.976 65.7427 139.833 64.2123C137.963 62.886 138.065 59.4851 140.003 58.6348C140.241 58.5328 140.751 58.6348 140.955 58.8389C141.125 58.9749 141.125 59.4851 140.989 59.7231C140.003 61.4916 140.921 63.124 142.962 63.3281C144.526 63.4981 145.819 62.8519 147.043 62.0697C149.39 60.5053 151.022 58.3968 151.328 55.472C151.43 54.3497 151.532 53.1934 151.362 52.1051C150.988 49.9285 149.322 49.0783 147.383 48.6362C145.002 48.0921 142.69 48.6362 140.343 49.0103C134.494 49.9625 129.528 52.9553 124.937 56.4583C121.808 58.8389 118.952 61.5596 116.027 64.1783C111.946 67.8513 107.899 71.5582 103.852 75.2652C103.546 75.5373 103.307 76.0134 103.307 76.3875C103.171 82.6452 103.103 88.8688 103.001 95.1265C102.967 96.7249 102.865 98.3233 102.763 99.9217C102.695 100.806 101.675 101.792 100.825 101.894C100.111 101.996 100.009 101.52 100.009 100.976C100.043 99.7517 100.077 98.5274 100.111 97.303C100.213 92.1677 100.349 87.0323 100.417 81.931C100.417 80.8087 100.281 79.6864 100.213 78.4281C98.8523 79.2443 97.5939 80.0265 96.3696 80.7407C94.3631 81.931 92.2205 82.7132 89.9079 82.8492C87.6973 82.9853 86.0309 81.999 84.9766 79.9925C83.1741 76.5576 84.2284 71.8303 88.2415 70.2659C89.8739 69.6197 91.6084 69.7558 92.3906 70.776C92.6286 71.0481 92.7647 71.7283 92.5946 71.9323C92.3226 72.2724 91.7104 72.6125 91.3023 72.5445C88.9217 72.0684 88.0374 72.4765 87.2212 74.7211C86.7451 76.0814 86.575 77.5098 87.1532 78.9042C87.5613 79.8564 88.1735 80.4686 89.2958 80.6046C91.7444 80.8767 93.853 80.0945 95.6554 78.5641C100.451 74.6871 105.11 70.64 109.735 66.5929C114.224 62.6819 118.543 58.5668 123.101 54.7578C127.148 51.3569 131.739 48.8062 136.84 47.2758C139.969 46.3236 143.234 46.0175 146.431 46.3916C148.029 46.5616 149.628 47.3098 151.09 48.024C153.233 49.0443 154.389 52.7853 153.879 54.7578C153.403 56.6963 152.688 58.5668 152.11 60.4713C152.008 60.8454 151.974 61.3556 152.144 61.6616C154.525 66.1168 156.906 70.538 159.32 74.9591C159.456 74.9591 159.558 74.9251 159.66 74.9251Z" fill="url(#paint2_linear)"/>
<path d="M100.689 102.37C100.383 102.37 100.111 102.268 99.9068 102.064C99.6007 101.758 99.6007 101.316 99.6007 100.976C99.6007 100.364 99.6347 99.7857 99.6687 99.1735C99.7027 98.5613 99.7027 97.9152 99.7367 97.303L99.8047 94.2082C99.9068 90.1951 99.9748 86.012 100.043 81.9309C100.043 81.1827 99.9748 80.4345 99.9068 79.6523C99.9068 79.4823 99.8727 79.3463 99.8727 79.1762L99.1926 79.5843C98.3083 80.1285 97.4921 80.6386 96.6419 81.1147C94.4653 82.4411 92.2207 83.1553 89.9761 83.2913C87.5955 83.4273 85.759 82.339 84.6367 80.1965C83.6165 78.258 83.4464 75.8773 84.1946 73.8368C84.8748 72.0003 86.2692 70.5719 88.1396 69.8578C88.8538 69.5857 89.568 69.4496 90.2482 69.4496C91.3705 69.4496 92.2547 69.8237 92.7989 70.5379C93.0709 70.878 93.343 71.7963 93.0029 72.2384C92.6968 72.6125 92.0507 73.0206 91.5065 73.0206C91.4385 73.0206 91.3705 73.0206 91.3025 72.9866C90.7243 72.8846 90.2822 72.8165 89.9421 72.8165C88.9899 72.8165 88.3777 73.1226 87.7315 74.8911C87.2214 76.3535 87.1874 77.6118 87.6635 78.7341C88.0376 79.6183 88.5818 80.0604 89.466 80.1625C91.6426 80.4005 93.6831 79.7544 95.4856 78.224C99.7027 74.653 104.294 70.708 109.497 66.1508C111.232 64.6204 112.966 63.056 114.667 61.5256C117.319 59.1109 120.108 56.6283 122.897 54.2816C127.046 50.7787 131.739 48.2621 136.772 46.7316C139.935 45.7794 143.268 45.4733 146.567 45.8474C148.234 46.0175 149.798 46.7657 151.328 47.5139L151.362 47.5479C152.451 48.058 153.369 49.2143 153.981 50.8127C154.491 52.2071 154.661 53.7375 154.389 54.7918C154.083 55.9821 153.709 57.1724 153.335 58.3287C153.097 59.0429 152.859 59.7911 152.621 60.5393C152.519 60.8454 152.519 61.2195 152.621 61.3895C154.525 64.9605 156.498 68.5994 158.368 72.1023L159.252 73.7348V71.1161C159.252 67.2391 159.252 63.396 159.252 59.519C159.252 59.247 159.218 58.9749 159.184 58.7028C159.116 58.2607 159.082 57.7846 159.15 57.3084C159.32 56.0841 160.953 55.0298 162.143 55.0298C162.313 55.0298 162.483 55.0638 162.653 55.0979C163.129 55.2339 163.47 55.9481 163.436 56.3562C163.402 59.417 163.333 62.5118 163.265 65.5046C163.231 67.6132 163.163 69.7217 163.129 71.8643C163.095 73.8028 163.061 75.8773 163.129 77.9179C163.163 79.2102 162.619 80.0264 161.429 80.3665C160.919 80.5366 160.545 80.6046 160.239 80.6046C159.32 80.6046 158.844 80.0264 158.47 79.3803C156.77 76.4895 155.103 73.5647 153.471 70.708L152.587 69.1436C152.145 68.3954 151.736 67.6132 151.328 66.899C151.26 66.7969 151.226 66.6949 151.158 66.5929C151.158 66.6609 151.124 66.7289 151.124 66.7969C150.988 67.5792 150.886 68.2933 150.886 69.0415C150.92 72.0683 151.022 75.1291 151.09 78.0879C151.124 79.6183 151.192 81.1147 151.226 82.6451C151.226 83.1893 150.954 83.7674 150.478 84.2776C149.764 85.0258 148.778 85.3658 148.029 85.1278C147.485 84.9577 147.043 84.1415 147.077 83.5974C147.111 82.4751 147.145 81.3868 147.213 80.2985C147.281 79.2442 147.315 78.19 147.349 77.1357C147.417 74.2789 147.417 71.3882 147.417 68.5994V66.3888C147.417 66.1508 147.383 65.8787 147.315 65.5726C147.281 65.3686 147.213 65.3346 147.213 65.3006C147.213 65.3006 147.213 65.3006 147.179 65.3006C147.111 65.3006 147.009 65.3005 146.805 65.3686C145.649 65.7427 144.629 65.9467 143.608 65.9467C142.112 65.9467 140.752 65.5046 139.561 64.6544C138.507 63.9062 137.895 62.4438 138.065 61.0154C138.201 59.7571 138.847 58.7708 139.799 58.3627C140.207 58.1927 140.888 58.3287 141.228 58.6348C141.568 58.9409 141.534 59.6891 141.364 60.0292C140.99 60.7433 140.922 61.4235 141.194 61.9677C141.5 62.5458 142.146 62.9199 142.996 63.0219C143.166 63.056 143.302 63.056 143.472 63.056C144.765 63.056 145.887 62.4438 146.805 61.8316C149.288 60.1652 150.648 58.1247 150.92 55.54C151.022 54.4177 151.124 53.3294 150.954 52.2751C150.682 50.6087 149.594 49.6904 147.315 49.1803C146.669 49.0443 146.023 48.9762 145.275 48.9762C143.982 48.9762 142.656 49.2143 141.398 49.4184C141.092 49.4864 140.786 49.5204 140.445 49.5884C134.188 50.6087 129.018 54.0436 125.209 56.9343C122.727 58.8048 120.38 60.9474 118.102 63.0219C117.523 63.5661 116.911 64.1102 116.299 64.6204C112.15 68.2253 108.035 72.0003 104.158 75.5713C103.954 75.7753 103.75 76.1494 103.75 76.3875C103.682 80.0264 103.614 83.7334 103.58 87.3384C103.546 89.923 103.512 92.5417 103.444 95.1264C103.41 96.7248 103.308 98.3233 103.206 99.8877V99.9557C103.138 101.01 101.981 102.234 100.893 102.336C100.825 102.37 100.757 102.37 100.689 102.37ZM100.621 77.7138L100.655 78.428C100.689 78.8361 100.723 79.2102 100.757 79.5843C100.825 80.4005 100.893 81.1827 100.893 81.965C100.825 86.08 100.723 90.2291 100.655 94.2422L100.587 97.337C100.587 97.9492 100.553 98.5953 100.519 99.2075C100.485 99.8197 100.485 100.398 100.451 101.01C100.451 101.35 100.485 101.452 100.519 101.452C100.553 101.486 100.655 101.486 100.757 101.486C101.437 101.418 102.287 100.534 102.321 99.8877V99.8197C102.423 98.2552 102.525 96.6568 102.559 95.0924C102.593 92.5077 102.627 89.889 102.695 87.3044C102.764 83.7334 102.798 79.9924 102.866 76.3535C102.866 75.8773 103.172 75.2652 103.546 74.9251C107.423 71.3541 111.538 67.5792 115.687 63.8722C116.299 63.328 116.877 62.8179 117.455 62.2738C119.734 60.1992 122.115 58.0566 124.631 56.1521C128.508 53.1934 133.814 49.6904 140.241 48.6361C140.547 48.6021 140.854 48.5341 141.16 48.4661C142.486 48.228 143.812 47.99 145.207 47.99C146.023 47.99 146.737 48.058 147.451 48.228C149.084 48.6021 151.328 49.4184 151.77 52.037C151.975 53.1934 151.872 54.3837 151.736 55.54C151.43 58.3287 149.934 60.6753 147.247 62.4438C146.227 63.124 144.969 63.8042 143.438 63.8042C143.234 63.8042 143.064 63.8042 142.86 63.7701C141.704 63.6341 140.82 63.09 140.377 62.2738C139.969 61.4575 140.037 60.4713 140.547 59.519C140.581 59.451 140.581 59.247 140.581 59.1449C140.479 59.0769 140.309 59.0429 140.173 59.0429C140.139 59.0429 140.105 59.0429 140.105 59.0429C139.425 59.349 138.983 60.0632 138.881 61.0154C138.745 62.1717 139.221 63.294 140.037 63.8722C141.092 64.6544 142.282 65.0285 143.574 65.0285C144.459 65.0285 145.411 64.8584 146.499 64.5183C146.737 64.4503 146.941 64.3823 147.145 64.3823C147.893 64.3823 148.063 65.0625 148.131 65.3006C148.234 65.7087 148.268 66.0147 148.268 66.3208V68.5314C148.268 71.3201 148.268 74.2449 148.2 77.1017C148.165 78.1559 148.131 79.2442 148.063 80.2985C147.995 81.3868 147.961 82.4751 147.927 83.5634C147.927 83.7674 148.165 84.1755 148.302 84.2435C148.37 84.2776 148.438 84.2776 148.54 84.2776C148.948 84.2776 149.458 84.0055 149.866 83.5974C150.206 83.2573 150.376 82.8832 150.376 82.5771C150.342 81.0467 150.308 79.5503 150.24 78.0199C150.172 75.0611 150.07 72.0003 150.036 68.9735C150.036 68.1573 150.138 67.3751 150.274 66.5929C150.342 66.2528 150.376 65.8787 150.41 65.5386L150.444 65.1305L151.396 65.1645L151.532 65.3686C151.702 65.7087 151.906 66.0487 152.077 66.3888C152.485 67.137 152.893 67.8852 153.335 68.6334L154.219 70.1978C155.852 73.0546 157.518 75.9794 159.218 78.8701C159.627 79.5503 159.865 79.6863 160.239 79.6863C160.477 79.6863 160.749 79.6183 161.191 79.5163C162.007 79.2782 162.313 78.8361 162.279 77.9179C162.211 75.8433 162.245 73.7688 162.279 71.8303C162.313 69.7217 162.381 67.6132 162.415 65.4706C162.483 62.4778 162.551 59.383 162.585 56.3222C162.585 56.2202 162.483 55.9821 162.381 55.9141C162.313 55.8801 162.211 55.8801 162.143 55.8801C161.259 55.8801 160.103 56.7303 160.001 57.4105C159.933 57.7846 160.001 58.1587 160.035 58.6008C160.069 58.9069 160.103 59.2129 160.103 59.519C160.103 63.396 160.103 67.2391 160.103 71.1161V75.2652L159.116 75.3672L157.586 72.5105C155.681 69.0075 153.709 65.3686 151.804 61.7976C151.566 61.3555 151.6 60.7093 151.736 60.2672C151.975 59.519 152.213 58.7708 152.451 58.0226C152.825 56.9003 153.199 55.71 153.505 54.5537C153.947 52.8193 152.927 49.2483 150.954 48.2961L150.92 48.2621C149.458 47.5819 147.927 46.8337 146.431 46.6976C143.268 46.3575 140.071 46.6296 137.011 47.5819C132.079 49.0783 127.488 51.5609 123.441 54.9958C120.652 57.3424 117.898 59.8251 115.245 62.2057C113.544 63.7361 111.81 65.3006 110.075 66.831C104.804 71.4562 100.247 75.4012 96.0297 78.9722C94.0232 80.6726 91.7786 81.3868 89.33 81.1147C88.1396 80.9787 87.3234 80.3325 86.8133 79.1422C86.2692 77.7818 86.2692 76.3195 86.8813 74.653C87.4595 73.0206 88.1737 72.0003 89.9081 72.0003C90.3162 72.0003 90.8264 72.0683 91.4385 72.1704H91.4725C91.6766 72.1704 92.0847 71.9663 92.2887 71.7282C92.2887 71.5922 92.2207 71.2181 92.1187 71.0821C91.7446 70.606 91.0984 70.3339 90.2482 70.3339C89.6701 70.3339 89.0579 70.4699 88.4457 70.674C86.8473 71.2861 85.623 72.5445 85.0108 74.1429C84.3306 75.9454 84.4667 78.0539 85.3849 79.7884C86.3712 81.6249 87.9016 82.5091 89.9081 82.4071C92.0167 82.271 94.1252 81.5909 96.1658 80.3665C97.016 79.8564 97.8322 79.3463 98.7164 78.8361L100.621 77.7138Z" fill="url(#paint3_linear)"/>
<path fill-rule="evenodd" clip-rule="evenodd" d="M161.837 100.568C164.183 99.8537 165.51 98.1872 166.224 96.1807C167.108 93.7321 167.482 91.1814 166.938 88.5967C166.768 87.7805 166.666 86.9643 166.598 86.1141C166.53 85.4339 167.482 84.8897 168.503 84.8217C169.353 84.7877 169.659 85.1958 169.625 85.944C169.523 88.0186 169.353 90.1271 169.319 92.2017C169.251 94.8204 169.183 97.439 169.319 100.058C169.387 101.316 169.727 102.71 170.373 103.799C171.835 106.281 174.386 106.383 176.359 104.275C177.481 103.051 177.957 101.588 177.855 99.8877C177.719 97.269 177.719 94.6503 177.617 92.0316C177.549 89.9231 177.413 87.7805 177.243 85.6719C177.209 85.2978 176.937 84.9237 176.733 84.5496C176.291 83.7674 176.461 83.1553 177.277 82.7812C177.515 82.6451 177.787 82.5091 178.059 82.4751C178.841 82.3731 179.624 82.3391 180.406 82.3051C180.406 82.9852 180.474 83.6994 180.44 84.3796C180.1 89.1409 179.658 93.9021 180.678 98.6634C181.256 101.282 182.684 102.676 184.963 103.017C187.174 103.357 189.792 102.03 191.051 100.092C192.003 98.5954 192.207 96.9969 191.969 95.2965C191.799 94.0382 189.452 92.0996 188.194 92.3377C187.718 92.4397 187.174 93.0179 186.969 93.494C186.663 94.2082 186.289 94.8204 185.473 94.5823C184.657 94.3782 184.589 93.596 184.691 92.8818C184.929 91.3514 186.153 90.3312 187.718 90.1951C191.731 89.855 194.792 93.6641 194.179 97.5071C193.771 99.9557 193.091 102.132 191.153 103.697C190.37 104.343 189.384 104.853 188.398 105.057C185.065 105.737 182.922 105.499 180.032 103.527C178.263 106.417 176.053 108.798 172.278 107.982C168.299 107.132 166.87 104.309 167.278 100.16C166.564 100.704 166.088 101.146 165.578 101.486C164.694 102.064 163.843 102.71 162.891 103.051C161.939 103.391 161.701 103.969 161.599 104.819C161.191 107.642 160.204 110.26 158.368 112.471C156.769 114.376 154.797 115.362 152.28 114.886C150.818 114.614 149.696 113.729 148.743 112.607C147.111 110.635 146.125 108.356 145.819 105.805C145.615 104.241 145.479 102.642 145.479 101.044C145.513 97.337 146.533 93.9361 148.845 90.9433C151.6 87.4064 155.919 87.3724 158.708 90.8753C160.817 93.7661 161.531 96.9969 161.837 100.568ZM150.444 92.0656C149.968 92.9499 149.458 93.8341 149.083 94.7863C147.995 97.5071 147.689 100.364 147.825 103.221C147.995 106.111 148.539 108.9 150.342 111.349C151.838 113.389 154.117 113.627 155.919 111.859C157.926 109.92 158.504 107.336 159.116 104.751C159.15 104.547 158.742 104.173 158.47 103.969C158.3 103.867 157.994 104.003 157.756 103.935C154.695 103.051 152.552 101.146 151.634 98.1192C151.056 96.2147 150.852 94.2082 150.444 92.0656ZM154.151 89.855C153.811 90.2972 153.505 90.5352 153.437 90.8073C153.233 91.5895 153.063 92.3717 153.029 93.1539C152.79 97.4731 154.559 99.5136 158.368 100.67C159.014 100.874 159.524 100.704 159.32 99.7517C159.082 98.7314 158.98 97.6431 158.81 96.5888C158.47 94.6843 157.79 92.8818 156.463 91.4875C155.851 90.8753 155.035 90.4672 154.151 89.855Z" fill="url(#paint4_linear)"/>
<path d="M153.369 115.532C152.961 115.532 152.519 115.498 152.11 115.43C150.716 115.158 149.458 114.376 148.335 113.015C146.669 110.975 145.649 108.628 145.309 106.009C145.139 104.581 144.969 102.881 144.969 101.18C145.037 97.1671 146.193 93.6982 148.403 90.8074C149.832 88.9709 151.702 87.9507 153.709 87.9507C155.681 87.9507 157.518 88.9369 158.946 90.7394C161.225 93.5962 161.905 96.963 162.211 99.9898C163.912 99.3437 165.102 98.0173 165.816 96.0448C166.768 93.3921 167.006 90.9775 166.53 88.6989C166.36 87.9167 166.258 87.1004 166.19 86.1822C166.156 85.8761 166.292 85.536 166.53 85.264C166.938 84.7878 167.687 84.4818 168.503 84.4137C169.047 84.3797 169.455 84.5158 169.727 84.7878C169.999 85.0599 170.101 85.468 170.101 85.9781C170.067 86.7944 170.033 87.6446 169.965 88.4608C169.897 89.6851 169.829 90.9775 169.795 92.2358V92.882C169.727 95.2286 169.693 97.6772 169.829 100.024C169.897 101.316 170.271 102.609 170.815 103.561C171.496 104.683 172.414 105.295 173.434 105.295C174.352 105.295 175.271 104.819 176.087 103.935C177.107 102.847 177.549 101.486 177.481 99.8538C177.413 98.3234 177.379 96.759 177.345 95.2626C177.311 94.2083 177.311 93.086 177.243 91.9977C177.175 89.8892 177.039 87.7806 176.869 85.6381C176.869 85.434 176.699 85.1959 176.563 84.9579C176.529 84.8899 176.461 84.7878 176.427 84.7198C176.121 84.2097 176.053 83.7336 176.189 83.3254C176.325 82.9173 176.631 82.5772 177.141 82.3392L177.277 82.2712C177.515 82.1691 177.753 82.0331 178.059 81.9991C178.637 81.9311 179.216 81.8971 179.76 81.8631C179.964 81.8631 180.202 81.8291 180.406 81.8291L180.882 81.795V82.2712C180.882 82.4752 180.882 82.7133 180.916 82.9173C180.95 83.3935 180.95 83.9036 180.916 84.3797L180.848 85.0599C180.508 89.4811 180.168 94.0723 181.12 98.5275C181.63 100.942 182.889 102.234 185.031 102.541C185.235 102.575 185.439 102.575 185.677 102.575C187.582 102.575 189.656 101.418 190.711 99.7858C191.527 98.4935 191.799 97.0651 191.561 95.2966C191.425 94.3103 189.486 92.7119 188.432 92.7119C188.364 92.7119 188.33 92.7119 188.296 92.7119C188.024 92.7799 187.582 93.2221 187.378 93.6302C187.174 94.1063 186.766 95.0245 185.813 95.0245C185.677 95.0245 185.541 94.9905 185.405 94.9565C184.521 94.7185 184.113 93.9363 184.283 92.7459C184.555 91.0455 185.881 89.8552 187.718 89.6851C189.758 89.5151 191.731 90.3653 193.057 91.9297C194.384 93.4941 194.962 95.5007 194.622 97.5072C194.248 99.7178 193.601 102.2 191.425 103.969C190.541 104.683 189.452 105.227 188.5 105.431C187.31 105.669 186.357 105.771 185.473 105.771C183.637 105.771 182.004 105.261 180.168 104.071C178.739 106.316 176.801 108.492 173.74 108.492C173.23 108.492 172.72 108.424 172.21 108.322C168.503 107.54 166.7 105.091 166.802 101.044C166.462 101.316 166.156 101.554 165.816 101.758C165.646 101.894 165.442 101.996 165.272 102.132C164.558 102.609 163.844 103.085 163.061 103.391C162.313 103.663 162.143 104.071 162.041 104.819C161.599 107.982 160.511 110.567 158.708 112.709C157.11 114.614 155.341 115.532 153.369 115.532ZM153.709 88.8349C152.008 88.8349 150.342 89.7191 149.118 91.3516C146.975 94.1063 145.921 97.3371 145.853 101.18C145.819 102.813 145.989 104.479 146.193 105.873C146.499 108.322 147.451 110.533 149.016 112.437C150.036 113.661 151.09 114.342 152.28 114.58C154.457 114.988 156.362 114.206 157.96 112.301C159.626 110.295 160.647 107.846 161.089 104.853C161.225 103.867 161.565 103.153 162.687 102.745C163.401 102.473 164.082 102.03 164.728 101.588C164.932 101.452 165.102 101.35 165.306 101.214C165.646 101.01 165.952 100.738 166.326 100.432C166.53 100.262 166.734 100.092 166.972 99.9218L167.755 99.3097L167.653 100.33C167.244 104.513 168.775 106.894 172.312 107.676C172.788 107.778 173.23 107.812 173.672 107.812C176.495 107.812 178.263 105.601 179.624 103.425L179.862 103.051L180.236 103.323C182.072 104.581 183.637 105.125 185.439 105.125C186.255 105.125 187.174 105.023 188.262 104.785C189.112 104.615 190.03 104.139 190.813 103.493C192.751 101.928 193.329 99.7178 193.703 97.5752C193.975 95.8408 193.499 94.0723 192.343 92.7119C191.153 91.3176 189.486 90.6034 187.718 90.7734C186.289 90.9095 185.269 91.7937 185.065 93.086C184.895 94.1403 185.371 94.2763 185.541 94.3103C185.949 94.4124 186.187 94.2423 186.528 93.4601C186.8 92.882 187.412 92.1678 188.058 92.0317C188.16 91.9977 188.262 91.9977 188.364 91.9977C189.826 91.9977 192.139 93.9362 192.343 95.3306C192.615 97.3031 192.309 98.9356 191.357 100.398C190.166 102.268 187.786 103.595 185.609 103.595C185.337 103.595 185.099 103.561 184.861 103.527C182.378 103.153 180.814 101.588 180.236 98.8335C179.25 94.2763 179.59 89.6171 179.93 85.1279L179.998 84.4477C180.032 84.0056 179.998 83.5635 179.998 83.0874C179.998 83.0194 179.998 82.9513 179.998 82.8833C179.93 82.8833 179.862 82.8833 179.794 82.8833C179.25 82.9173 178.671 82.9513 178.127 83.0194C177.991 83.0194 177.821 83.1214 177.651 83.2234L177.515 83.2914C177.243 83.4275 177.073 83.5975 177.005 83.7676C176.937 83.9376 177.005 84.1757 177.175 84.4818C177.209 84.5498 177.277 84.6178 177.311 84.6858C177.515 84.9919 177.719 85.366 177.753 85.7401C177.923 87.8827 178.025 90.0252 178.127 92.1338C178.161 93.2221 178.195 94.3444 178.229 95.3986C178.263 96.895 178.297 98.4254 178.365 99.9558C178.467 101.826 177.923 103.391 176.767 104.683C175.815 105.737 174.624 106.316 173.502 106.316C172.142 106.316 170.951 105.533 170.101 104.139C169.489 103.085 169.081 101.622 168.979 100.194C168.843 97.7793 168.911 95.3306 168.945 92.984V92.3378C168.979 91.0795 169.047 89.7872 169.115 88.5288C169.149 87.7126 169.217 86.8964 169.251 86.0802C169.251 85.9101 169.251 85.6381 169.115 85.536C169.013 85.434 168.843 85.4 168.571 85.4C167.993 85.434 167.448 85.6381 167.21 85.9441C167.142 86.0462 167.074 86.1142 167.108 86.2162C167.176 87.1004 167.278 87.8827 167.448 88.6308C167.959 91.0795 167.721 93.6642 166.7 96.4529C165.816 98.9016 164.252 100.466 162.041 101.112L161.531 101.248L161.497 100.704C161.225 97.6772 160.647 94.2083 158.368 91.3516C157.008 89.6851 155.409 88.8349 153.709 88.8349ZM153.301 113.457C152.042 113.457 150.886 112.777 150.002 111.587C148.403 109.41 147.621 106.826 147.417 103.221C147.247 99.9558 147.655 97.1331 148.676 94.5824C148.948 93.9362 149.288 93.2901 149.628 92.6779C149.764 92.4058 149.934 92.1338 150.07 91.8277L150.648 90.7054L150.886 91.9637C151.022 92.6439 151.124 93.3241 151.226 93.9703C151.464 95.3646 151.668 96.691 152.042 97.9833C152.893 100.772 154.831 102.643 157.858 103.527C157.926 103.527 157.96 103.527 158.028 103.527C158.3 103.493 158.538 103.527 158.708 103.629C159.048 103.867 159.626 104.377 159.524 104.853L159.456 105.159C158.844 107.642 158.232 110.193 156.226 112.165C155.341 113.015 154.321 113.457 153.301 113.457ZM150.24 93.3581C149.968 93.8682 149.696 94.3784 149.492 94.9225C148.505 97.3371 148.097 100.058 148.267 103.187C148.471 106.622 149.22 109.036 150.682 111.077C151.396 112.063 152.315 112.607 153.301 112.607C154.117 112.607 154.899 112.233 155.613 111.553C157.45 109.75 158.028 107.438 158.606 104.989L158.674 104.785C158.606 104.683 158.47 104.547 158.266 104.411C158.232 104.411 158.198 104.411 158.164 104.411C157.994 104.445 157.79 104.445 157.654 104.411C154.321 103.459 152.178 101.384 151.226 98.2894C150.818 96.963 150.614 95.6027 150.376 94.1743C150.308 93.8682 150.274 93.6302 150.24 93.3581ZM158.81 101.18C158.64 101.18 158.436 101.146 158.232 101.078C154.015 99.7858 152.349 97.4052 152.587 93.12C152.621 92.2698 152.825 91.4536 153.029 90.6714C153.097 90.3993 153.301 90.1613 153.505 89.9232C153.607 89.8212 153.709 89.6851 153.811 89.5491L154.083 89.209L154.423 89.4471C154.695 89.6511 154.967 89.8212 155.239 89.9912C155.817 90.3653 156.328 90.7054 156.77 91.1475C158.028 92.5079 158.844 94.2423 159.252 96.4869C159.32 96.895 159.388 97.2691 159.422 97.6772C159.524 98.3234 159.626 98.9696 159.762 99.6157C159.864 100.126 159.83 100.5 159.592 100.772C159.456 101.01 159.218 101.18 158.81 101.18ZM154.219 90.4333C154.185 90.4673 154.151 90.5013 154.117 90.5354C153.981 90.7054 153.845 90.8414 153.845 90.9094C153.675 91.6236 153.471 92.4058 153.437 93.188C153.233 97.0991 154.627 99.0716 158.47 100.262C158.606 100.296 158.708 100.33 158.776 100.33C158.844 100.33 158.878 100.33 158.878 100.33C158.878 100.33 158.946 100.228 158.844 99.8878C158.708 99.2076 158.606 98.5275 158.504 97.8813C158.436 97.5072 158.402 97.0991 158.334 96.725C157.96 94.6504 157.246 93.052 156.09 91.8277C155.715 91.4536 155.273 91.1475 154.729 90.8074C154.593 90.6714 154.389 90.5354 154.219 90.4333Z" fill="url(#paint5_linear)"/>
<path fill-rule="evenodd" clip-rule="evenodd" d="M114.054 84.1078C116.095 83.3596 117.999 82.6455 119.904 81.9313C120.652 81.6592 120.924 81.2511 120.958 80.4009C121.06 76.8639 121.298 73.293 121.536 69.756C121.604 68.9058 122.693 68.3617 123.985 68.5657C123.849 72.3067 123.747 76.0817 123.611 80.0268C124.563 79.5166 125.311 79.0405 126.094 78.7684C127.148 78.3943 128.27 78.0882 129.392 77.9182C130.209 77.7822 130.549 77.3401 130.719 76.6599C131.433 73.7691 132.147 70.8783 132.861 67.9876C133.065 67.2394 133.337 66.5252 133.644 65.845C133.984 65.0628 134.732 64.7567 135.446 64.9608C136.228 65.1988 137.112 65.0628 137.453 66.3211C138.133 68.8718 139.085 71.3885 140.173 73.8371C141.636 77.17 143.268 80.4689 144.935 83.6997C146.125 86.0463 145.207 86.5565 142.724 86.8966C142.044 86.9986 141.67 86.5905 141.636 86.0463C141.5 83.6997 139.765 82.7135 137.997 81.8973C136.534 81.2171 134.97 80.809 133.269 80.1968C132.793 82.6454 132.385 84.856 131.977 87.0326C131.773 88.0529 131.603 89.0731 131.331 90.0934C131.229 90.4675 130.821 90.8076 130.481 91.0457C130.175 91.2497 129.767 91.3517 129.392 91.4198C128.712 91.4878 128.032 91.5218 127.352 91.5558C127.42 90.7736 127.42 89.9914 127.59 89.2432C128.27 86.4204 128.984 83.5977 129.767 80.4689C128.542 80.7409 127.556 80.945 126.604 81.1491C126.23 81.2511 125.889 81.3871 125.515 81.4891C123.815 82.1353 123.747 82.1353 123.781 83.9378C123.815 86.7265 123.951 89.5153 124.019 92.304C124.019 92.5761 123.951 92.9842 123.747 93.1202C122.829 93.7324 121.91 94.3445 120.924 94.8547C120.38 95.1267 119.972 94.7867 120.006 94.1405C120.142 92.372 120.278 90.6035 120.414 88.8351C120.516 87.2367 120.618 85.6722 120.72 84.1759C118.544 84.9241 116.469 85.6042 114.394 86.3524C114.19 86.4204 113.952 86.8966 113.952 87.1686C113.952 89.8213 113.986 92.474 113.986 95.1267C113.986 95.7049 114.735 96.3171 113.952 96.8272C113 97.4734 112.048 98.0855 111.028 98.5616C110.381 98.8677 110.075 98.3576 110.143 97.7114C110.279 96.4191 110.449 95.1608 110.551 93.9024C110.721 91.7258 110.824 89.5153 110.994 87.3387C111.062 86.6585 110.721 86.5225 110.177 86.3864C108.375 86.0123 107.117 84.924 106.198 83.3936C106.062 83.1896 105.892 82.9515 105.926 82.7135C105.96 82.3394 106.13 81.9653 106.232 81.5912C106.538 81.7272 107.015 81.7952 107.151 82.0333C107.831 83.0876 108.885 83.4957 109.973 83.8698C110.619 84.0738 110.96 84.0058 111.028 83.1216C111.164 80.0608 111.402 77 111.606 73.9392C111.674 73.0549 112.762 71.9326 113.646 72.0006C113.782 72.0006 114.02 72.5448 114.02 72.8169C114.054 76.4558 114.054 80.1288 114.054 84.1078ZM133.814 77.7482C135.82 78.4964 137.657 79.1765 139.731 79.9247C138.541 76.6939 137.725 73.5651 135.956 70.8443C135.854 70.8443 135.718 70.8443 135.616 70.8443C135.004 73.1569 134.392 75.4355 133.814 77.7482Z" fill="url(#paint6_linear)"/>
<path d="M110.687 99.1057C110.415 99.1057 110.177 99.0037 110.007 98.7996C109.769 98.5276 109.667 98.1535 109.701 97.6773C109.735 97.2012 109.803 96.6911 109.871 96.2149C109.973 95.4327 110.041 94.6505 110.109 93.8683C110.177 92.8821 110.245 91.8958 110.313 90.9436C110.381 89.7532 110.449 88.4949 110.551 87.2706C110.585 86.9305 110.551 86.8965 110.075 86.7945C108.273 86.4204 106.878 85.3661 105.824 83.5976L105.79 83.5296C105.654 83.2915 105.45 82.9855 105.484 82.6794C105.518 82.3733 105.62 82.0672 105.722 81.7951C105.756 81.6931 105.79 81.5911 105.824 81.4891L105.96 81.0129L106.402 81.217C106.47 81.251 106.572 81.285 106.674 81.319C106.98 81.421 107.321 81.5231 107.525 81.8291C108.103 82.7134 108.953 83.1215 110.109 83.4956C110.245 83.5296 110.381 83.5636 110.449 83.5636C110.483 83.5636 110.483 83.5636 110.483 83.5636C110.483 83.5636 110.551 83.4956 110.551 83.1555C110.653 81.081 110.789 78.9724 110.925 76.9659C110.994 75.9796 111.062 74.9593 111.13 73.9731C111.198 72.8168 112.558 71.5244 113.646 71.6265C114.224 71.6605 114.394 72.6127 114.394 72.8848C114.428 75.8096 114.428 78.7003 114.394 81.7951V83.5636C114.803 83.4276 115.177 83.2575 115.551 83.1215C116.979 82.5773 118.305 82.1012 119.666 81.6251C120.244 81.421 120.414 81.183 120.414 80.5028C120.516 77.1359 120.72 73.769 120.924 70.4701L120.958 69.858C121.026 68.9057 122.012 68.2256 123.339 68.2256C123.543 68.2256 123.713 68.2256 123.917 68.2596L124.291 68.3276L123.917 79.4145C123.985 79.3805 124.053 79.3465 124.121 79.3125C124.699 79.0064 125.243 78.7003 125.787 78.4963C126.944 78.0882 128.066 77.7821 129.154 77.612C129.698 77.51 129.971 77.2719 130.107 76.6938C130.379 75.6055 130.651 74.4832 130.923 73.3949C131.365 71.6265 131.807 69.824 132.249 68.0215C132.419 67.3413 132.691 66.5931 133.031 65.8109C133.371 65.0627 134.018 64.6206 134.8 64.6206C135.004 64.6206 135.174 64.6546 135.378 64.6886C135.514 64.7226 135.65 64.7566 135.82 64.7907C136.466 64.9267 137.35 65.0967 137.691 66.3891C138.337 68.7357 139.221 71.1843 140.377 73.837C141.704 76.8298 143.2 79.9587 145.139 83.6656C145.751 84.8219 145.853 85.6041 145.547 86.2163C145.139 86.9985 144.118 87.2706 142.622 87.4746C142.554 87.4746 142.452 87.4746 142.384 87.4746C141.636 87.4746 141.091 86.9645 141.023 86.1823C140.887 84.0737 139.357 83.1895 137.657 82.4073C136.704 81.9652 135.65 81.6251 134.562 81.251C134.188 81.149 133.848 81.0129 133.473 80.8769L133.167 82.5433C132.861 84.1758 132.555 85.7062 132.283 87.2366C132.249 87.4406 132.215 87.6787 132.147 87.8827C132.011 88.665 131.841 89.5152 131.603 90.2974C131.467 90.7055 131.161 91.0796 130.583 91.4877C130.175 91.7598 129.664 91.8958 129.324 91.9298C128.848 91.9978 128.338 91.9978 127.862 92.0318C127.658 92.0318 127.454 92.0659 127.284 92.0659L126.774 92.0999L126.808 91.5897C126.842 91.3517 126.842 91.1136 126.842 90.8755C126.876 90.3314 126.91 89.7873 127.046 89.2431C127.522 87.2026 128.032 85.162 128.576 83.0195C128.746 82.4073 128.882 81.7611 129.052 81.149L128.712 81.217C127.93 81.387 127.25 81.5231 126.57 81.6931C126.264 81.7611 125.957 81.8632 125.651 81.9992L125.515 82.0672C124.801 82.3393 124.393 82.4753 124.223 82.6794C124.087 82.8834 124.087 83.3255 124.087 84.0737C124.121 85.6722 124.155 87.3046 124.223 88.903C124.257 90.0933 124.291 91.2496 124.325 92.4399C124.325 92.746 124.257 93.3582 123.849 93.6303C122.829 94.3445 121.944 94.9226 120.958 95.3987C120.482 95.6368 120.006 95.5688 119.7 95.2287C119.496 94.9906 119.394 94.6505 119.394 94.2424C119.462 93.3922 119.53 92.508 119.598 91.6577C119.666 90.7395 119.734 89.8553 119.802 88.937C119.87 87.8147 119.938 86.6924 120.006 85.6041L120.04 84.924C119.768 85.026 119.462 85.128 119.19 85.196C117.523 85.7402 115.959 86.2843 114.36 86.8625C114.292 86.9305 114.19 87.1346 114.19 87.2706C114.19 88.801 114.19 90.3654 114.19 91.8618C114.19 92.9841 114.19 94.1064 114.19 95.2287C114.19 95.3307 114.258 95.5008 114.326 95.6368C114.496 96.0109 114.803 96.7591 113.986 97.3032C113.136 97.8814 112.082 98.5616 110.994 99.0717C111.028 99.0717 110.857 99.1057 110.687 99.1057ZM106.538 82.1692C106.47 82.3733 106.402 82.5773 106.402 82.7814C106.402 82.8494 106.504 83.0195 106.572 83.1215L106.606 83.1895C107.559 84.7539 108.749 85.6382 110.313 85.9782C110.721 86.0463 111.572 86.2503 111.47 87.3726C111.368 88.5969 111.3 89.8213 111.232 91.0116C111.164 91.9638 111.13 92.9501 111.028 93.9363C110.959 94.7186 110.857 95.5348 110.789 96.317C110.721 96.7931 110.687 97.3032 110.619 97.7794C110.585 98.0514 110.653 98.1875 110.687 98.2215C110.687 98.2215 110.721 98.2555 110.891 98.1875C111.844 97.7454 112.728 97.1672 113.748 96.487C113.918 96.351 113.952 96.351 113.782 95.8749C113.68 95.6708 113.578 95.3987 113.578 95.1267C113.578 94.0044 113.578 92.8821 113.578 91.7598C113.578 90.2634 113.544 88.699 113.578 87.1686C113.578 86.7605 113.85 86.1143 114.292 85.9442C115.891 85.3661 117.489 84.8219 119.156 84.2778C119.632 84.1077 120.108 83.9377 120.618 83.8017L121.23 83.5976L121.094 85.5701C121.026 86.6584 120.958 87.7807 120.89 88.903C120.822 89.8213 120.754 90.7055 120.686 91.6237C120.618 92.474 120.55 93.3582 120.482 94.2084C120.482 94.3785 120.516 94.4805 120.55 94.5485C120.55 94.5825 120.652 94.5825 120.788 94.5145C121.706 94.0724 122.557 93.4942 123.543 92.8141C123.577 92.78 123.645 92.542 123.645 92.3719C123.611 91.2156 123.577 90.0253 123.543 88.869C123.475 87.2706 123.441 85.6382 123.407 84.0397C123.373 82.1012 123.509 81.8972 125.379 81.217L125.515 81.149C125.855 81.0129 126.196 80.9109 126.57 80.8089C127.25 80.6388 127.93 80.5028 128.746 80.3328L130.447 79.9587L130.277 80.6388C130.073 81.5231 129.834 82.3733 129.63 83.1895C129.086 85.3321 128.576 87.3726 128.1 89.4132C127.998 89.8893 127.964 90.3654 127.93 90.9095C127.93 90.9776 127.93 91.0796 127.93 91.1476C127.964 91.1476 127.998 91.1476 128.032 91.1476C128.508 91.1136 128.984 91.1136 129.426 91.0456C129.8 91.0116 130.107 90.9095 130.311 90.7395C130.821 90.3654 130.957 90.1273 130.991 90.0253C131.229 89.2771 131.365 88.4609 131.501 87.6787C131.535 87.4406 131.569 87.2366 131.637 86.9985C131.943 85.4681 132.215 83.9377 132.521 82.3053L133.031 79.6526L133.507 79.8226C134.052 80.0267 134.562 80.1627 135.072 80.3328C136.194 80.7069 137.248 81.0469 138.269 81.5231C140.139 82.4073 141.976 83.4616 142.146 86.0463C142.146 86.2503 142.248 86.5224 142.622 86.5224C142.656 86.5224 142.69 86.5224 142.758 86.5224C143.744 86.3864 144.798 86.1823 145.036 85.7062C145.207 85.3661 145.07 84.7879 144.628 83.9377C142.69 80.1967 141.193 77.0679 139.867 74.0411C138.677 71.3204 137.793 68.8377 137.146 66.4571C136.942 65.6749 136.534 65.6069 135.922 65.5048C135.752 65.4708 135.582 65.4368 135.412 65.4028C134.868 65.2328 134.358 65.5048 134.12 66.049C133.78 66.7972 133.541 67.5114 133.371 68.1235C132.929 69.892 132.487 71.7285 132.045 73.4629C131.773 74.5512 131.501 75.6735 131.229 76.7618C130.991 77.6801 130.481 78.1902 129.562 78.3262C128.508 78.4963 127.42 78.7683 126.332 79.1764C125.821 79.3465 125.345 79.6186 124.801 79.9246C124.529 80.0947 124.223 80.2307 123.917 80.4008L123.271 80.7409L123.645 68.9397C122.795 68.9397 122.08 69.2798 122.08 69.756L122.046 70.3681C121.842 73.633 121.638 77.0339 121.536 80.3668C121.502 81.421 121.128 81.9652 120.21 82.3053C118.85 82.7814 117.523 83.2915 116.095 83.8017C115.517 84.0057 114.939 84.2438 114.36 84.4478L113.782 84.6519V81.6591C113.782 78.5643 113.782 75.6735 113.748 72.7488C113.748 72.6467 113.68 72.4767 113.646 72.3747C113.034 72.4767 112.252 73.2929 112.218 73.9051C112.15 74.8913 112.082 75.9116 112.014 76.8978C111.878 78.9384 111.742 81.0129 111.64 83.0875C111.606 84.1077 111.062 84.3458 110.653 84.3458C110.483 84.3458 110.279 84.3118 110.041 84.2438C108.987 83.9037 107.763 83.4276 106.98 82.2373C106.776 82.2373 106.64 82.2032 106.538 82.1692ZM140.445 80.6728L133.269 78.0201L135.242 70.4361L136.16 70.4021L136.296 70.6062C137.691 72.7147 138.507 75.0614 139.357 77.51C139.595 78.2582 139.867 79.0064 140.139 79.7546L140.445 80.6728ZM134.324 77.476L139.017 79.2105C138.847 78.7343 138.677 78.2922 138.541 77.8161C137.793 75.5715 137.044 73.4629 135.888 71.5584L134.324 77.476Z" fill="url(#paint7_linear)"/>
<path fill-rule="evenodd" clip-rule="evenodd" d="M171.802 52.5473C171.802 55.7782 171.802 58.839 171.802 61.8998C171.87 61.9338 171.938 61.9338 172.006 61.9678C172.924 60.7095 173.842 59.4852 174.726 58.2268C176.461 55.7442 178.161 53.2615 179.862 50.7449C180.542 49.7246 183.467 48.6023 184.759 49.0104C183.807 50.4048 182.854 51.7991 181.902 53.1255C179.828 56.0503 177.719 58.941 175.611 61.8318C175.066 62.58 174.93 63.1922 175.441 64.0764C178.161 68.8717 181.154 73.4289 185.303 77.2039C188.772 80.3667 193.397 81.2509 197.58 79.3124C200.029 78.1901 201.525 75.2994 201.253 72.6126C201.015 70.5721 200.233 68.9737 198.499 67.8514C197.24 67.0352 195.846 67.0352 194.452 67.3413C193.125 67.6133 192.615 68.7016 192.309 69.9259C192.241 70.232 191.867 70.4701 191.629 70.7422C191.425 70.4021 191.017 70.062 191.017 69.6879C190.949 66.9331 192.853 65.8449 195.098 65.6748C198.056 65.4368 200.505 66.525 202.002 69.2118C203.532 72.0345 203.532 74.8912 201.934 77.646C199.757 81.387 196.288 83.0194 192.105 82.6793C188.942 82.4412 186.085 81.0809 183.501 79.2444C179.284 76.2856 176.427 72.2045 173.944 67.8174C173.672 67.3072 173.366 66.7971 173.06 66.287C173.026 66.253 172.924 66.253 172.822 66.1849C172.142 67.0352 171.734 67.9194 171.768 69.1097C171.836 71.1843 171.734 73.2928 171.7 75.4014C171.666 76.6937 170.577 77.918 169.319 77.9861C168.673 78.0201 168.367 77.612 168.367 76.8978C168.435 73.837 168.435 70.7422 168.503 67.6813C168.571 63.6343 168.741 59.5872 168.707 55.5401C168.707 54.1798 169.115 53.4316 170.339 53.0575C170.781 52.9555 171.189 52.7854 171.802 52.5473Z" fill="url(#paint8_linear)"/>
<path d="M193.193 83.1892C192.819 83.1892 192.479 83.1892 192.105 83.1552C189.18 82.9172 186.289 81.7609 183.296 79.6523C178.603 76.3534 175.644 71.7282 173.604 68.0892C173.4 67.7151 173.162 67.307 172.924 66.8989C172.414 67.6131 172.21 68.3273 172.244 69.1435C172.278 70.6739 172.244 72.2043 172.21 73.7007C172.21 74.2789 172.176 74.857 172.176 75.4352C172.142 76.9656 170.849 78.394 169.387 78.428C168.877 78.462 168.537 78.2579 168.367 78.0879C168.094 77.8158 167.958 77.4077 167.992 76.8976C168.026 75.2311 168.06 73.4967 168.06 71.8642C168.06 70.4699 168.094 69.0755 168.128 67.6811C168.162 66.3208 168.196 64.9604 168.231 63.6001C168.299 60.9474 168.367 58.2266 168.367 55.5399C168.367 53.9415 168.945 53.0913 170.305 52.6492C170.577 52.5812 170.815 52.4791 171.155 52.3431C171.325 52.2751 171.495 52.2071 171.699 52.139L172.278 51.935V60.9474C172.38 60.8113 172.482 60.6753 172.55 60.5393C173.162 59.689 173.808 58.8388 174.386 57.9546C175.712 56.0501 177.039 54.1116 178.331 52.2071L179.521 50.4726C180.202 49.4863 182.582 48.4661 184.147 48.4661C184.419 48.4661 184.691 48.5001 184.895 48.5681L185.473 48.7381L185.133 49.2143C184.827 49.6564 184.521 50.0985 184.249 50.5406C183.569 51.5269 182.956 52.4451 182.276 53.3634C180.576 55.744 178.331 58.9068 175.985 62.0697C175.508 62.7498 175.474 63.1579 175.849 63.8381C178.229 68.0212 181.222 72.8505 185.609 76.8636C187.752 78.8021 190.37 79.8564 193.057 79.8564C194.553 79.8564 196.016 79.5163 197.444 78.8701C199.689 77.8498 201.117 75.1971 200.845 72.6124C200.607 70.5719 199.825 69.1435 198.294 68.1573C197.308 67.5111 196.152 67.3751 194.587 67.7151C193.669 67.9192 193.125 68.5994 192.785 69.9937C192.717 70.3338 192.445 70.5719 192.241 70.776C192.173 70.844 192.105 70.912 192.037 70.98L191.663 71.4561L191.357 70.946C191.289 70.844 191.221 70.776 191.153 70.6399C190.949 70.3678 190.676 70.0618 190.676 69.6537C190.608 67.069 192.241 65.4365 195.166 65.1985C198.43 64.9264 200.981 66.2528 202.478 68.9735C204.076 71.9323 204.042 74.9931 202.376 77.8498C200.335 81.3528 197.172 83.1892 193.193 83.1892ZM172.686 65.7086L172.958 65.8106C172.992 65.8106 172.992 65.8106 173.026 65.8447C173.128 65.8787 173.298 65.9127 173.4 66.1167C173.706 66.6269 174.012 67.137 174.284 67.6471C176.291 71.2181 179.181 75.7413 183.739 78.9381C186.629 80.9787 189.35 82.0669 192.139 82.305C192.479 82.339 192.853 82.339 193.159 82.339C196.866 82.339 199.689 80.7066 201.559 77.4757C203.09 74.857 203.124 72.1703 201.627 69.4496C200.403 67.205 198.498 66.0827 195.914 66.0827C195.676 66.0827 195.404 66.0827 195.132 66.1167C193.397 66.2528 191.357 67.001 191.425 69.6877C191.425 69.7557 191.561 69.9257 191.663 70.0618C191.765 69.9597 191.833 69.8577 191.867 69.7897C192.173 68.5994 192.717 67.205 194.349 66.8649C194.928 66.7289 195.472 66.6949 195.982 66.6949C197.002 66.6949 197.92 66.967 198.703 67.4431C200.437 68.5654 201.423 70.2318 201.661 72.5444C201.967 75.5032 200.335 78.496 197.75 79.6863C196.22 80.4005 194.621 80.7406 192.989 80.7406C190.098 80.7406 187.276 79.5843 184.963 77.5097C180.474 73.4287 177.413 68.5314 175.032 64.2802C174.488 63.294 174.522 62.5118 175.236 61.5595C177.549 58.3967 179.828 55.2339 181.528 52.8532C182.174 51.935 182.82 51.0167 183.467 50.0305C183.637 49.7924 183.773 49.5544 183.943 49.3163C182.548 49.3843 180.644 50.3025 180.168 50.9487L178.977 52.6832C177.685 54.5537 176.359 56.5262 175.032 58.4307C174.42 59.3149 173.774 60.1652 173.162 61.0154C172.89 61.3895 172.584 61.7976 172.312 62.1717L172.142 62.4097L171.325 62.1717V53.1933C171.019 53.3293 170.747 53.4314 170.475 53.4994C169.489 53.8055 169.115 54.3496 169.149 55.5399C169.183 58.2266 169.081 60.9814 169.013 63.6001C168.979 64.9604 168.945 66.3208 168.911 67.6811C168.877 69.0755 168.877 70.4699 168.843 71.8302C168.843 73.4967 168.809 75.1971 168.775 76.8976C168.775 77.1696 168.809 77.3397 168.911 77.4417C168.945 77.4757 169.013 77.5437 169.217 77.5437H169.251C170.271 77.5097 171.189 76.4895 171.223 75.4012C171.223 74.823 171.257 74.2449 171.257 73.6327C171.291 72.1703 171.325 70.6399 171.291 69.1435C171.257 67.9532 171.631 66.9669 172.448 65.9467L172.686 65.7086Z" fill="url(#paint9_linear)"/>
<defs>
<filter id="filter0_d" x="34.4688" y="0.52351" width="229.416" height="251.634" filterUnits="userSpaceOnUse" color-interpolation-filters="sRGB">
<feFlood flood-opacity="0" result="BackgroundImageFix"/>
<feColorMatrix in="SourceAlpha" type="matrix" values="0 0 0 0 0 0 0 0 0 0 0 0 0 0 0 0 0 0 127 0"/>
<feOffset dx="5.35352" dy="5.35352"/>
<feGaussianBlur stdDeviation="9.358"/>
<feColorMatrix type="matrix" values="0 0 0 0 0.139028 0 0 0 0 0.264457 0 0 0 0 0.758333 0 0 0 0.4 0"/>
<feBlend mode="normal" in2="BackgroundImageFix" result="effect1_dropShadow"/>
<feBlend mode="normal" in="SourceGraphic" in2="effect1_dropShadow" result="shape"/>
</filter>
<linearGradient id="paint0_linear" x1="134.111" y1="90.7303" x2="134.111" y2="143.079" gradientUnits="userSpaceOnUse">
<stop stop-color="#7793FF"/>
<stop offset="1" stop-color="#5573EC"/>
</linearGradient>
<linearGradient id="paint1_linear" x1="124.662" y1="94.8411" x2="124.662" y2="122.82" gradientUnits="userSpaceOnUse">
<stop stop-color="#7793FF"/>
<stop offset="1" stop-color="#5573EC"/>
</linearGradient>
<linearGradient id="paint2_linear" x1="123.56" y1="46.2366" x2="123.56" y2="101.908" gradientUnits="userSpaceOnUse">
<stop stop-color="#7793FF"/>
<stop offset="1" stop-color="#5573EC"/>
</linearGradient>
<linearGradient id="paint3_linear" x1="123.585" y1="45.6924" x2="123.585" y2="102.37" gradientUnits="userSpaceOnUse">
<stop stop-color="#7793FF"/>
<stop offset="1" stop-color="#5573EC"/>
</linearGradient>
<linearGradient id="paint4_linear" x1="169.868" y1="82.3051" x2="169.868" y2="115.004" gradientUnits="userSpaceOnUse">
<stop stop-color="#7793FF"/>
<stop offset="1" stop-color="#5573EC"/>
</linearGradient>
<linearGradient id="paint5_linear" x1="169.843" y1="81.795" x2="169.843" y2="115.532" gradientUnits="userSpaceOnUse">
<stop stop-color="#7793FF"/>
<stop offset="1" stop-color="#5573EC"/>
</linearGradient>
<linearGradient id="paint6_linear" x1="125.687" y1="64.8993" x2="125.687" y2="98.6528" gradientUnits="userSpaceOnUse">
<stop stop-color="#7793FF"/>
<stop offset="1" stop-color="#5573EC"/>
</linearGradient>
<linearGradient id="paint7_linear" x1="125.597" y1="64.6206" x2="125.597" y2="99.1057" gradientUnits="userSpaceOnUse">
<stop stop-color="#7793FF"/>
<stop offset="1" stop-color="#5573EC"/>
</linearGradient>
<linearGradient id="paint8_linear" x1="185.754" y1="48.9244" x2="185.754" y2="82.7232" gradientUnits="userSpaceOnUse">
<stop stop-color="#7793FF"/>
<stop offset="1" stop-color="#5573EC"/>
</linearGradient>
<linearGradient id="paint9_linear" x1="185.819" y1="48.4661" x2="185.819" y2="83.1892" gradientUnits="userSpaceOnUse">
<stop stop-color="#7793FF"/>
<stop offset="1" stop-color="#5573EC"/>
</linearGradient>
</defs>
</svg>
